<svg width="22" height="16" viewBox="0 0 22 16" fill="none" xmlns="http://www.w3.org/2000/svg">
<g clip-path="url(#clip0)">
<path d="M17.0671 14.6667H6.40039V13.3334C6.40039 12.4494 6.75158 11.6015 7.3767 10.9764C8.00182 10.3513 8.84967 10.0001 9.73372 10.0001H13.7337C14.6178 10.0001 15.4656 10.3513 16.0907 10.9764C16.7159 11.6015 17.0671 12.4494 17.0671 13.3334V14.6667ZM11.7337 8.66675C11.2084 8.66675 10.6883 8.56328 10.203 8.36227C9.71769 8.16125 9.27673 7.86661 8.9053 7.49518C8.53386 7.12374 8.23922 6.68278 8.03821 6.19748C7.83719 5.71218 7.73372 5.19204 7.73372 4.66675C7.73372 4.14146 7.83719 3.62132 8.03821 3.13601C8.23922 2.65071 8.53386 2.20976 8.9053 1.83832C9.27673 1.46689 9.71769 1.17225 10.203 0.97123C10.6883 0.770211 11.2084 0.666748 11.7337 0.666748C12.7946 0.666748 13.812 1.08818 14.5622 1.83832C15.3123 2.58847 15.7337 3.60588 15.7337 4.66675C15.7337 5.72761 15.3123 6.74503 14.5622 7.49518C13.812 8.24532 12.7946 8.66675 11.7337 8.66675Z" fill="#D5D5D5"/>
<path d="M13.8659 14.6667H3.19922V13.3334C3.19922 12.4494 3.55041 11.6015 4.17553 10.9764C4.80065 10.3513 5.6485 10.0001 6.53255 10.0001H10.5326C11.4166 10.0001 12.2645 10.3513 12.8896 10.9764C13.5147 11.6015 13.8659 12.4494 13.8659 13.3334V14.6667ZM8.53255 8.66675C8.00726 8.66675 7.48712 8.56328 7.00182 8.36227C6.51652 8.16125 6.07556 7.86661 5.70412 7.49518C5.33269 7.12374 5.03805 6.68278 4.83703 6.19748C4.63601 5.71218 4.53255 5.19204 4.53255 4.66675C4.53255 4.14146 4.63601 3.62132 4.83703 3.13601C5.03805 2.65071 5.33269 2.20976 5.70412 1.83832C6.07556 1.46689 6.51652 1.17225 7.00182 0.97123C7.48712 0.770211 8.00726 0.666748 8.53255 0.666748C9.59342 0.666748 10.6108 1.08818 11.361 1.83832C12.1111 2.58847 12.5326 3.60588 12.5326 4.66675C12.5326 5.72761 12.1111 6.74503 11.361 7.49518C10.6108 8.24532 9.59342 8.66675 8.53255 8.66675Z" fill="white"/>
</g>
<g clip-path="url(#clip1)">
<path d="M11.3327 14.6666H0.666016V13.3333C0.666016 12.4492 1.01721 11.6014 1.64233 10.9763C2.26745 10.3511 3.11529 9.99996 3.99935 9.99996H7.99935C8.8834 9.99996 9.73125 10.3511 10.3564 10.9763C10.9815 11.6014 11.3327 12.4492 11.3327 13.3333V14.6666ZM5.99935 8.66663C5.47406 8.66663 4.95392 8.56316 4.46862 8.36214C3.98331 8.16113 3.54236 7.86649 3.17092 7.49505C2.79949 7.12362 2.50485 6.68266 2.30383 6.19736C2.10281 5.71206 1.99935 5.19191 1.99935 4.66663C1.99935 4.14134 2.10281 3.62119 2.30383 3.13589C2.50485 2.65059 2.79949 2.20963 3.17092 1.8382C3.54236 1.46676 3.98331 1.17213 4.46862 0.971108C4.95392 0.770089 5.47406 0.666626 5.99935 0.666626C7.06021 0.666626 8.07763 1.08805 8.82778 1.8382C9.57792 2.58834 9.99935 3.60576 9.99935 4.66663C9.99935 5.72749 9.57792 6.74491 8.82778 7.49505C8.07763 8.2452 7.06021 8.66663 5.99935 8.66663Z" fill="#D5D5D5"/>
</g>
<defs>
<clipPath id="clip0">
<rect width="16" height="16" fill="white" transform="translate(5.59961)"/>
</clipPath>
<clipPath id="clip1">
<rect width="16" height="16" fill="white"/>
</clipPath>
</defs>
</svg>
