<svg width="169" height="241" viewBox="0 0 169 241" fill="none" xmlns="http://www.w3.org/2000/svg">
<rect x="1.49988" y="0.62915" width="118.529" height="239" rx="11.5" stroke="#0D477C"/>
<path d="M37.6472 0.12915H84.706V5.54091C84.706 7.75005 82.9152 9.54092 80.706 9.54092H41.6472C39.4381 9.54092 37.6472 7.75005 37.6472 5.54092V0.12915Z" fill="#0D477C"/>
<rect y="59.4235" width="1.88235" height="16.9412" rx="0.941176" fill="#0D477C"/>
<rect y="40.5999" width="1.88235" height="16.9412" rx="0.941176" fill="#0D477C"/>
<rect x="119.529" y="40.5999" width="1.88235" height="14.1176" rx="0.941176" fill="#0D477C"/>
<rect x="72.4706" y="3.89355" width="1.88235" height="1.88235" rx="0.941176" fill="#0D477C"/>
<rect x="48" y="3.89368" width="22.5882" height="1.88235" rx="0.941176" fill="#0D477C"/>
<g clip-path="url(#clip0)">
<path d="M73.778 118.254C73.9042 118.254 74.0247 118.179 74.0763 118.056C74.1452 117.891 74.0677 117.703 73.9028 117.634C72.262 116.949 70.5452 116.425 68.8011 116.075C65.2628 115.362 61.4992 115.362 57.9552 116.075C56.2097 116.425 54.4943 116.949 52.8535 117.634C52.6886 117.703 52.6111 117.892 52.68 118.056C52.7488 118.221 52.9367 118.298 53.1016 118.229C54.7037 117.561 56.3789 117.049 58.0828 116.708C61.5437 116.012 65.2183 116.012 68.6734 116.708C70.3773 117.049 72.0526 117.561 73.6546 118.229C73.6948 118.245 73.7364 118.254 73.778 118.254Z" fill="#0D477C" stroke="#0D477C" stroke-width="0.25"/>
<path d="M46.8863 106.497C46.9207 106.497 46.9565 106.491 46.991 106.478C48.1455 106.074 49.5511 105.671 50.8477 105.376C51.0184 105.337 51.1245 105.168 51.0858 104.997C51.0471 104.826 50.8764 104.719 50.7071 104.759C49.3876 105.06 47.9576 105.469 46.7815 105.882C46.6166 105.939 46.5291 106.12 46.5879 106.285C46.6338 106.415 46.7557 106.497 46.8863 106.497Z" fill="#0D477C" stroke="#0D477C" stroke-width="0.25"/>
<path d="M38.5448 126.657C40.0766 126.657 41.3215 125.411 41.3215 123.88C41.3215 123.687 41.1638 123.529 40.9701 123.529C40.7765 123.529 40.6187 123.687 40.6187 123.88C40.6187 125.024 39.6879 125.954 38.5448 125.954C37.4017 125.954 36.4709 125.024 36.4709 123.88C36.4709 123.687 36.3131 123.529 36.1195 123.529C35.9258 123.529 35.7681 123.687 35.7681 123.88C35.7681 125.411 37.013 126.657 38.5448 126.657Z" fill="#0D477C" stroke="#0D477C" stroke-width="0.25"/>
<path d="M47.2351 106.189C41.1567 103.406 38.3225 102.823 37.0145 102.823C36.3949 102.823 36.1525 102.949 35.9933 103.033C35.1944 103.451 34.7527 104.924 34.7139 107.293C34.6838 109.126 34.9162 111.27 35.3493 113.175L35.4354 113.555L35.1629 113.835C34.4902 114.525 33.8735 115.253 33.3284 115.998C32.1222 117.651 31.2 119.473 30.5904 121.415C30.3968 122.029 29.9206 122.511 29.3139 122.706L26.3063 123.669C24.9265 124.111 24 125.382 24 126.831V131.819C24 133.268 24.9265 134.538 26.3063 134.98L31.1527 136.532C31.5916 136.673 31.9659 136.978 32.204 137.391C34.2148 140.866 37.3372 143.741 41.4851 145.934L41.7906 146.096L43.3654 154.437C43.5347 155.334 44.3206 155.985 45.2328 155.985H50.28C51.1922 155.985 51.9767 155.334 52.1474 154.437L53.0539 149.651L53.7308 149.747C55.8421 150.046 58.0107 150.196 60.1793 150.196C61.757 150.196 63.3232 150.114 64.832 149.955L65.4889 149.885L66.3509 154.437C66.5202 155.334 67.3061 155.985 68.2183 155.985H73.2655C74.1777 155.985 74.9637 155.334 75.1329 154.437L76.6504 146.556L76.9473 146.394C80.3565 144.538 83.03 142.074 84.8931 139.069C86.9139 135.808 87.938 131.967 87.938 127.652C87.938 127.093 87.9194 126.515 87.8835 125.933L87.8147 125.231C87.8147 125.231 88.9033 125.138 89.0998 125.117L89.6161 125.058L89.8327 125.53C90.0105 125.917 90.2414 126.291 90.5211 126.641C92.3355 128.917 94.1799 129.395 95.4062 129.395C95.4779 129.395 95.5468 129.394 95.6127 129.391C95.8293 129.379 96 129.203 96 128.989C96 128.767 95.8236 128.592 95.5984 128.585C94.3649 128.543 92.5778 128.096 91.069 126.202C90.9815 126.093 90.8998 125.982 90.8252 125.87L90.2386 124.992L91.2712 124.77C93.3108 124.332 94.5643 123.659 94.9946 122.77C95.3316 122.076 95.1753 121.294 94.5327 120.445C94.0551 119.813 93.4069 119.466 92.7084 119.466C92.6123 119.466 92.5147 119.473 92.4186 119.486C91.3186 119.632 90.2687 120.571 89.7437 121.877C89.5014 122.478 89.388 123.099 89.4038 123.723L89.421 124.387L88.7613 124.455C88.6795 124.464 88.5978 124.471 88.516 124.478L87.7688 124.546L87.6698 123.875C87.2022 120.688 86.1194 117.823 84.4499 115.361C82.7761 112.892 80.5042 110.819 77.6988 109.196C77.6443 109.165 77.5855 109.149 77.5238 109.149C77.3962 109.149 77.2814 109.215 77.2183 109.324C77.1208 109.492 77.1782 109.707 77.3474 109.804C80.4655 111.609 82.8908 113.978 84.5546 116.847C86.3331 119.915 87.2352 123.549 87.2352 127.651C87.2352 135.798 83.5004 142.098 76.4324 145.872C76.1727 146.011 75.992 146.255 75.9361 146.542L74.4416 154.304C74.3355 154.869 73.8392 155.279 73.2655 155.279H68.2183C67.6432 155.279 67.1484 154.869 67.0422 154.305L66.2247 149.99C66.1401 149.542 65.7299 149.204 65.2695 149.204C65.2322 149.204 65.1949 149.205 65.159 149.209C63.5512 149.396 61.876 149.491 60.1793 149.491C57.8988 149.491 55.6226 149.321 53.4139 148.987C53.3637 148.98 53.312 148.976 53.2633 148.976C52.8014 148.976 52.4027 149.307 52.3167 149.762L51.4575 154.304C51.35 154.869 50.8551 155.278 50.2814 155.278H45.2343C44.6591 155.278 44.1643 154.868 44.0582 154.304L42.5063 146.086C42.4518 145.793 42.2668 145.546 42.0014 145.409C37.8779 143.266 34.7871 140.449 32.8135 137.038C32.4865 136.473 31.9731 136.056 31.3678 135.862L26.5214 134.31C25.4343 133.962 24.7042 132.961 24.7042 131.819V126.831C24.7042 125.689 25.4343 124.688 26.5214 124.339L29.5291 123.375C30.3538 123.112 31.0021 122.458 31.2631 121.626C31.8497 119.758 32.7375 118.004 33.8993 116.412C34.1833 116.023 34.4888 115.638 34.8086 115.263L35.6018 114.337L36.0249 115.481C36.6315 117.119 37.3688 118.193 38.2178 118.674C39.0096 119.123 40.0953 119.37 41.2728 119.37C43.0427 119.37 44.7595 118.826 46.1092 117.839C47.3369 116.941 48.2018 115.722 48.6837 114.216C49.233 112.495 49.2602 110.431 48.7654 108.081C48.7582 108.049 48.7511 108.019 48.7425 107.987C48.7425 107.987 48.5087 107.428 48.4169 107.267C48.0411 106.602 47.4086 106.268 47.2351 106.189ZM92.7141 120.167C93.0454 120.167 93.5331 120.289 93.972 120.868C94.4481 121.498 94.5758 122.02 94.3621 122.462C94.2359 122.724 93.8486 123.52 90.9844 124.114L90.0679 124.303L90.1238 123.37C90.1554 122.835 90.2902 122.404 90.3978 122.136C90.8237 121.078 91.6728 120.292 92.5133 120.18C92.5807 120.171 92.6467 120.167 92.7141 120.167ZM37.0633 103.512C38.7141 103.512 42.4073 104.752 46.9425 106.827C47.5262 107.094 47.9508 107.616 48.0798 108.224C49.1814 113.453 47.3914 116.031 45.6961 117.27C44.4669 118.169 42.9007 118.664 41.2829 118.664C40.2316 118.664 39.2405 118.444 38.5649 118.062C37.0245 117.19 35.9575 113.568 35.5831 110.367C35.2174 107.241 35.4526 104.536 36.1525 103.791L36.2629 103.673L36.4135 103.614C36.5871 103.545 36.7994 103.512 37.0633 103.512Z" fill="#0D477C" stroke="#0D477C" stroke-width="0.25"/>
<path d="M59.5582 101.949C59.7031 101.586 59.9254 101.252 60.2194 100.958C60.512 100.665 60.8835 100.406 61.3267 100.184C61.7627 99.9656 62.3981 99.7131 63.2142 99.4349C64.0174 99.1595 64.6484 98.8827 65.0888 98.6131C65.5205 98.3477 65.8317 98.0508 66.0153 97.731C66.1989 97.4111 66.2907 96.9651 66.2907 96.4057C66.2907 95.6226 66.0096 94.9772 65.4574 94.4838C64.9009 93.9876 64.145 93.7366 63.2127 93.7366C62.2547 93.7366 61.4902 94.0349 60.9409 94.6215C60.3887 95.211 60.109 96.0027 60.109 96.9751V97.0827H59.4119V96.9751C59.4119 95.799 59.7217 94.8553 60.3313 94.1683C60.9251 93.5013 61.767 93.1241 62.8384 93.0452V91.3715H63.5441V93.0452C64.5423 93.0983 65.367 93.4196 65.9981 94.0019C66.655 94.6057 66.9877 95.4175 66.9877 96.4143C66.9877 97.0239 66.8744 97.5517 66.6492 97.9805C66.4255 98.4108 66.0755 98.7909 65.6108 99.1122C65.1533 99.4291 64.4347 99.7576 63.4752 100.089C62.5329 100.414 61.8115 100.729 61.3324 101.02C60.862 101.307 60.5249 101.622 60.3299 101.958C60.1348 102.292 60.0373 102.725 60.0373 103.244C60.0373 103.993 60.3313 104.631 60.9108 105.142C61.4945 105.655 62.2475 105.916 63.1511 105.916C64.2483 105.916 65.126 105.627 65.76 105.054C66.3911 104.485 66.7109 103.683 66.7109 102.669V102.562H67.408V102.669C67.408 103.865 67.0494 104.821 66.3409 105.508C65.6539 106.174 64.68 106.545 63.4465 106.609V108.283H62.7409V106.596C61.7311 106.52 60.9093 106.187 60.2983 105.605C59.6629 105.001 59.3417 104.201 59.3417 103.23C59.3417 102.742 59.4148 102.312 59.5582 101.949Z" fill="#0D477C" stroke="#0D477C" stroke-width="0.25"/>
<path d="M63.3746 113.522C70.9275 113.522 77.0704 107.378 77.0704 99.8264C77.0704 92.275 70.9275 86.1292 63.3746 86.1292C55.8218 86.1292 49.6789 92.2735 49.6789 99.8249C49.6789 107.376 55.8218 113.522 63.3746 113.522ZM63.3746 86.7746C70.5703 86.7746 76.425 92.6292 76.425 99.8249C76.425 107.021 70.5703 112.875 63.3746 112.875C56.1789 112.875 50.3243 107.021 50.3243 99.8249C50.3243 92.6292 56.1789 86.7746 63.3746 86.7746Z" fill="#0D477C" stroke="#0D477C" stroke-width="0.25"/>
</g>
<rect x="18.5" y="72.6292" width="84" height="96" rx="4.5" stroke="#0D477C"/>
<path d="M90.574 156.626L164.104 199.078V111.52L90.574 69.0685C83.5138 64.9919 77.7908 69.3196 77.7908 78.7309V132.201C77.7908 141.615 83.5138 152.549 90.574 156.626Z" fill="url(#paint0_linear)"/>
<path d="M77.4864 78.9494L145.335 118.12C149.535 120.546 156.372 120.546 160.572 118.12C162.607 116.946 163.66 115.418 163.718 113.871V113.576L159.565 111.181L90.1883 71.1241C84.2118 67.6754 79.2003 70.2451 77.798 76.8239C77.6562 77.4937 77.5539 78.1983 77.4864 78.9494Z" fill="#4D5FD1"/>
<path d="M81.363 81.3426L149.212 120.513C153.412 122.939 160.248 122.939 164.448 120.513C166.483 119.339 167.537 117.811 167.595 116.265V115.969L163.441 113.574L94.0672 73.5196C88.0907 70.0709 83.0792 72.6406 81.6769 79.2194C81.5328 79.8868 81.4304 80.5891 81.363 81.3426Z" fill="#0D477C"/>
<path d="M80.0474 91.2266V93.2249L80.1283 93.1751C80.2559 93.1035 80.3867 93.0288 80.5143 92.951L84.8065 90.4702C84.8626 90.4391 84.9124 90.4142 84.9684 90.3738V88.3755L83.7856 89.0602L80.0474 91.2266Z" fill="url(#paint1_linear)"/>
<path d="M62.3937 53.1845L57.4945 56.0107V54.0093L62.3937 51.1831V53.1845Z" fill="url(#paint2_linear)"/>
<path d="M57.6773 61.5516C57.6773 61.7196 57.6773 61.8908 57.6928 62.0589C57.7738 66.0368 58.9161 70.3166 60.8116 74.3505C63.6472 80.392 68.1417 85.8919 73.2246 88.9765C73.3709 89.073 73.5234 89.1633 73.6666 89.2504C73.8595 89.3625 74.0463 89.4683 74.2393 89.5648C76.3029 90.676 78.2576 91.2736 80.0474 91.4012C80.8691 91.4666 81.6597 91.4323 82.4005 91.2954C83.2626 91.1428 84.075 90.8689 84.8096 90.4643C84.8656 90.4332 84.9154 90.4083 84.9715 90.3678C87.8724 88.7088 89.6683 85.1231 89.6683 80.0185V79.9376C89.6279 69.7563 82.4845 57.3994 73.6728 52.3165C69.2747 49.7705 65.2875 49.5308 62.3959 51.1805V51.1898C62.315 51.2303 62.2341 51.2769 62.1531 51.3267C61.4528 51.7625 60.8241 52.3103 60.2763 52.9702C59.7284 53.6145 59.2709 54.3553 58.8912 55.2019C58.1815 56.7738 57.7644 58.6818 57.6897 60.9042C57.6773 61.1158 57.6773 61.3337 57.6773 61.5516Z" fill="url(#paint3_linear)"/>
<path d="M52.999 64.2561C52.999 69.8369 55.1498 76.0901 58.5394 81.4282C61.3439 85.8418 64.9918 89.6454 68.9852 91.9549C73.2775 94.4263 77.1682 94.7345 80.0442 93.2124C80.0691 93.1968 80.1002 93.1875 80.1251 93.1719C80.2528 93.1004 80.3835 93.0257 80.5111 92.9478C81.2114 92.5121 81.8402 91.9643 82.3973 91.2982C82.9358 90.6539 83.4027 89.9037 83.7824 89.0602C84.5543 87.3359 84.9839 85.21 84.9839 82.7199C84.9839 80.8119 84.7349 78.8198 84.268 76.8247C82.2479 68.1344 76.1722 59.167 68.9883 55.0273C66.6352 53.6671 64.4066 52.9574 62.3928 52.8516C61.6613 52.8111 60.9517 52.8516 60.2731 52.973C59.4047 53.1193 58.5986 53.3994 57.8578 53.804C57.7364 53.8756 57.615 53.941 57.4967 54.0126C54.7078 55.7276 52.999 59.2729 52.999 64.2561Z" fill="url(#paint4_linear)"/>
<path d="M57.6866 60.907C59.6755 57.1377 63.9927 56.2195 68.9884 59.1017C74.1926 62.0992 78.6529 68.3803 80.5142 74.6958C81.1181 76.7189 81.448 78.7483 81.448 80.6813C81.448 86.4489 78.491 89.7357 74.2393 89.5646C72.6456 89.5085 70.8652 88.9514 68.9884 87.8744C65.1692 85.6769 61.7485 81.7053 59.467 77.2512C57.6306 73.6904 56.5256 69.8246 56.5256 66.298C56.5256 64.1286 56.9458 62.317 57.6866 60.907ZM59.6133 76.8403C61.8294 81.2695 65.2128 85.2412 68.9884 87.4231C70.4793 88.276 71.9048 88.7926 73.2246 88.9763C77.8001 89.6362 81.062 86.424 81.062 80.454C81.062 78.5211 80.7228 76.4824 80.1034 74.453C78.2576 68.4052 73.9747 62.426 68.9884 59.5531C63.8339 56.5743 59.4203 57.782 57.6959 62.0587C57.1979 63.3006 56.924 64.7978 56.924 66.5221C56.9209 69.8401 57.9294 73.4819 59.6133 76.8403Z" fill="white"/>
<path opacity="0.05" d="M58.5399 81.4314C61.3444 85.8451 64.9923 89.6486 68.9857 91.9582C73.278 94.4296 77.1687 94.7377 80.0447 93.2157V93.225L80.1256 93.1752C80.2533 93.1036 80.384 93.0289 80.5116 92.9511L84.8039 90.4704C84.8599 90.4392 84.9097 90.4143 84.9657 90.3739C87.8666 88.7149 89.6626 84.9113 89.6626 80.0245C89.6626 78.5025 89.093 74.7954 89.093 74.7954L84.2654 76.8279L83.1791 76.1992V76.2396L80.5116 74.702L80.1008 74.4592L75.4692 71.7855C74.7689 71.384 74.0748 71.0354 73.39 70.7553C72.2477 70.279 71.1427 69.974 70.0782 69.8371C66.1782 69.3048 62.9006 70.9576 60.8059 74.3565C60.3452 75.1067 59.9437 75.9346 59.6044 76.8466C59.5546 76.9835 59.5079 77.1205 59.4581 77.2575C59.041 78.5056 58.7267 79.9 58.5399 81.4314Z" fill="#00407A"/>
<path d="M160.665 62.353V63.9198L160.728 63.8832C160.828 63.827 160.931 63.7685 161.031 63.705L164.396 61.7599C164.44 61.7355 164.479 61.716 164.523 61.6843V60.1174L163.596 60.6544L160.665 62.353Z" fill="#3BB9FF"/>
<path d="M146.823 32.5248L142.984 34.7408V33.1716L146.823 30.958V32.5248Z" fill="#3BB9FF"/>
<path d="M143.125 39.085C143.125 39.2168 143.125 39.3511 143.137 39.4829C143.145 39.888 143.169 40.298 143.208 40.708C143.443 43.4682 144.289 46.3676 145.583 49.1205C147.806 53.8575 151.33 58.17 155.316 60.5885C155.43 60.6642 155.55 60.7349 155.662 60.8033C155.814 60.8911 155.96 60.9741 156.111 61.0498C157.729 61.921 159.262 62.3896 160.665 62.4897C161.31 62.5409 161.93 62.5141 162.51 62.4067C163.186 62.2871 163.823 62.0723 164.399 61.7551C164.443 61.7307 164.482 61.7112 164.526 61.6794C166.496 60.5495 167.816 58.2871 168.133 55.0973C168.185 54.6117 168.209 54.0943 168.209 53.5622V53.4988C168.177 45.5158 162.576 35.8269 155.667 31.8416C152.219 29.8452 149.092 29.6573 146.825 30.9508V30.9581C146.762 30.9898 146.698 31.0264 146.635 31.0655C146.086 31.4072 145.593 31.8367 145.163 32.3541C144.734 32.8593 144.375 33.4401 144.077 34.1039C143.521 35.3364 143.194 36.8324 143.135 38.575C143.125 38.7434 143.125 38.9142 143.125 39.085Z" fill="#3BB9FF"/>
<path d="M139.457 41.2084C139.457 45.5842 141.143 50.4872 143.801 54.6727C146 58.1334 148.86 61.1157 151.991 62.9266C155.357 64.8644 158.408 65.106 160.663 63.9126C160.682 63.9004 160.707 63.893 160.726 63.8808C160.826 63.8247 160.929 63.7661 161.029 63.7027C161.578 63.361 162.071 62.9315 162.508 62.4092C162.93 61.904 163.296 61.3159 163.594 60.6545C164.199 59.3024 164.536 57.6355 164.536 55.6831C164.536 54.7728 164.467 53.8454 164.328 52.9034C164.24 52.2908 164.121 51.6782 163.974 51.0583C162.388 44.2444 157.627 37.2132 151.994 33.9673C150.149 32.9008 148.401 32.3444 146.822 32.2614C146.249 32.2297 145.692 32.2614 145.16 32.3566C144.48 32.4713 143.847 32.6909 143.267 33.0082C143.171 33.0643 143.076 33.1156 142.981 33.1717C141.307 34.2016 140.126 36.0833 139.672 38.6653C139.525 39.4463 139.457 40.2981 139.457 41.2084Z" fill="url(#paint5_linear)"/>
<path d="M142.5 40.3027C142.651 39.6657 142.866 39.0849 143.132 38.5797C144.692 35.6242 148.077 34.9042 151.994 37.1642C156.074 39.5144 159.572 44.4394 161.031 49.3912C161.221 50.016 161.373 50.6408 161.492 51.268C161.668 52.2222 161.763 53.1691 161.763 54.0843C161.763 58.6066 159.445 61.1838 156.111 61.0496C154.861 61.0057 153.465 60.5688 151.994 59.7244C148.999 58.0014 146.317 54.8873 144.528 51.3949C143.088 48.6029 142.222 45.5718 142.222 42.8067C142.222 41.889 142.317 41.0495 142.5 40.3027ZM144.64 51.0727C146.378 54.5456 149.031 57.6597 151.991 59.3705C153.16 60.0392 154.278 60.4443 155.313 60.5883C158.9 61.1057 161.458 58.5871 161.458 53.9062C161.458 52.991 161.363 52.0441 161.173 51.0825C161.053 50.4577 160.894 49.8329 160.704 49.2008C159.257 44.4589 155.899 39.7707 151.989 37.5181C147.947 35.1825 144.487 36.1294 143.135 39.4827C143.008 39.7975 142.9 40.127 142.813 40.4857C142.629 41.2301 142.527 42.0648 142.527 42.9799C142.532 45.584 143.323 48.4394 144.64 51.0727Z" fill="white"/>
<path opacity="0.05" d="M139.457 41.2083C139.457 45.5842 141.143 50.4872 143.801 54.6727C146 58.1334 148.86 61.1157 151.991 62.9266C155.357 64.8643 158.407 65.106 160.662 63.9125V63.9199L160.726 63.8832C160.826 63.8271 160.928 63.7685 161.029 63.7051L164.394 61.76C164.438 61.7356 164.477 61.7161 164.521 61.6843C166.49 60.5544 168.682 57.9137 168.074 51.4268L164.323 52.9058L161.487 51.2706L161.172 51.0876L155.584 47.8612L152.704 46.1992L143.205 40.7104L142.815 40.4884L142.5 40.3053L139.671 38.6702C139.525 39.4463 139.457 40.298 139.457 41.2083Z" fill="#00407A"/>
<path d="M64.28 84.1728L132.126 123.343C136.326 125.769 143.163 125.769 147.363 123.343C149.398 122.169 150.451 120.641 150.509 119.095V118.799L146.356 116.404L76.9795 76.3475C71.003 72.8988 65.9916 75.4685 64.5893 82.0473C64.4474 82.717 64.3451 83.4217 64.28 84.1728Z" fill="url(#paint6_linear)"/>
<path opacity="0.2" d="M149.544 120.688C153.765 122.932 160.355 122.878 164.448 120.513C166.483 119.339 167.536 117.811 167.594 116.265V203.531L167.576 203.52C167.762 205.24 166.722 206.999 164.446 208.31C160.353 210.673 153.762 210.726 149.542 208.485V120.688H149.544Z" fill="#4D5FD1"/>
<path d="M76.7216 78.6588L81.3726 81.3424L149.219 120.513C153.419 122.939 160.256 122.939 164.456 120.513C166.49 119.339 167.544 117.811 167.604 116.264V115.969C167.544 114.427 166.49 112.899 164.458 111.72L90.6886 69.1312L88.691 70.287L162.458 112.871C162.837 113.088 163.167 113.323 163.451 113.576C165.509 115.357 165.179 117.788 162.458 119.364C159.358 121.153 154.258 120.969 151.161 119.181L81.6866 79.2169L78.7192 77.5007L76.7216 78.6588Z" fill="url(#paint7_linear)"/>
<path d="M62.8175 87.7096V141.18C62.8175 150.591 68.5406 161.526 75.6055 165.607L76.8938 166.353L76.7124 166.456L149.212 208.31C153.412 210.735 160.249 210.735 164.449 208.31C166.723 206.998 167.765 205.24 167.579 203.519L167.597 203.531V116.264C167.537 117.811 166.484 119.339 164.451 120.513C160.251 122.939 153.414 122.939 149.214 120.513L81.368 81.3424V81.3727L75.6078 78.0449C68.5406 73.9706 62.8175 78.296 62.8175 87.7096Z" fill="url(#paint8_linear)"/>
<path d="M62.8175 87.7096V141.18C62.8175 150.591 68.5406 161.526 75.6055 165.607L76.8938 166.353L76.7124 166.456L149.212 208.31C153.412 210.735 160.249 210.735 164.449 208.31C166.723 206.998 167.765 205.24 167.579 203.519L167.597 203.531V116.264C167.537 117.811 166.484 119.339 164.451 120.513C160.251 122.939 153.414 122.939 149.214 120.513L81.368 81.3424V81.3727L75.6078 78.0449C68.5406 73.9706 62.8175 78.296 62.8175 87.7096Z" fill="url(#paint9_linear)"/>
<rect width="40.2375" height="6.10055" rx="2" transform="matrix(0.866025 0.5 -2.20305e-08 1 93.5342 120.258)" fill="url(#paint10_linear)"/>
<rect width="19.575" height="6.10055" rx="2" transform="matrix(0.866025 0.5 -2.20305e-08 1 93.5342 129.676)" fill="url(#paint11_linear)"/>
<rect width="35.8875" height="6.10055" rx="2" transform="matrix(0.866025 0.5 -2.20305e-08 1 93.5342 139.094)" fill="url(#paint12_linear)"/>
<g opacity="0.5">
<path opacity="0.5" d="M155.531 127.441L155.555 126.838C154.152 126.785 152.752 126.578 151.392 126.222L151.239 126.804C152.641 127.171 154.085 127.385 155.531 127.441ZM159.857 127.02C161.152 126.727 162.585 126.297 163.992 125.773L163.782 125.208C162.399 125.722 160.994 126.145 159.724 126.431L159.857 127.02ZM147.19 125.241L147.471 124.708C147.295 124.615 147.122 124.52 146.953 124.422L143.767 122.583L143.467 123.104L146.653 124.943C146.827 125.045 147.008 125.143 147.19 125.241ZM139.76 120.964L140.06 120.443L136.353 118.302L136.053 118.822L139.76 120.964ZM132.344 116.681L132.644 116.16L128.937 114.02L128.637 114.541L132.344 116.681ZM124.93 112.402L125.23 111.881L121.523 109.739L121.223 110.26L124.93 112.402ZM117.514 108.121L117.814 107.6L114.107 105.46L113.807 105.981L117.514 108.121ZM110.098 103.839L110.398 103.318L106.691 101.179L106.391 101.7L110.098 103.839ZM102.682 99.5581L102.982 99.0371L99.2753 96.8954L98.9753 97.4163L102.682 99.5581ZM95.2685 95.2768L95.5685 94.7559L91.8617 92.6165L91.5617 93.1374L95.2685 95.2768Z" fill="white"/>
<path opacity="0.5" d="M87.8504 90.9933L88.1527 90.4747L85.876 89.1584V89.1654L84.4994 88.3748L84.1994 88.898L86.4784 90.2049V90.2026L87.8504 90.9933Z" fill="white"/>
<path opacity="0.5" d="M80.8504 163.428L81.1527 162.907L78.1621 161.174C77.9203 161.035 77.6807 160.884 77.4435 160.721L77.104 161.216C77.3552 161.388 77.6087 161.549 77.8621 161.693L80.8504 163.428ZM73.8716 158.24L74.3297 157.849C73.4507 156.819 72.6205 155.644 71.8624 154.361L71.3438 154.668C72.1205 155.982 72.9716 157.184 73.8716 158.24ZM69.3997 150.756L69.9578 150.526C69.4043 149.179 68.9532 147.812 68.6206 146.459L68.0369 146.603C68.3764 147.984 68.8346 149.382 69.3997 150.756ZM67.3602 142.277L67.9602 142.243C67.9392 141.884 67.9299 141.529 67.9299 141.177V137.931H67.3276V141.177C67.3276 141.54 67.3393 141.908 67.3602 142.277ZM67.3276 133.606H67.9299V129.278H67.3276V133.606ZM67.3276 124.95H67.9299V120.622H67.3276V124.95ZM67.3276 116.295H67.9299V111.967H67.3276V116.295ZM67.3276 107.639H67.9299V103.311H67.3276V107.639ZM67.3276 98.9836H67.9299V94.6559H67.3276V98.9836ZM67.3276 90.3281H67.9299V87.7073C67.9299 87.1375 67.9602 86.5748 68.0183 86.0352L67.4207 85.9701C67.3602 86.5306 67.33 87.1166 67.33 87.7073V90.3281H67.3276ZM80.4458 86.7445L80.7457 86.2236L76.9971 84.0655L76.6971 84.5865L80.4458 86.7445ZM72.9507 82.4214L73.246 81.8982C71.9647 81.1773 71.0601 81.0261 70.5275 81.0261C69.9182 81.0261 69.3718 81.2796 68.909 81.7773L69.3485 82.1866C69.6996 81.8098 70.0857 81.6284 70.5275 81.6284C70.988 81.6261 71.7833 81.7656 72.9507 82.4214Z" fill="white"/>
<path opacity="0.5" d="M88.081 167.807L88.3833 167.286L87.0136 166.495L87.1833 166.398L84.9044 165.081L84.6044 165.602L85.9741 166.393L85.802 166.491L88.081 167.807Z" fill="white"/>
<path opacity="0.5" d="M156.827 205.615C158.129 205.501 159.422 205.245 160.701 204.854L160.527 204.277C159.288 204.656 158.034 204.903 156.804 205.012L156.578 205.008L156.564 205.61L156.827 205.615ZM152.425 204.859L152.646 204.298C152.327 204.173 152.032 204.033 151.767 203.88L149.079 202.329L148.779 202.849L151.467 204.401C151.758 204.568 152.078 204.722 152.425 204.859ZM163.943 203.677C165.18 203.04 166.369 202.294 167.476 201.457L167.113 200.975C166.034 201.791 164.873 202.522 163.669 203.142L163.943 203.677ZM145.207 200.787L145.507 200.266L141.937 198.205L141.637 198.726L145.207 200.787ZM138.067 196.664L138.367 196.143L134.798 194.082L134.498 194.603L138.067 196.664ZM130.926 192.543L131.226 192.022L127.656 189.959L127.356 190.48L130.926 192.543ZM123.784 188.42L124.084 187.899L120.512 185.836L120.212 186.357L123.784 188.42ZM116.645 184.297L116.945 183.776L113.375 181.713L113.075 182.234L116.645 184.297ZM109.503 180.174L109.803 179.653L106.234 177.592L105.934 178.113L109.503 180.174ZM102.362 176.05L102.662 175.53L99.092 173.469L98.792 173.99L102.362 176.05ZM95.2224 171.93L95.5224 171.409L91.9528 169.348L91.6528 169.869L95.2224 171.93Z" fill="white"/>
</g>
<path opacity="0.2" d="M62.8171 126.192L78.3444 135.359C82.9187 137.999 86.6255 135.196 86.6255 129.099C86.6255 123.001 82.9187 115.918 78.3444 113.276L62.8171 104.109V126.192Z" fill="black"/>
<path d="M59.0148 125.408C59.0148 126.264 59.4683 127.057 60.2078 127.49L74.9142 136.278C79.4885 138.917 83.1953 136.115 83.1953 130.017C83.1953 123.92 79.4885 116.837 74.9142 114.195L59.0171 104.707V125.408H59.0148Z" fill="url(#paint13_linear)"/>
<path d="M59.0148 125.408C59.0148 126.264 59.4683 127.057 60.2078 127.49L74.9142 136.278C79.4885 138.917 83.1953 136.115 83.1953 130.017C83.1953 123.92 79.4885 116.837 74.9142 114.195L59.0171 104.707V125.408H59.0148Z" fill="url(#paint14_linear)"/>
<path d="M62.8174 100.916L59.5454 103.072C58.8175 103.551 58.9477 104.665 59.0175 104.709L62.8197 106.953V100.916H62.8174Z" fill="url(#paint15_linear)"/>
<path d="M62.8174 100.916L59.5454 103.072C58.8175 103.551 58.9477 104.665 59.0175 104.709L62.8197 106.953V100.916H62.8174Z" fill="url(#paint16_linear)"/>
<path d="M69.051 127.035C66.9006 123.31 66.9008 119.284 69.0515 118.042C71.2022 116.8 74.689 118.813 76.8394 122.538C78.9899 126.262 78.9896 130.288 76.8389 131.53C74.6882 132.772 71.2014 130.759 69.051 127.035Z" fill="url(#paint17_linear)"/>
<path opacity="0.2" d="M94.9295 44.4585V82.9501L157.804 119.249V80.7595L94.9295 44.4585Z" fill="#3BB9FF"/>
<path d="M97.9387 53.5675V77.3131C99.6061 78.2759 100.96 80.6176 100.96 82.5432L151.781 111.886C151.781 109.968 153.139 109.184 154.802 110.142V86.3965C153.141 85.4384 151.781 83.0827 151.781 81.1665L100.96 51.8257C100.96 53.7512 99.6061 54.5302 97.9387 53.5675Z" fill="#FF2C9C"/>
<path d="M119.643 85.8109C115.86 79.3798 115.804 72.3959 119.517 70.2119C123.23 68.0279 129.307 71.4709 133.089 77.9021C136.872 84.3332 136.928 91.3171 133.215 93.5011C129.502 95.6851 123.425 92.2421 119.643 85.8109Z" fill="white"/>
<path d="M108.112 73.1784L111.363 75.0551C112.135 75.5016 112.76 75.0272 112.76 73.9993C112.76 72.9691 112.135 71.7738 111.363 71.3296L108.112 69.4529C107.34 69.0064 106.714 69.4808 106.714 70.5087C106.714 71.5366 107.34 72.7319 108.112 73.1784Z" fill="white"/>
<path d="M141.374 92.3822L144.625 94.2589C145.397 94.7054 146.022 94.231 146.022 93.2031C146.022 92.1729 145.397 90.9776 144.625 90.5335L141.374 88.6568C140.602 88.2103 139.976 88.6847 139.976 89.7126C139.976 90.7404 140.602 91.9357 141.374 92.3822Z" fill="white"/>
<path opacity="0.1" d="M94.9295 63.1949V82.9501L157.804 119.249V99.5005L94.9295 63.1949Z" fill="black"/>
<mask id="mask0" mask-type="alpha" maskUnits="userSpaceOnUse" x="88" y="44" width="64" height="76">
<path d="M88.6269 83.2931L151.504 119.594V81.1025L88.6269 44.8015V83.2931Z" fill="white"/>
</mask>
<g mask="url(#mask0)">
<path d="M88.6268 92.6976L151.504 128.999V100.263L88.6268 63.96V92.6976Z" fill="#F2F2F2"/>
<path d="M91.6328 71.7915V95.5371C93.3002 96.4999 94.6536 98.8417 94.6536 100.767L145.475 130.11C145.475 128.192 146.833 127.408 148.496 128.366V104.621C146.835 103.662 145.475 101.307 145.475 99.3905L94.6536 70.0497C94.6536 71.9752 93.3002 72.7542 91.6328 71.7915Z" fill="#3BB9FF"/>
<path d="M113.336 104.036C109.554 97.6045 109.498 90.6206 113.211 88.4366C116.924 86.2526 123.001 89.6956 126.783 96.1268C130.566 102.558 130.622 109.542 126.909 111.726C123.196 113.91 117.119 110.467 113.336 104.036Z" fill="white"/>
<path opacity="0.1" d="M88.6267 108.024L151.503 144.325V115.59L88.6267 79.2865V108.024Z" fill="black"/>
</g>
<path d="M84.4654 168.16C84.4654 168.321 84.4654 168.484 84.4803 168.644C84.4892 169.138 84.5189 169.637 84.5664 170.136C84.8516 173.496 85.8825 177.025 87.4571 180.376C90.1636 186.143 94.4535 191.392 99.3049 194.336C99.4445 194.429 99.5901 194.515 99.7268 194.598C99.911 194.705 100.089 194.806 100.273 194.898C102.243 195.959 104.109 196.529 105.817 196.651C106.601 196.713 107.356 196.68 108.063 196.55C108.886 196.404 109.661 196.143 110.362 195.756C110.416 195.727 110.463 195.703 110.517 195.664C112.914 194.289 114.522 191.535 114.908 187.652C114.97 187.061 115 186.431 115 185.783V185.706C114.961 175.988 108.143 164.194 99.7327 159.343C95.5349 156.912 91.7292 156.684 88.9693 158.258V158.267C88.892 158.306 88.8148 158.35 88.7375 158.398C88.0691 158.814 87.469 159.337 86.9461 159.966C86.4232 160.581 85.9865 161.289 85.6241 162.097C84.9467 163.597 84.5486 165.418 84.4773 167.539C84.4654 167.744 84.4654 167.952 84.4654 168.16Z" fill="url(#paint18_linear)"/>
<path d="M79.9998 170.745C79.9998 176.072 82.0527 182.04 85.288 187.135C87.9647 191.348 91.4466 194.978 95.2582 197.183C99.355 199.542 103.069 199.836 105.814 198.383C105.837 198.368 105.867 198.359 105.891 198.344C106.013 198.276 106.138 198.205 106.259 198.127C106.928 197.712 107.528 197.189 108.06 196.553C108.574 195.938 109.019 195.222 109.382 194.417C110.118 192.771 110.528 190.742 110.528 188.365C110.528 187.257 110.445 186.128 110.276 184.981C110.169 184.236 110.023 183.49 109.845 182.735C107.914 174.441 102.118 165.882 95.2612 161.93C93.0152 160.632 90.8881 159.955 88.9659 159.854C88.2677 159.815 87.5904 159.854 86.9427 159.97C86.1139 160.109 85.3444 160.377 84.6373 160.763C84.5215 160.831 84.4056 160.894 84.2898 160.962C82.2517 162.216 80.8138 164.506 80.2613 167.649C80.083 168.6 79.9998 169.637 79.9998 170.745Z" fill="url(#paint19_linear)"/>
<path d="M83.7043 169.642C83.8885 168.867 84.1499 168.16 84.4737 167.545C86.3721 163.947 90.4927 163.071 95.2609 165.822C100.228 168.683 104.485 174.678 106.262 180.706C106.494 181.466 106.678 182.227 106.824 182.991C107.037 184.152 107.153 185.305 107.153 186.419C107.153 191.924 104.331 195.061 100.273 194.898C98.7517 194.844 97.0524 194.313 95.2609 193.285C91.6157 191.187 88.3507 187.396 86.1731 183.145C84.4203 179.746 83.3656 176.057 83.3656 172.691C83.3656 171.574 83.4815 170.552 83.7043 169.642ZM86.3097 182.753C88.425 186.98 91.6543 190.771 95.258 192.854C96.681 193.668 98.0417 194.161 99.3013 194.336C103.668 194.966 106.782 191.9 106.782 186.202C106.782 185.088 106.666 183.935 106.434 182.765C106.289 182.004 106.096 181.244 105.864 180.474C104.102 174.702 100.014 168.995 95.255 166.253C90.3353 163.41 86.1226 164.562 84.4767 168.644C84.3222 169.027 84.1915 169.429 84.0846 169.865C83.8617 170.771 83.737 171.787 83.737 172.901C83.7429 176.071 84.7055 179.547 86.3097 182.753Z" fill="white"/>
<defs>
<linearGradient id="paint0_linear" x1="150.591" y1="147.502" x2="-56.2216" y2="28.0568" gradientUnits="userSpaceOnUse">
<stop stop-color="#45D7DE"/>
<stop offset="1" stop-color="#4D5FD1"/>
</linearGradient>
<linearGradient id="paint1_linear" x1="79.5675" y1="91.4292" x2="87.124" y2="90.8938" gradientUnits="userSpaceOnUse">
<stop stop-color="#87D4FE"/>
<stop offset="1" stop-color="#1BADFF"/>
</linearGradient>
<linearGradient id="paint2_linear" x1="57.0167" y1="54.2231" x2="64.5398" y2="53.69" gradientUnits="userSpaceOnUse">
<stop stop-color="#87D4FE"/>
<stop offset="1" stop-color="#1BADFF"/>
</linearGradient>
<linearGradient id="paint3_linear" x1="54.5571" y1="76.1404" x2="103.785" y2="73.4778" gradientUnits="userSpaceOnUse">
<stop stop-color="#87D4FE"/>
<stop offset="1" stop-color="#1BADFF"/>
</linearGradient>
<linearGradient id="paint4_linear" x1="49.8795" y1="78.8455" x2="99.0977" y2="76.184" gradientUnits="userSpaceOnUse">
<stop stop-color="#87D4FE"/>
<stop offset="1" stop-color="#1BADFF"/>
</linearGradient>
<linearGradient id="paint5_linear" x1="137.011" y1="52.6459" x2="175.602" y2="50.5594" gradientUnits="userSpaceOnUse">
<stop stop-color="#87D4FE"/>
<stop offset="1" stop-color="#1BADFF"/>
</linearGradient>
<linearGradient id="paint6_linear" x1="55.87" y1="106.52" x2="187.071" y2="90.829" gradientUnits="userSpaceOnUse">
<stop stop-color="#87D4FE"/>
<stop offset="1" stop-color="#1BADFF"/>
</linearGradient>
<linearGradient id="paint7_linear" x1="67.8578" y1="102.633" x2="206.149" y2="86.1365" gradientUnits="userSpaceOnUse">
<stop stop-color="#87D4FE"/>
<stop offset="1" stop-color="#1BADFF"/>
</linearGradient>
<linearGradient id="paint8_linear" x1="191.22" y1="106.772" x2="33.7489" y2="146.698" gradientUnits="userSpaceOnUse">
<stop offset="0.53125" stop-color="#E6F6FF"/>
<stop offset="1" stop-color="#A0D3EF"/>
</linearGradient>
<linearGradient id="paint9_linear" x1="57.576" y1="165.961" x2="163.931" y2="181.708" gradientUnits="userSpaceOnUse">
<stop stop-color="#4F4F4F"/>
<stop offset="1" stop-color="#828282"/>
</linearGradient>
<linearGradient id="paint10_linear" x1="44.1619" y1="3.84163" x2="-7.06921" y2="-19.7538" gradientUnits="userSpaceOnUse">
<stop stop-color="#87D4FE"/>
<stop offset="1" stop-color="#1BADFF"/>
</linearGradient>
<linearGradient id="paint11_linear" x1="21.4842" y1="3.84163" x2="-7.28173" y2="-2.60365" gradientUnits="userSpaceOnUse">
<stop stop-color="#87D4FE"/>
<stop offset="1" stop-color="#1BADFF"/>
</linearGradient>
<linearGradient id="paint12_linear" x1="39.3877" y1="3.84163" x2="-8.00114" y2="-15.6246" gradientUnits="userSpaceOnUse">
<stop stop-color="#87D4FE"/>
<stop offset="1" stop-color="#1BADFF"/>
</linearGradient>
<linearGradient id="paint13_linear" x1="88.6461" y1="112.082" x2="52.0783" y2="120.861" gradientUnits="userSpaceOnUse">
<stop offset="0.53125" stop-color="#E6F6FF"/>
<stop offset="1" stop-color="#A0D3EF"/>
</linearGradient>
<linearGradient id="paint14_linear" x1="57.8052" y1="126.507" x2="82.4031" y2="129.955" gradientUnits="userSpaceOnUse">
<stop stop-color="#4F4F4F"/>
<stop offset="1" stop-color="#828282"/>
</linearGradient>
<linearGradient id="paint15_linear" x1="63.6894" y1="102.283" x2="57.771" y2="103.506" gradientUnits="userSpaceOnUse">
<stop offset="0.53125" stop-color="#E6F6FF"/>
<stop offset="1" stop-color="#A0D3EF"/>
</linearGradient>
<linearGradient id="paint16_linear" x1="58.7684" y1="104.958" x2="62.713" y2="105.434" gradientUnits="userSpaceOnUse">
<stop stop-color="#4F4F4F"/>
<stop offset="1" stop-color="#828282"/>
</linearGradient>
<linearGradient id="paint17_linear" x1="57.4898" y1="112.055" x2="89.0109" y2="123.419" gradientUnits="userSpaceOnUse">
<stop stop-color="#FF2C9C"/>
<stop offset="1" stop-color="white" stop-opacity="0.8"/>
</linearGradient>
<linearGradient id="paint18_linear" x1="81.4874" y1="182.084" x2="128.474" y2="179.542" gradientUnits="userSpaceOnUse">
<stop stop-color="#87D4FE"/>
<stop offset="1" stop-color="#1BADFF"/>
</linearGradient>
<linearGradient id="paint19_linear" x1="77.0223" y1="184.668" x2="124" y2="182.128" gradientUnits="userSpaceOnUse">
<stop stop-color="#87D4FE"/>
<stop offset="1" stop-color="#1BADFF"/>
</linearGradient>
<clipPath id="clip0">
<rect width="72" height="69.8515" fill="white" transform="matrix(-1 0 0 1 96 86.1292)"/>
</clipPath>
</defs>
</svg>
