<svg width="173" height="240" viewBox="0 0 173 240" fill="none" xmlns="http://www.w3.org/2000/svg">
<path d="M39.1037 86C19.6701 86 19 124.532 19 153.431H103.603C103.603 150.499 105.885 117.407 88.944 113.643C77.6357 111.13 71.7721 122.019 64.6521 121.6C52.5271 120.887 56.2759 86 39.1037 86Z" stroke="#0D477C"/>
<path d="M39.1025 86.8398L39.1025 153.014" stroke="#0D477C" stroke-linecap="round" stroke-dasharray="4 6"/>
<path d="M64.2344 122.021L64.2344 153.014" stroke="#0D477C" stroke-linecap="round" stroke-dasharray="4 6"/>
<path d="M88.5264 113.642L88.5264 153.011" stroke="#0D477C" stroke-linecap="round" stroke-dasharray="4 6"/>
<rect x="1.44116" y="0.5" width="118.529" height="239" rx="11.5" stroke="#0D477C"/>
<path d="M37.6472 0H84.706V5.41176C84.706 7.6209 82.9152 9.41177 80.706 9.41177H41.6472C39.4381 9.41177 37.6472 7.6209 37.6472 5.41177V0Z" fill="#0D477C"/>
<rect y="59.2943" width="1.88235" height="16.9412" rx="0.941176" fill="#0D477C"/>
<rect y="40.4707" width="1.88235" height="16.9412" rx="0.941176" fill="#0D477C"/>
<rect x="119.529" y="40.4707" width="1.88235" height="14.1176" rx="0.941176" fill="#0D477C"/>
<rect x="72.4707" y="3.7644" width="1.88235" height="1.88235" rx="0.941176" fill="#0D477C"/>
<rect x="48" y="3.76453" width="22.5882" height="1.88235" rx="0.941176" fill="#0D477C"/>
<path d="M45.856 72.7868L63.5614 83.1523L67.2669 91.1973L68.6404 90.6664V74.8574L45.856 61.5592L44.4263 62.1599L45.856 72.7868Z" fill="url(#paint0_linear)"/>
<path d="M44.4247 73.2915L62.1301 83.6581L67.2102 91.1711V75.3621L44.4247 62.0638V73.2915Z" fill="#FF2C9C"/>
<path d="M172.385 228.188C172.391 228.098 172.394 228.019 172.392 227.928C172.337 224.725 170.961 161.346 147.821 147.986C128.184 136.649 125.416 159.489 105.916 148.23C87.0707 137.35 89.4453 105.2 68.8625 94.4946C48.4742 83.8903 45.1561 151.769 44.9435 154.78C44.9382 154.854 44.9364 154.918 44.9364 154.993V158.031C44.9363 158.586 45.0823 159.13 45.3595 159.611C45.6367 160.091 46.0354 160.489 46.5156 160.767L167.655 230.706C168.119 230.974 168.644 231.12 169.18 231.129C169.716 231.138 170.245 231.011 170.718 230.759C171.191 230.507 171.593 230.139 171.884 229.689C172.176 229.239 172.348 228.723 172.385 228.188Z" fill="url(#paint1_linear)"/>
<g style="mix-blend-mode:color-dodge">
<path d="M104.825 148.698C85.9794 137.818 88.3539 105.668 67.7712 94.9625C66.8092 94.394 65.7378 94.0352 64.6274 93.9096C63.517 93.7841 62.3926 93.8947 61.3279 94.2341C62.501 93.6285 63.8099 93.3344 65.1293 93.3801C66.4487 93.4258 67.7342 93.8096 68.8626 94.4948C89.4453 105.2 87.0708 137.35 105.916 148.231C113.225 152.45 118.183 151.88 122.56 150.114C117.908 152.218 112.747 153.272 104.825 148.698Z" fill="url(#paint2_linear)"/>
</g>
<path d="M171.293 228.656C171.3 228.566 171.302 228.487 171.301 228.397C171.246 225.193 169.87 161.814 146.729 148.454C139.336 144.185 134.334 144.763 129.93 146.54C134.607 144.425 139.81 143.361 147.82 147.986C170.961 161.346 172.337 224.725 172.392 227.929C172.394 228.019 172.391 228.098 172.385 228.188C172.338 228.875 172.067 229.527 171.614 230.044C171.161 230.561 170.55 230.916 169.876 231.053C170.283 230.791 170.623 230.438 170.869 230.022C171.115 229.606 171.26 229.138 171.293 228.656Z" fill="url(#paint3_linear)"/>
<g style="mix-blend-mode:color-dodge">
<g style="mix-blend-mode:color-dodge">
<path d="M67.667 171.572C67.7423 171.572 67.8169 171.557 67.8864 171.528C67.956 171.499 68.0192 171.457 68.0725 171.404C68.1257 171.351 68.1679 171.287 68.1967 171.218C68.2255 171.148 68.2403 171.074 68.2402 170.998V168.705C68.2402 168.553 68.1799 168.408 68.0724 168.3C67.9649 168.193 67.819 168.132 67.667 168.132C67.515 168.132 67.3692 168.193 67.2616 168.3C67.1541 168.408 67.0937 168.553 67.0937 168.705V170.998C67.0937 171.074 67.1085 171.148 67.1373 171.218C67.1661 171.287 67.2083 171.351 67.2615 171.404C67.3148 171.457 67.378 171.499 67.4476 171.528C67.5171 171.557 67.5917 171.572 67.667 171.572ZM67.667 165.839C67.7423 165.839 67.8169 165.824 67.8864 165.796C67.956 165.767 68.0192 165.725 68.0725 165.671C68.1257 165.618 68.1679 165.555 68.1967 165.485C68.2255 165.416 68.2403 165.341 68.2402 165.266V162.973C68.2402 162.821 68.1799 162.675 68.0724 162.568C67.9649 162.46 67.819 162.4 67.667 162.4C67.515 162.4 67.3692 162.46 67.2616 162.568C67.1541 162.675 67.0937 162.821 67.0937 162.973V165.266C67.0937 165.341 67.1085 165.416 67.1373 165.485C67.1661 165.555 67.2083 165.618 67.2615 165.671C67.3148 165.725 67.378 165.767 67.4476 165.796C67.5171 165.824 67.5917 165.839 67.667 165.839ZM67.667 160.107C67.7423 160.107 67.8169 160.092 67.8864 160.063C67.956 160.034 68.0192 159.992 68.0725 159.939C68.1257 159.886 68.1679 159.822 68.1967 159.753C68.2255 159.683 68.2403 159.609 68.2402 159.533V157.24C68.2402 157.088 68.1799 156.943 68.0724 156.835C67.9649 156.728 67.819 156.667 67.667 156.667C67.515 156.667 67.3692 156.728 67.2616 156.835C67.1541 156.943 67.0937 157.088 67.0937 157.24V159.533C67.0937 159.609 67.1085 159.683 67.1373 159.753C67.1661 159.822 67.2083 159.886 67.2615 159.939C67.3148 159.992 67.378 160.034 67.4476 160.063C67.5171 160.092 67.5917 160.107 67.667 160.107ZM67.667 154.374C67.7423 154.374 67.8169 154.359 67.8864 154.331C67.956 154.302 68.0192 154.26 68.0725 154.206C68.1257 154.153 68.1679 154.09 68.1967 154.02C68.2255 153.951 68.2403 153.876 68.2402 153.801V151.508C68.2402 151.356 68.1799 151.21 68.0724 151.103C67.9649 150.995 67.819 150.935 67.667 150.935C67.515 150.935 67.3692 150.995 67.2616 151.103C67.1541 151.21 67.0937 151.356 67.0937 151.508V153.801C67.0937 153.876 67.1085 153.951 67.1373 154.02C67.1661 154.09 67.2083 154.153 67.2615 154.206C67.3148 154.26 67.378 154.302 67.4476 154.331C67.5171 154.359 67.5917 154.374 67.667 154.374ZM67.667 148.642C67.7423 148.642 67.8169 148.627 67.8864 148.598C67.956 148.569 68.0192 148.527 68.0725 148.474C68.1257 148.421 68.1679 148.357 68.1967 148.288C68.2255 148.218 68.2403 148.144 68.2402 148.068V145.775C68.2402 145.623 68.1799 145.478 68.0724 145.37C67.9649 145.263 67.819 145.202 67.667 145.202C67.515 145.202 67.3692 145.263 67.2616 145.37C67.1541 145.478 67.0937 145.623 67.0937 145.775V148.068C67.0937 148.144 67.1085 148.218 67.1373 148.288C67.1661 148.357 67.2083 148.421 67.2615 148.474C67.3148 148.527 67.378 148.569 67.4476 148.598C67.5171 148.627 67.5917 148.642 67.667 148.642ZM67.667 142.909C67.7423 142.909 67.8169 142.895 67.8864 142.866C67.956 142.837 68.0192 142.795 68.0725 142.741C68.1257 142.688 68.1679 142.625 68.1967 142.555C68.2255 142.486 68.2403 142.411 68.2402 142.336V140.043C68.2402 139.891 68.1799 139.745 68.0724 139.638C67.9649 139.53 67.819 139.47 67.667 139.47C67.515 139.47 67.3692 139.53 67.2616 139.638C67.1541 139.745 67.0937 139.891 67.0937 140.043V142.336C67.0937 142.411 67.1085 142.486 67.1373 142.555C67.1661 142.625 67.2083 142.688 67.2615 142.741C67.3148 142.795 67.378 142.837 67.4476 142.866C67.5171 142.895 67.5917 142.909 67.667 142.909ZM67.667 137.177C67.7423 137.177 67.8169 137.162 67.8864 137.133C67.956 137.104 68.0192 137.062 68.0725 137.009C68.1257 136.956 68.1679 136.893 68.1967 136.823C68.2255 136.753 68.2403 136.679 68.2402 136.604V134.311C68.2402 134.158 68.1799 134.013 68.0724 133.905C67.9649 133.798 67.819 133.737 67.667 133.737C67.515 133.737 67.3692 133.798 67.2616 133.905C67.1541 134.013 67.0937 134.158 67.0937 134.311V136.604C67.0937 136.679 67.1085 136.753 67.1373 136.823C67.1661 136.893 67.2083 136.956 67.2615 137.009C67.3148 137.062 67.378 137.104 67.4476 137.133C67.5171 137.162 67.5917 137.177 67.667 137.177ZM67.667 131.444C67.7423 131.444 67.8169 131.43 67.8864 131.401C67.956 131.372 68.0192 131.33 68.0725 131.277C68.1257 131.223 68.1679 131.16 68.1967 131.09C68.2255 131.021 68.2403 130.946 68.2402 130.871V128.578C68.2402 128.426 68.1799 128.28 68.0724 128.173C67.9649 128.065 67.819 128.005 67.667 128.005C67.515 128.005 67.3692 128.065 67.2616 128.173C67.1541 128.28 67.0937 128.426 67.0937 128.578V130.871C67.0937 130.946 67.1085 131.021 67.1373 131.09C67.1661 131.16 67.2083 131.223 67.2615 131.277C67.3148 131.33 67.378 131.372 67.4476 131.401C67.5171 131.43 67.5917 131.444 67.667 131.444ZM67.667 125.712C67.7423 125.712 67.8169 125.697 67.8864 125.668C67.956 125.639 68.0192 125.597 68.0725 125.544C68.1257 125.491 68.1679 125.428 68.1967 125.358C68.2255 125.288 68.2403 125.214 68.2402 125.139V122.846C68.2402 122.694 68.1799 122.548 68.0724 122.44C67.9649 122.333 67.819 122.272 67.667 122.272C67.515 122.272 67.3692 122.333 67.2616 122.44C67.1541 122.548 67.0937 122.694 67.0937 122.846V125.139C67.0937 125.214 67.1085 125.288 67.1373 125.358C67.1661 125.428 67.2083 125.491 67.2615 125.544C67.3148 125.597 67.378 125.639 67.4476 125.668C67.5171 125.697 67.5917 125.712 67.667 125.712ZM67.667 119.979C67.7423 119.979 67.8169 119.965 67.8864 119.936C67.956 119.907 68.0192 119.865 68.0725 119.812C68.1257 119.758 68.1679 119.695 68.1967 119.625C68.2255 119.556 68.2403 119.481 68.2402 119.406V117.113C68.2402 116.961 68.1799 116.815 68.0724 116.708C67.9649 116.6 67.819 116.54 67.667 116.54C67.515 116.54 67.3692 116.6 67.2616 116.708C67.1541 116.815 67.0937 116.961 67.0937 117.113V119.406C67.0937 119.481 67.1085 119.556 67.1373 119.625C67.1661 119.695 67.2083 119.758 67.2615 119.812C67.3148 119.865 67.378 119.907 67.4476 119.936C67.5171 119.965 67.5917 119.979 67.667 119.979ZM67.667 114.247C67.7423 114.247 67.8169 114.232 67.8864 114.203C67.956 114.174 68.0192 114.132 68.0725 114.079C68.1257 114.026 68.1679 113.963 68.1967 113.893C68.2255 113.823 68.2403 113.749 68.2402 113.674V111.381C68.2402 111.229 68.1799 111.083 68.0724 110.975C67.9649 110.868 67.819 110.807 67.667 110.807C67.515 110.807 67.3692 110.868 67.2616 110.975C67.1541 111.083 67.0937 111.229 67.0937 111.381V113.674C67.0937 113.749 67.1085 113.823 67.1373 113.893C67.1661 113.963 67.2083 114.026 67.2615 114.079C67.3148 114.132 67.378 114.174 67.4476 114.203C67.5171 114.232 67.5917 114.247 67.667 114.247ZM67.667 108.514C67.7423 108.514 67.8169 108.5 67.8864 108.471C67.956 108.442 68.0192 108.4 68.0725 108.347C68.1257 108.293 68.1679 108.23 68.1967 108.161C68.2255 108.091 68.2403 108.016 68.2402 107.941V105.648C68.2402 105.496 68.1799 105.35 68.0724 105.243C67.9649 105.135 67.819 105.075 67.667 105.075C67.515 105.075 67.3692 105.135 67.2616 105.243C67.1541 105.35 67.0937 105.496 67.0937 105.648V107.941C67.0937 108.016 67.1085 108.091 67.1373 108.161C67.1661 108.23 67.2083 108.293 67.2615 108.347C67.3148 108.4 67.378 108.442 67.4476 108.471C67.5171 108.5 67.5917 108.514 67.667 108.514ZM67.667 102.782C67.7423 102.782 67.8169 102.767 67.8864 102.738C67.956 102.71 68.0192 102.667 68.0725 102.614C68.1257 102.561 68.1679 102.498 68.1967 102.428C68.2255 102.358 68.2403 102.284 68.2402 102.209V99.9156C68.2402 99.7636 68.1799 99.6178 68.0724 99.5103C67.9649 99.4028 67.819 99.3423 67.667 99.3423C67.515 99.3423 67.3692 99.4028 67.2616 99.5103C67.1541 99.6178 67.0937 99.7636 67.0937 99.9156V102.209C67.0937 102.284 67.1085 102.358 67.1373 102.428C67.1661 102.498 67.2083 102.561 67.2615 102.614C67.3148 102.667 67.378 102.71 67.4476 102.738C67.5171 102.767 67.5917 102.782 67.667 102.782ZM67.667 97.0494C67.7423 97.0494 67.8169 97.0346 67.8864 97.0058C67.956 96.977 68.0192 96.9348 68.0725 96.8816C68.1257 96.8283 68.1679 96.7651 68.1967 96.6955C68.2255 96.626 68.2403 96.5514 68.2402 96.4761V94.1831C68.2402 94.0311 68.1799 93.8853 68.0724 93.7778C67.9649 93.6703 67.819 93.6099 67.667 93.6099C67.515 93.6099 67.3692 93.6703 67.2616 93.7778C67.1541 93.8853 67.0937 94.0311 67.0937 94.1831V96.4761C67.0937 96.5514 67.1085 96.626 67.1373 96.6955C67.1661 96.7651 67.2083 96.8283 67.2615 96.8816C67.3148 96.9348 67.378 96.977 67.4476 97.0058C67.5171 97.0346 67.5917 97.0494 67.667 97.0494Z" fill="#25054D"/>
</g>
</g>
<g style="mix-blend-mode:color-dodge">
<g style="mix-blend-mode:color-dodge">
<path d="M142.917 216.987C142.993 216.987 143.067 216.972 143.137 216.943C143.206 216.915 143.27 216.872 143.323 216.819C143.376 216.766 143.418 216.703 143.447 216.633C143.476 216.563 143.491 216.489 143.491 216.414V214.526C143.491 214.374 143.43 214.228 143.323 214.121C143.215 214.013 143.07 213.953 142.917 213.953C142.765 213.953 142.62 214.013 142.512 214.121C142.405 214.228 142.344 214.374 142.344 214.526V216.414C142.344 216.489 142.359 216.564 142.388 216.633C142.417 216.703 142.459 216.766 142.512 216.819C142.565 216.872 142.628 216.915 142.698 216.943C142.768 216.972 142.842 216.987 142.917 216.987ZM142.917 211.66C142.993 211.66 143.067 211.645 143.137 211.616C143.206 211.587 143.27 211.545 143.323 211.492C143.376 211.439 143.418 211.375 143.447 211.306C143.476 211.236 143.491 211.162 143.491 211.086V208.793C143.491 208.641 143.43 208.496 143.323 208.388C143.215 208.281 143.07 208.22 142.917 208.22C142.765 208.22 142.62 208.281 142.512 208.388C142.405 208.496 142.344 208.641 142.344 208.793V211.086C142.344 211.162 142.359 211.236 142.388 211.306C142.417 211.375 142.459 211.439 142.512 211.492C142.565 211.545 142.628 211.587 142.698 211.616C142.768 211.645 142.842 211.66 142.917 211.66ZM142.917 205.927C142.993 205.927 143.067 205.912 143.137 205.884C143.206 205.855 143.27 205.813 143.323 205.759C143.376 205.706 143.418 205.643 143.447 205.573C143.476 205.504 143.491 205.429 143.491 205.354V203.061C143.491 202.909 143.43 202.763 143.323 202.656C143.215 202.548 143.07 202.488 142.917 202.488C142.765 202.488 142.62 202.548 142.512 202.656C142.405 202.763 142.344 202.909 142.344 203.061V205.354C142.344 205.429 142.359 205.504 142.388 205.573C142.417 205.643 142.459 205.706 142.512 205.759C142.565 205.813 142.628 205.855 142.698 205.884C142.768 205.912 142.842 205.927 142.917 205.927ZM142.917 200.195C142.993 200.195 143.067 200.18 143.137 200.151C143.206 200.122 143.27 200.08 143.323 200.027C143.376 199.974 143.418 199.91 143.447 199.841C143.476 199.771 143.491 199.697 143.491 199.621V197.328C143.491 197.176 143.43 197.031 143.323 196.923C143.215 196.816 143.07 196.755 142.917 196.755C142.765 196.755 142.62 196.816 142.512 196.923C142.405 197.031 142.344 197.176 142.344 197.328V199.621C142.344 199.697 142.359 199.771 142.388 199.841C142.417 199.91 142.459 199.974 142.512 200.027C142.565 200.08 142.628 200.122 142.698 200.151C142.768 200.18 142.842 200.195 142.917 200.195ZM142.917 194.462C142.993 194.462 143.067 194.447 143.137 194.419C143.206 194.39 143.27 194.348 143.323 194.294C143.376 194.241 143.418 194.178 143.447 194.108C143.476 194.039 143.491 193.964 143.491 193.889V191.596C143.491 191.444 143.43 191.298 143.323 191.191C143.215 191.083 143.07 191.023 142.917 191.023C142.765 191.023 142.62 191.083 142.512 191.191C142.405 191.298 142.344 191.444 142.344 191.596V193.889C142.344 193.964 142.359 194.039 142.388 194.108C142.417 194.178 142.459 194.241 142.512 194.294C142.565 194.348 142.628 194.39 142.698 194.419C142.768 194.447 142.842 194.462 142.917 194.462ZM142.917 188.73C142.993 188.73 143.067 188.715 143.137 188.686C143.206 188.657 143.27 188.615 143.323 188.562C143.376 188.509 143.418 188.446 143.447 188.376C143.476 188.306 143.491 188.232 143.491 188.156V185.863C143.491 185.711 143.43 185.566 143.323 185.458C143.215 185.351 143.07 185.29 142.917 185.29C142.765 185.29 142.62 185.351 142.512 185.458C142.405 185.566 142.344 185.711 142.344 185.863V188.156C142.344 188.232 142.359 188.306 142.388 188.376C142.417 188.446 142.459 188.509 142.512 188.562C142.565 188.615 142.628 188.657 142.698 188.686C142.768 188.715 142.842 188.73 142.917 188.73ZM142.917 182.997C142.993 182.997 143.067 182.983 143.137 182.954C143.206 182.925 143.27 182.883 143.323 182.829C143.376 182.776 143.418 182.713 143.447 182.643C143.476 182.574 143.491 182.499 143.491 182.424V180.131C143.491 179.979 143.43 179.833 143.323 179.726C143.215 179.618 143.07 179.558 142.917 179.558C142.765 179.558 142.62 179.618 142.512 179.726C142.405 179.833 142.344 179.979 142.344 180.131V182.424C142.344 182.499 142.359 182.574 142.388 182.643C142.417 182.713 142.459 182.776 142.512 182.829C142.565 182.883 142.628 182.925 142.698 182.954C142.768 182.983 142.842 182.997 142.917 182.997ZM142.917 177.265C142.993 177.265 143.067 177.25 143.137 177.221C143.206 177.192 143.27 177.15 143.323 177.097C143.376 177.044 143.418 176.981 143.447 176.911C143.476 176.841 143.491 176.767 143.491 176.692V174.399C143.491 174.246 143.43 174.101 143.323 173.993C143.215 173.886 143.07 173.825 142.917 173.825C142.765 173.825 142.62 173.886 142.512 173.993C142.405 174.101 142.344 174.246 142.344 174.399V176.692C142.344 176.767 142.359 176.841 142.388 176.911C142.417 176.981 142.459 177.044 142.512 177.097C142.565 177.15 142.628 177.192 142.698 177.221C142.768 177.25 142.842 177.265 142.917 177.265ZM142.917 171.532C142.993 171.532 143.067 171.518 143.137 171.489C143.206 171.46 143.27 171.418 143.323 171.364C143.376 171.311 143.418 171.248 143.447 171.178C143.476 171.109 143.491 171.034 143.491 170.959V168.666C143.491 168.514 143.43 168.368 143.323 168.261C143.215 168.153 143.07 168.093 142.917 168.093C142.765 168.093 142.62 168.153 142.512 168.261C142.405 168.368 142.344 168.514 142.344 168.666V170.959C142.344 171.034 142.359 171.109 142.388 171.178C142.417 171.248 142.459 171.311 142.512 171.365C142.565 171.418 142.628 171.46 142.698 171.489C142.768 171.518 142.842 171.532 142.917 171.532ZM142.917 165.8C142.993 165.8 143.067 165.785 143.137 165.756C143.206 165.727 143.27 165.685 143.323 165.632C143.376 165.579 143.418 165.516 143.447 165.446C143.476 165.376 143.491 165.302 143.491 165.227V162.934C143.491 162.782 143.43 162.636 143.323 162.528C143.215 162.421 143.07 162.36 142.917 162.36C142.765 162.36 142.62 162.421 142.512 162.528C142.405 162.636 142.344 162.782 142.344 162.934V165.227C142.344 165.302 142.359 165.376 142.388 165.446C142.417 165.516 142.459 165.579 142.512 165.632C142.565 165.685 142.628 165.727 142.698 165.756C142.768 165.785 142.842 165.8 142.917 165.8ZM142.917 160.067C142.993 160.067 143.067 160.053 143.137 160.024C143.206 159.995 143.27 159.953 143.323 159.9C143.376 159.846 143.418 159.783 143.447 159.714C143.476 159.644 143.491 159.569 143.491 159.494V157.201C143.491 157.049 143.43 156.903 143.323 156.796C143.215 156.688 143.07 156.628 142.917 156.628C142.765 156.628 142.62 156.688 142.512 156.796C142.405 156.903 142.344 157.049 142.344 157.201V159.494C142.344 159.569 142.359 159.644 142.388 159.714C142.417 159.783 142.459 159.846 142.512 159.9C142.565 159.953 142.628 159.995 142.698 160.024C142.768 160.053 142.842 160.067 142.917 160.067ZM142.917 154.335C142.993 154.335 143.067 154.32 143.137 154.291C143.206 154.263 143.27 154.22 143.323 154.167C143.376 154.114 143.418 154.051 143.447 153.981C143.476 153.911 143.491 153.837 143.491 153.762V151.469C143.491 151.317 143.43 151.171 143.323 151.063C143.215 150.956 143.07 150.895 142.917 150.895C142.765 150.895 142.62 150.956 142.512 151.063C142.405 151.171 142.344 151.317 142.344 151.469V153.762C142.344 153.837 142.359 153.911 142.388 153.981C142.417 154.051 142.459 154.114 142.512 154.167C142.565 154.22 142.628 154.263 142.698 154.291C142.768 154.32 142.842 154.335 142.917 154.335ZM142.917 148.602C142.993 148.602 143.067 148.588 143.137 148.559C143.206 148.53 143.27 148.488 143.323 148.435C143.376 148.381 143.418 148.318 143.447 148.249C143.476 148.179 143.491 148.104 143.491 148.029V145.736C143.491 145.584 143.43 145.438 143.323 145.331C143.215 145.223 143.07 145.163 142.917 145.163C142.765 145.163 142.62 145.223 142.512 145.331C142.405 145.438 142.344 145.584 142.344 145.736V148.029C142.344 148.104 142.359 148.179 142.388 148.249C142.417 148.318 142.459 148.381 142.512 148.435C142.565 148.488 142.628 148.53 142.698 148.559C142.768 148.588 142.842 148.602 142.917 148.602Z" fill="#25054D"/>
</g>
</g>
<g style="mix-blend-mode:color-dodge">
<g style="mix-blend-mode:color-dodge">
<path d="M104.616 195.108C104.691 195.108 104.766 195.093 104.836 195.065C104.905 195.036 104.968 194.994 105.022 194.94C105.075 194.887 105.117 194.824 105.146 194.754C105.175 194.685 105.19 194.61 105.189 194.535V193.831C105.189 193.679 105.129 193.533 105.022 193.425C104.914 193.318 104.768 193.257 104.616 193.257C104.464 193.257 104.318 193.318 104.211 193.425C104.103 193.533 104.043 193.679 104.043 193.831V194.535C104.043 194.61 104.058 194.685 104.086 194.754C104.115 194.824 104.158 194.887 104.211 194.94C104.264 194.994 104.327 195.036 104.397 195.065C104.466 195.093 104.541 195.108 104.616 195.108ZM104.616 190.964C104.691 190.964 104.766 190.95 104.836 190.921C104.905 190.892 104.968 190.85 105.022 190.797C105.075 190.743 105.117 190.68 105.146 190.611C105.175 190.541 105.19 190.466 105.189 190.391V188.098C105.189 187.946 105.129 187.8 105.022 187.693C104.914 187.585 104.768 187.525 104.616 187.525C104.464 187.525 104.318 187.585 104.211 187.693C104.103 187.8 104.043 187.946 104.043 188.098V190.391C104.043 190.466 104.058 190.541 104.086 190.611C104.115 190.68 104.158 190.743 104.211 190.797C104.264 190.85 104.327 190.892 104.397 190.921C104.466 190.95 104.541 190.964 104.616 190.964ZM104.616 185.232C104.691 185.232 104.766 185.217 104.836 185.188C104.905 185.16 104.968 185.117 105.022 185.064C105.075 185.011 105.117 184.948 105.146 184.878C105.175 184.808 105.19 184.734 105.189 184.659V182.366C105.189 182.214 105.129 182.068 105.022 181.96C104.914 181.853 104.768 181.792 104.616 181.792C104.464 181.792 104.318 181.853 104.211 181.96C104.103 182.068 104.043 182.214 104.043 182.366V184.659C104.043 184.734 104.058 184.808 104.086 184.878C104.115 184.948 104.158 185.011 104.211 185.064C104.264 185.117 104.327 185.16 104.397 185.188C104.466 185.217 104.541 185.232 104.616 185.232ZM104.616 179.499C104.691 179.499 104.766 179.485 104.836 179.456C104.905 179.427 104.968 179.385 105.022 179.332C105.075 179.278 105.117 179.215 105.146 179.146C105.175 179.076 105.19 179.001 105.189 178.926V176.633C105.189 176.481 105.129 176.335 105.022 176.228C104.914 176.12 104.768 176.06 104.616 176.06C104.464 176.06 104.318 176.12 104.211 176.228C104.103 176.335 104.043 176.481 104.043 176.633V178.926C104.043 179.001 104.058 179.076 104.086 179.146C104.115 179.215 104.158 179.278 104.211 179.332C104.264 179.385 104.327 179.427 104.397 179.456C104.466 179.485 104.541 179.499 104.616 179.499ZM104.616 173.767C104.691 173.767 104.766 173.752 104.836 173.723C104.905 173.695 104.968 173.652 105.022 173.599C105.075 173.546 105.117 173.483 105.146 173.413C105.175 173.343 105.19 173.269 105.189 173.194V170.901C105.189 170.749 105.129 170.603 105.022 170.495C104.914 170.388 104.768 170.327 104.616 170.327C104.464 170.327 104.318 170.388 104.211 170.495C104.103 170.603 104.043 170.749 104.043 170.901V173.194C104.043 173.269 104.058 173.343 104.086 173.413C104.115 173.483 104.158 173.546 104.211 173.599C104.264 173.652 104.327 173.695 104.397 173.723C104.466 173.752 104.541 173.767 104.616 173.767ZM104.616 168.034C104.691 168.034 104.766 168.02 104.836 167.991C104.905 167.962 104.968 167.92 105.022 167.867C105.075 167.813 105.117 167.75 105.146 167.681C105.175 167.611 105.19 167.536 105.189 167.461V165.168C105.189 165.016 105.129 164.87 105.022 164.763C104.914 164.655 104.768 164.595 104.616 164.595C104.464 164.595 104.318 164.655 104.211 164.763C104.103 164.87 104.043 165.016 104.043 165.168V167.461C104.043 167.536 104.058 167.611 104.086 167.681C104.115 167.75 104.158 167.813 104.211 167.867C104.264 167.92 104.327 167.962 104.397 167.991C104.466 168.02 104.541 168.034 104.616 168.034ZM104.616 162.302C104.691 162.302 104.766 162.287 104.836 162.258C104.905 162.23 104.968 162.187 105.022 162.134C105.075 162.081 105.117 162.018 105.146 161.948C105.175 161.879 105.19 161.804 105.189 161.729V159.436C105.189 159.284 105.129 159.138 105.022 159.03C104.914 158.923 104.768 158.862 104.616 158.862C104.464 158.862 104.318 158.923 104.211 159.03C104.103 159.138 104.043 159.284 104.043 159.436V161.729C104.043 161.804 104.058 161.879 104.086 161.948C104.115 162.018 104.158 162.081 104.211 162.134C104.264 162.187 104.327 162.23 104.397 162.258C104.466 162.287 104.541 162.302 104.616 162.302ZM104.616 156.569C104.691 156.569 104.766 156.555 104.836 156.526C104.905 156.497 104.968 156.455 105.022 156.402C105.075 156.348 105.117 156.285 105.146 156.216C105.175 156.146 105.19 156.071 105.189 155.996V153.703C105.189 153.551 105.129 153.405 105.022 153.298C104.914 153.19 104.768 153.13 104.616 153.13C104.464 153.13 104.318 153.19 104.211 153.298C104.103 153.405 104.043 153.551 104.043 153.703V155.996C104.043 156.071 104.058 156.146 104.086 156.216C104.115 156.285 104.158 156.348 104.211 156.402C104.264 156.455 104.327 156.497 104.397 156.526C104.466 156.555 104.541 156.569 104.616 156.569ZM104.616 150.837C104.691 150.837 104.766 150.822 104.836 150.793C104.905 150.765 104.968 150.722 105.022 150.669C105.075 150.616 105.117 150.553 105.146 150.483C105.175 150.414 105.19 150.339 105.189 150.264V147.971C105.189 147.819 105.129 147.673 105.022 147.565C104.914 147.458 104.768 147.397 104.616 147.397C104.464 147.397 104.318 147.458 104.211 147.565C104.103 147.673 104.043 147.819 104.043 147.971V150.264C104.043 150.339 104.058 150.414 104.086 150.483C104.115 150.553 104.158 150.616 104.211 150.669C104.264 150.722 104.327 150.765 104.397 150.793C104.466 150.822 104.541 150.837 104.616 150.837Z" fill="#25054D"/>
</g>
</g>
<path d="M121.471 125.327L139.176 135.693L142.88 143.738L144.255 143.207V127.398L121.471 114.1L120.041 114.699L121.471 125.327Z" fill="url(#paint4_linear)"/>
<path d="M120.04 125.832L137.745 136.198L142.824 143.711V127.902L120.04 114.604V125.832Z" fill="#FF2C9C"/>
<path d="M107.438 144.66L125.144 155.026L128.849 163.07L130.223 162.539V146.73L107.438 133.432L106.009 134.033L107.438 144.66Z" fill="url(#paint5_linear)"/>
<path d="M106.008 145.164L123.713 155.531L128.793 163.044V147.235L106.008 133.936V145.164Z" fill="url(#paint6_linear)"/>
<path d="M158.258 236.916C158.265 236.83 158.268 236.745 158.266 236.659C158.205 233.719 156.782 180.266 133.695 166.937C114.059 155.6 114.086 181.524 94.5864 170.265C75.7408 159.385 76.3315 105.93 55.9812 94.1804C35.9729 82.6286 30.9773 163.322 30.815 166.038C30.812 166.089 30.8109 166.132 30.8109 166.183C30.8109 166.629 30.9283 167.068 31.1513 167.454C31.3744 167.84 31.6952 168.161 32.0815 168.384L154.444 239.03C154.815 239.244 155.234 239.361 155.662 239.37C156.089 239.379 156.513 239.28 156.892 239.081C157.271 238.883 157.594 238.592 157.831 238.236C158.068 237.879 158.211 237.469 158.247 237.042L158.258 236.916Z" fill="url(#paint7_linear)"/>
<path d="M157.624 237.822L157.634 237.696C157.642 237.61 157.644 237.524 157.643 237.439C157.582 234.498 156.159 181.046 133.072 167.716C113.435 156.379 113.463 182.303 93.9629 171.045C75.1173 160.164 75.7081 106.709 55.3578 94.9601C51.5575 92.7661 48.3005 93.9052 45.5137 97.1996C48.4346 93.3128 51.8943 91.821 55.9814 94.1805C76.3317 105.93 75.741 159.385 94.5865 170.265C114.086 181.524 114.059 155.6 133.695 166.937C156.782 180.266 158.205 233.719 158.266 236.659C158.268 236.745 158.265 236.831 158.258 236.916L158.247 237.042C158.22 237.38 158.124 237.709 157.965 238.008C157.806 238.308 157.588 238.572 157.325 238.785C157.489 238.488 157.59 238.16 157.624 237.822Z" fill="url(#paint8_linear)"/>
<path style="mix-blend-mode:color-dodge" d="M52.9442 74.0756L31.0954 61.3174L30.7835 60.3486L53.5679 73.6468V89.4559L52.9442 87.7258V74.0756Z" fill="url(#paint9_radial)"/>
<path opacity="0.8" d="M50.6922 68.8873L49.1623 71.9649L48.6701 71.6808L50.1949 68.7408L48.1956 67.5865L48.1956 67.1412L50.6922 68.5826L50.6922 68.8873ZM53.2065 72.8673L53.7191 73.1632L53.7191 73.6056L53.2065 73.3097L53.2065 74.2999L52.7346 74.0274L52.7346 73.0372L51.0525 72.066L51.0525 71.7467L52.7067 69.7457L53.2065 70.0343L53.2065 72.8673ZM51.5853 71.9312L52.7346 72.5948L52.7346 70.503L52.6788 70.588L51.5853 71.9312ZM57.672 73.7257C57.672 73.9386 57.6229 74.0997 57.5248 74.2091C57.4284 74.3194 57.2973 74.3736 57.1316 74.3717C57.3244 74.5787 57.4766 74.8062 57.5883 75.0543C57.7016 75.3033 57.7583 75.544 57.7583 75.7765C57.7583 76.1456 57.65 76.377 57.4335 76.4708C57.2187 76.5655 56.9354 76.5113 56.5835 76.3082C56.2283 76.1031 55.9433 75.8292 55.7285 75.4864C55.5154 75.1427 55.4088 74.7872 55.4088 74.42C55.4088 74.1895 55.4629 74.0128 55.5712 73.8897C55.6811 73.7677 55.8325 73.7144 56.0254 73.7301C55.8613 73.5416 55.7319 73.337 55.6372 73.1163C55.5424 72.8956 55.4951 72.6798 55.4951 72.4688C55.4951 72.1095 55.5949 71.8819 55.7945 71.7862C55.9941 71.6905 56.2571 71.7369 56.5835 71.9254C56.9083 72.1129 57.1705 72.3697 57.3701 72.6959C57.5713 73.023 57.672 73.3663 57.672 73.7257ZM57.2889 75.4937C57.2889 75.2555 57.2229 75.023 57.091 74.7965C56.9607 74.5709 56.7899 74.3971 56.5785 74.275C56.367 74.1529 56.197 74.129 56.0685 74.2032C55.9416 74.2784 55.8782 74.4371 55.8782 74.6793C55.8782 74.9215 55.9399 75.1476 56.0634 75.3575C56.1886 75.5685 56.362 75.7379 56.5835 75.8658C56.8034 75.9928 56.976 76.023 57.1011 75.9566C57.2263 75.8883 57.2889 75.734 57.2889 75.4937ZM56.5835 72.3707C56.3992 72.2643 56.2495 72.2442 56.1345 72.3106C56.0211 72.3761 55.9645 72.5221 55.9645 72.7486C55.9645 72.9654 56.0203 73.1734 56.1319 73.3727C56.2452 73.5709 56.3958 73.7242 56.5835 73.8326C56.7713 73.941 56.921 73.961 57.0326 73.8927C57.1459 73.8233 57.2026 73.6803 57.2026 73.4635C57.2026 73.2467 57.1443 73.0362 57.0275 72.8321C56.9108 72.628 56.7628 72.4742 56.5835 72.3707ZM60.1914 74.0641L60.1914 74.524L60.1051 74.4742C59.7398 74.2711 59.4489 74.2281 59.2324 74.3453C59.0159 74.4625 58.8907 74.731 58.8569 75.151C59.0514 75.0055 59.3169 75.0299 59.6535 75.2242C59.9749 75.4098 60.2312 75.6886 60.4223 76.0606C60.6151 76.4337 60.7115 76.8272 60.7115 77.2413C60.7115 77.6808 60.6075 77.9723 60.3995 78.1158C60.1931 78.2603 59.9157 78.232 59.5673 78.0309C59.2138 77.8268 58.927 77.505 58.7072 77.0655C58.4873 76.6241 58.3773 76.1563 58.3773 75.6622L58.3773 75.4542C58.3773 74.669 58.5219 74.1529 58.8112 73.9059C59.1021 73.6578 59.5343 73.6944 60.1077 74.0157L60.1914 74.0641ZM59.5749 75.63C59.4142 75.5372 59.2662 75.5074 59.1309 75.5406C58.9956 75.5738 58.9017 75.6593 58.8492 75.797L58.8492 75.9962C58.8492 76.3477 58.9177 76.6705 59.0548 76.9644C59.1918 77.2584 59.3626 77.4644 59.5673 77.5826C59.7787 77.7047 59.9445 77.7105 60.0646 77.6002C60.1863 77.4908 60.2472 77.2906 60.2472 76.9996C60.2472 76.7066 60.1855 76.4347 60.062 76.1837C59.9402 75.9317 59.7779 75.7472 59.5749 75.63ZM63.5836 78.4718C63.5836 79.1065 63.4898 79.524 63.302 79.7242C63.1142 79.9244 62.8208 79.9093 62.4216 79.6788C62.0275 79.4513 61.7357 79.1324 61.5463 78.7223C61.3568 78.3102 61.2587 77.8023 61.252 77.1988L61.252 76.4752C61.252 75.8482 61.3458 75.4366 61.5336 75.2403C61.7213 75.044 62.0156 75.0616 62.4165 75.2931C62.814 75.5226 63.1066 75.839 63.2944 76.2423C63.4821 76.6436 63.5786 77.1524 63.5836 77.7686L63.5836 78.4718ZM63.1142 77.4596C63.1142 77.0006 63.0584 76.6344 62.9468 76.3609C62.8352 76.0855 62.6584 75.878 62.4165 75.7384C62.1763 75.5997 62.0013 75.6031 61.8913 75.7486C61.7814 75.8941 61.7247 76.1827 61.7213 76.6143L61.7213 77.4815C61.7213 77.9425 61.7788 78.3165 61.8939 78.6036C62.0106 78.8897 62.1865 79.1007 62.4216 79.2364C62.6533 79.3702 62.825 79.3658 62.9366 79.2232C63.05 79.0816 63.1092 78.7896 63.1142 78.3473L63.1142 77.4596Z" fill="white"/>
<path opacity="0.8" d="M123.745 124.393L123.273 124.12L123.273 120.508L122.327 120.363L122.327 119.871L123.671 120.064L123.745 120.107L123.745 124.393ZM126.962 121.982L126.962 122.441L126.876 122.392C126.51 122.189 126.219 122.146 126.003 122.263C125.786 122.38 125.661 122.648 125.627 123.068C125.822 122.923 126.088 122.947 126.424 123.142C126.746 123.327 127.002 123.606 127.193 123.978C127.386 124.351 127.482 124.745 127.482 125.159C127.482 125.598 127.378 125.89 127.17 126.033C126.964 126.178 126.686 126.149 126.338 125.948C125.984 125.744 125.698 125.422 125.478 124.983C125.258 124.542 125.148 124.074 125.148 123.58L125.148 123.372C125.148 122.586 125.293 122.07 125.582 121.823C125.873 121.575 126.305 121.612 126.878 121.933L126.962 121.982ZM126.345 123.547C126.185 123.455 126.037 123.425 125.901 123.458C125.766 123.491 125.672 123.577 125.62 123.714L125.62 123.914C125.62 124.265 125.688 124.588 125.825 124.882C125.962 125.176 126.133 125.382 126.338 125.5C126.549 125.622 126.715 125.628 126.835 125.518C126.957 125.408 127.018 125.208 127.018 124.917C127.018 124.624 126.956 124.352 126.833 124.101C126.711 123.849 126.548 123.665 126.345 123.547ZM131.308 127.327L131.821 127.623L131.821 128.065L131.308 127.769L131.308 128.759L130.836 128.487L130.836 127.497L129.154 126.525L129.154 126.206L130.808 124.205L131.308 124.494L131.308 127.327ZM129.687 126.391L130.836 127.054L130.836 124.962L130.78 125.047L129.687 126.391ZM134.665 130.697L132.244 129.3L132.244 128.91L133.523 128.008C133.713 127.869 133.843 127.743 133.914 127.63C133.987 127.516 134.023 127.376 134.023 127.21C134.023 126.987 133.965 126.771 133.848 126.561C133.731 126.351 133.576 126.19 133.381 126.077C133.148 125.942 132.966 125.915 132.836 125.994C132.707 126.072 132.643 126.248 132.643 126.521L132.173 126.25C132.173 125.857 132.282 125.603 132.501 125.487C132.721 125.372 133.014 125.42 133.381 125.632C133.724 125.83 133.996 126.091 134.196 126.416C134.395 126.738 134.495 127.072 134.495 127.418C134.495 127.837 134.263 128.204 133.8 128.516L132.81 129.184L134.665 130.255L134.665 130.697ZM137.004 127.779L137.004 128.239L136.918 128.19C136.553 127.986 136.262 127.943 136.045 128.061C135.829 128.178 135.703 128.446 135.67 128.866C135.864 128.721 136.13 128.745 136.466 128.94C136.788 129.125 137.044 129.404 137.235 129.776C137.428 130.149 137.524 130.543 137.524 130.957C137.524 131.396 137.42 131.688 137.212 131.831C137.006 131.976 136.728 131.947 136.38 131.746C136.027 131.542 135.74 131.22 135.52 130.781C135.3 130.339 135.19 129.872 135.19 129.378L135.19 129.169C135.19 128.384 135.335 127.868 135.624 127.621C135.915 127.373 136.347 127.41 136.92 127.731L137.004 127.779ZM136.388 129.345C136.227 129.253 136.079 129.223 135.944 129.256C135.808 129.289 135.714 129.375 135.662 129.512L135.662 129.711C135.662 130.063 135.731 130.386 135.868 130.68C136.005 130.974 136.175 131.18 136.38 131.298C136.591 131.42 136.757 131.426 136.877 131.315C136.999 131.206 137.06 131.006 137.06 130.715C137.06 130.422 136.998 130.15 136.875 129.899C136.753 129.647 136.591 129.462 136.388 129.345Z" fill="white"/>
<path d="M31.8246 71.2276L49.53 81.5943L53.2355 89.6381L54.6101 89.1073V73.2982L31.8246 60L30.3949 60.6008L31.8246 71.2276Z" fill="url(#paint10_linear)"/>
<path d="M30.3946 71.733L48.1 82.0984L53.179 89.6114V73.8024L30.3946 60.5042V71.733Z" fill="url(#paint11_linear)"/>
<path opacity="0.8" d="M35.1605 67.0326L33.6305 70.1102L33.1383 69.826L34.6632 66.8861L32.6639 65.7318L32.6639 65.2865L35.1605 66.7279L35.1605 67.0326ZM37.6748 71.0126L38.1873 71.3085L38.1873 71.7509L37.6748 71.455L37.6748 72.4452L37.2029 72.1727L37.2029 71.1825L35.5207 70.2113L35.5207 69.892L37.175 67.891L37.6748 68.1796L37.6748 71.0126ZM36.0535 70.0765L37.2029 70.7401L37.2029 68.6483L37.1471 68.7333L36.0535 70.0765ZM42.1403 71.871C42.1403 72.0839 42.0912 72.245 41.9931 72.3544C41.8967 72.4647 41.7656 72.5189 41.5998 72.517C41.7927 72.724 41.9449 72.9515 42.0565 73.1996C42.1699 73.4486 42.2265 73.6893 42.2265 73.9218C42.2265 74.2909 42.1183 74.5223 41.9018 74.6161C41.6869 74.7108 41.4036 74.6566 41.0518 74.4535C40.6966 74.2484 40.4116 73.9745 40.1968 73.6317C39.9836 73.288 39.8771 72.9325 39.8771 72.5653C39.8771 72.3348 39.9312 72.1581 40.0395 72.035C40.1494 71.913 40.3008 71.8597 40.4936 71.8754C40.3295 71.6869 40.2002 71.4823 40.1054 71.2616C40.0107 71.0409 39.9633 70.8251 39.9633 70.6141C39.9633 70.2548 40.0631 70.0272 40.2627 69.9315C40.4623 69.8358 40.7253 69.8822 41.0518 70.0707C41.3766 70.2582 41.6387 70.515 41.8383 70.8412C42.0396 71.1683 42.1403 71.5116 42.1403 71.871ZM41.7571 73.639C41.7571 73.4008 41.6912 73.1683 41.5592 72.9418C41.429 72.7162 41.2582 72.5424 41.0467 72.4203C40.8353 72.2982 40.6653 72.2743 40.5368 72.3485C40.4099 72.4237 40.3465 72.5824 40.3465 72.8246C40.3465 73.0668 40.4082 73.2928 40.5317 73.5028C40.6568 73.7137 40.8302 73.8832 41.0518 74.0111C41.2717 74.1381 41.4442 74.1683 41.5694 74.1019C41.6946 74.0336 41.7571 73.8793 41.7571 73.639ZM41.0518 70.516C40.8674 70.4095 40.7177 70.3895 40.6027 70.4559C40.4894 70.5214 40.4327 70.6674 40.4327 70.8939C40.4327 71.1107 40.4885 71.3187 40.6002 71.5179C40.7135 71.7162 40.864 71.8695 41.0518 71.9779C41.2396 72.0863 41.3892 72.1063 41.5009 72.038C41.6142 71.9686 41.6709 71.8256 41.6709 71.6088C41.6709 71.392 41.6125 71.1815 41.4958 70.9774C41.3791 70.7733 41.2311 70.6195 41.0518 70.516ZM44.6597 72.2094L44.6597 72.6693L44.5734 72.6195C44.2081 72.4164 43.9171 72.3734 43.7006 72.4906C43.4841 72.6078 43.3589 72.8763 43.3251 73.2963C43.5196 73.1508 43.7852 73.1752 44.1218 73.3695C44.4432 73.5551 44.6994 73.8339 44.8906 74.2059C45.0834 74.579 45.1798 74.9725 45.1798 75.3866C45.1798 75.826 45.0758 76.1176 44.8677 76.2611C44.6614 76.4056 44.384 76.3773 44.0355 76.1761C43.682 75.972 43.3953 75.6503 43.1754 75.2108C42.9555 74.7694 42.8456 74.3016 42.8456 73.8075L42.8456 73.5995C42.8456 72.8143 42.9902 72.2982 43.2794 72.0511C43.5704 71.8031 44.0025 71.8397 44.5759 72.161L44.6597 72.2094ZM44.0431 73.7753C43.8824 73.6825 43.7344 73.6527 43.5991 73.6859C43.4638 73.7191 43.3699 73.8046 43.3175 73.9423L43.3175 74.1415C43.3175 74.493 43.386 74.8158 43.523 75.1097C43.66 75.4037 43.8309 75.6097 44.0355 75.7279C44.247 75.85 44.4127 75.8558 44.5328 75.7455C44.6546 75.6361 44.7155 75.4359 44.7155 75.1449C44.7155 74.8519 44.6538 74.58 44.5303 74.329C44.4085 74.077 44.2461 73.8925 44.0431 73.7753ZM48.0519 76.6171C48.0519 77.2518 47.958 77.6693 47.7703 77.8695C47.5825 78.0697 47.289 78.0546 46.8899 77.8241C46.4957 77.5966 46.204 77.2777 46.0145 76.8676C45.8251 76.4554 45.727 75.9476 45.7202 75.3441L45.7202 74.6205C45.7202 73.9935 45.8141 73.5819 46.0018 73.3856C46.1896 73.1893 46.4839 73.2069 46.8848 73.4384C47.2823 73.6678 47.5749 73.9843 47.7626 74.3876C47.9504 74.7889 48.0468 75.2977 48.0519 75.9139L48.0519 76.6171ZM47.5825 75.6049C47.5825 75.1459 47.5267 74.7797 47.4151 74.5062C47.3034 74.2308 47.1267 74.0233 46.8848 73.8837C46.6446 73.745 46.4695 73.7484 46.3596 73.8939C46.2496 74.0394 46.193 74.328 46.1896 74.7596L46.1896 75.6268C46.1896 76.0878 46.2471 76.4618 46.3621 76.7489C46.4788 77.035 46.6547 77.246 46.8899 77.3817C47.1216 77.5155 47.2933 77.5111 47.4049 77.3685C47.5182 77.2269 47.5774 76.9349 47.5825 76.4926L47.5825 75.6049Z" fill="white"/>
<path opacity="0.8" d="M109.987 143.883L109.515 143.611L109.515 139.999L108.568 139.854L108.568 139.361L109.913 139.555L109.987 139.597L109.987 143.883ZM113.204 141.472L113.204 141.932L113.117 141.882C112.752 141.679 112.461 141.636 112.245 141.754C112.028 141.871 111.903 142.139 111.869 142.559C112.064 142.414 112.329 142.438 112.666 142.632C112.987 142.818 113.243 143.097 113.435 143.469C113.627 143.842 113.724 144.235 113.724 144.65C113.724 145.089 113.62 145.38 113.412 145.524C113.205 145.669 112.928 145.64 112.58 145.439C112.226 145.235 111.939 144.913 111.719 144.474C111.5 144.032 111.39 143.565 111.39 143.07L111.39 142.862C111.39 142.077 111.534 141.561 111.823 141.314C112.114 141.066 112.547 141.103 113.12 141.424L113.204 141.472ZM112.587 143.038C112.426 142.945 112.278 142.916 112.143 142.949C112.008 142.982 111.914 143.068 111.862 143.205L111.862 143.404C111.862 143.756 111.93 144.079 112.067 144.373C112.204 144.667 112.375 144.873 112.58 144.991C112.791 145.113 112.957 145.119 113.077 145.008C113.199 144.899 113.26 144.699 113.26 144.408C113.26 144.115 113.198 143.843 113.074 143.592C112.953 143.34 112.79 143.155 112.587 143.038ZM117.55 146.818L118.062 147.113L118.062 147.556L117.55 147.26L117.55 148.25L117.078 147.978L117.078 146.987L115.396 146.016L115.396 145.697L117.05 143.696L117.55 143.984L117.55 146.818ZM115.929 145.881L117.078 146.545L117.078 144.453L117.022 144.538L115.929 145.881ZM120.907 150.188L118.486 148.791L118.486 148.401L119.765 147.499C119.954 147.36 120.085 147.234 120.156 147.121C120.228 147.006 120.265 146.866 120.265 146.7C120.265 146.478 120.206 146.261 120.09 146.051C119.973 145.841 119.817 145.68 119.623 145.568C119.389 145.433 119.208 145.405 119.077 145.484C118.949 145.563 118.884 145.738 118.884 146.012L118.415 145.741C118.415 145.348 118.524 145.094 118.742 144.978C118.962 144.862 119.256 144.911 119.623 145.123C119.966 145.321 120.238 145.582 120.437 145.906C120.637 146.229 120.737 146.563 120.737 146.908C120.737 147.328 120.505 147.694 120.041 148.007L119.052 148.675L120.907 149.746L120.907 150.188ZM123.246 147.27L123.246 147.73L123.16 147.68C122.794 147.477 122.503 147.434 122.287 147.551C122.07 147.669 121.945 147.937 121.911 148.357C122.106 148.212 122.371 148.236 122.708 148.43C123.029 148.616 123.286 148.895 123.477 149.267C123.67 149.64 123.766 150.033 123.766 150.447C123.766 150.887 123.662 151.178 123.454 151.322C123.248 151.466 122.97 151.438 122.622 151.237C122.268 151.033 121.982 150.711 121.762 150.272C121.542 149.83 121.432 149.362 121.432 148.868L121.432 148.66C121.432 147.875 121.576 147.359 121.866 147.112C122.157 146.864 122.589 146.901 123.162 147.222L123.246 147.27ZM122.629 148.836C122.469 148.743 122.321 148.714 122.185 148.747C122.05 148.78 121.956 148.865 121.904 149.003L121.904 149.202C121.904 149.554 121.972 149.877 122.109 150.171C122.246 150.464 122.417 150.671 122.622 150.789C122.833 150.911 122.999 150.917 123.119 150.806C123.241 150.697 123.302 150.497 123.302 150.206C123.302 149.913 123.24 149.641 123.116 149.39C122.995 149.138 122.832 148.953 122.629 148.836Z" fill="white"/>
<path d="M37.2414 190.711L34.7634 192.142L37.3725 193.648L36.3026 194.266L30.1457 190.711L34.0572 188.453L34.9199 188.951L32.0782 190.592L33.9092 191.649L36.3872 190.218L37.2414 190.711ZM42.9712 190.514C42.32 190.89 41.587 191.077 40.7723 191.075C39.9576 191.07 39.2091 190.871 38.5269 190.477L38.4 190.404C37.9433 190.14 37.6234 189.855 37.4401 189.547C37.2569 189.236 37.2245 188.931 37.3429 188.631C37.4613 188.332 37.7164 188.069 38.1083 187.843C38.7313 187.483 39.4107 187.32 40.1465 187.355C40.8851 187.387 41.618 187.613 42.3454 188.033L42.7598 188.272L39.7701 189.999C40.1789 190.199 40.6032 190.299 41.0429 190.299C41.4855 190.297 41.8746 190.2 42.21 190.006C42.6808 189.734 42.8739 189.403 42.7894 189.012L43.8719 188.998C43.9621 189.261 43.9297 189.526 43.7746 189.791C43.6196 190.053 43.3518 190.294 42.9712 190.514ZM38.9286 188.321C38.6467 188.484 38.517 188.673 38.5396 188.888C38.565 189.101 38.7299 189.323 39.0343 189.554L40.9922 188.424L40.9161 188.38C40.5496 188.194 40.1986 188.098 39.8632 188.089C39.5249 188.08 39.2133 188.157 38.9286 188.321ZM47.2971 185.331C48.0075 185.741 48.4135 186.159 48.5149 186.585C48.6193 187.01 48.3937 187.383 47.8384 187.704C47.3027 188.013 46.6924 188.142 46.0074 188.092L46.4514 188.407L45.5211 188.944L39.0259 185.194L40.0534 184.601L42.413 185.963C42.3595 185.59 42.5836 185.259 43.0854 184.969C43.6436 184.647 44.2891 184.514 45.0221 184.569C45.7551 184.624 46.4937 184.867 47.2379 185.296L47.2971 185.331ZM46.1807 185.873C45.6846 185.586 45.2251 185.422 44.8022 185.379C44.3793 185.337 44.0016 185.412 43.6689 185.604C43.2235 185.861 43.1051 186.154 43.3137 186.483L45.1997 187.572C45.7804 187.696 46.2949 187.628 46.7431 187.369C47.0645 187.184 47.1928 186.971 47.128 186.732C47.0631 186.493 46.7911 186.231 46.3118 185.948L46.1807 185.873Z" fill="#3BB9FF"/>
<path d="M68.2205 212.267L74.7157 213.966L71.7683 210.219L73.1511 209.421L79.308 212.975L78.2424 213.59L76.2126 212.419L73.6035 210.79L76.5298 214.579L75.7644 215.021L69.21 213.332L72.0262 214.836L74.056 216.007L72.9904 216.623L66.8335 213.068L68.2205 212.267ZM83.211 210.722C83.0785 210.697 82.8967 210.638 82.6655 210.544C82.6796 210.929 82.4498 211.259 81.9762 211.532C81.5167 211.798 81.0107 211.938 80.4582 211.955C79.9056 211.971 79.4362 211.868 79.05 211.645C78.5623 211.363 78.3692 211.043 78.4707 210.685C78.5722 210.324 78.9598 209.949 79.6336 209.56L80.2636 209.196L79.9634 209.023C79.7266 208.886 79.4715 208.815 79.198 208.81C78.9218 208.804 78.6483 208.879 78.3777 209.035C78.1437 209.17 78.0112 209.315 77.9802 209.469C77.9463 209.622 78.0196 209.751 78.2001 209.855L77.1725 210.448C76.9216 210.303 76.7708 210.12 76.72 209.899C76.6665 209.676 76.72 209.447 76.8807 209.211C77.0442 208.973 77.3022 208.752 77.6546 208.549C78.1902 208.24 78.7526 208.071 79.3418 208.044C79.9282 208.014 80.4694 208.138 80.9656 208.415L83.0292 209.606C83.4408 209.844 83.827 210 84.1878 210.075L84.2597 210.116L83.211 210.722ZM81.3419 210.946C81.5449 210.829 81.6859 210.691 81.7648 210.531C81.8466 210.37 81.8494 210.216 81.7733 210.067L80.9106 209.569L80.3567 209.889C79.9761 210.109 79.7562 210.312 79.697 210.5C79.6378 210.687 79.7294 210.85 79.9719 210.99C80.1692 211.104 80.3919 211.158 80.64 211.151C80.8881 211.142 81.1221 211.073 81.3419 210.946ZM83.9214 206.112C83.7635 206.178 83.6127 206.252 83.4689 206.335C82.9982 206.606 82.8614 206.894 83.0588 207.196L86.188 209.003L85.1604 209.596L80.585 206.955L81.5661 206.388L82.1031 206.669C81.9537 206.296 82.0989 205.983 82.5386 205.729C82.6852 205.644 82.8262 205.586 82.9615 205.553L83.9214 206.112Z" fill="#3BB9FF"/>
<path d="M115.131 234.442L112.746 235.819L113.68 236.935L112.568 237.577L108.737 232.68L109.697 232.125L118.184 234.335L117.068 234.979L115.131 234.442ZM112.184 235.148L113.968 234.118L110.522 233.158L112.184 235.148ZM120.349 230.497C121.057 230.906 121.461 231.325 121.563 231.754C121.661 232.182 121.44 232.553 120.899 232.865C120.397 233.155 119.83 233.292 119.199 233.275L121.368 234.528L120.341 235.121L114.006 231.464L114.953 230.917L115.461 231.161C115.396 230.775 115.623 230.433 116.142 230.133C116.7 229.811 117.345 229.679 118.078 229.738C118.811 229.793 119.547 230.034 120.286 230.46L120.349 230.497ZM119.237 231.037C118.78 230.773 118.326 230.617 117.875 230.568C117.427 230.517 117.034 230.59 116.695 230.785C116.275 231.028 116.147 231.302 116.311 231.608L118.34 232.78C118.882 232.877 119.364 232.804 119.787 232.56C120.114 232.371 120.238 232.148 120.159 231.891C120.08 231.631 119.773 231.346 119.237 231.037ZM122.222 227.804C122.064 227.869 121.914 227.943 121.77 228.026C121.299 228.298 121.162 228.585 121.36 228.888L124.489 230.695L123.461 231.288L118.886 228.646L119.867 228.08L120.404 228.361C120.255 227.988 120.4 227.675 120.84 227.421C120.986 227.336 121.127 227.278 121.262 227.245L122.222 227.804Z" fill="#3BB9FF"/>
<path opacity="0.6" d="M53.8433 179.232C53.9185 179.232 53.9931 179.217 54.0627 179.188C54.1322 179.159 54.1955 179.117 54.2487 179.064C54.3019 179.011 54.3441 178.947 54.3729 178.878C54.4017 178.808 54.4165 178.734 54.4165 178.658V176.365C54.4165 176.213 54.3561 176.067 54.2486 175.96C54.1411 175.852 53.9953 175.792 53.8433 175.792C53.6912 175.792 53.5454 175.852 53.4379 175.96C53.3304 176.067 53.27 176.213 53.27 176.365V178.658C53.27 178.734 53.2847 178.808 53.3135 178.878C53.3423 178.947 53.3846 179.011 53.4378 179.064C53.4911 179.117 53.5542 179.159 53.6238 179.188C53.6934 179.217 53.768 179.232 53.8433 179.232ZM53.8433 173.499C53.9185 173.499 53.9931 173.484 54.0627 173.455C54.1322 173.427 54.1955 173.384 54.2487 173.331C54.3019 173.278 54.3441 173.215 54.3729 173.145C54.4017 173.076 54.4165 173.001 54.4165 172.926V170.633C54.4165 170.481 54.3561 170.335 54.2486 170.227C54.1411 170.12 53.9953 170.06 53.8433 170.06C53.6912 170.06 53.5454 170.12 53.4379 170.227C53.3304 170.335 53.27 170.481 53.27 170.633V172.926C53.27 173.001 53.2847 173.076 53.3135 173.145C53.3423 173.215 53.3846 173.278 53.4378 173.331C53.4911 173.384 53.5542 173.427 53.6238 173.455C53.6934 173.484 53.768 173.499 53.8433 173.499ZM53.8433 167.767C53.9185 167.767 53.9931 167.752 54.0627 167.723C54.1322 167.694 54.1955 167.652 54.2487 167.599C54.3019 167.546 54.3441 167.482 54.3729 167.413C54.4017 167.343 54.4165 167.269 54.4165 167.193V164.9C54.4165 164.748 54.3561 164.602 54.2486 164.495C54.1411 164.387 53.9953 164.327 53.8433 164.327C53.6912 164.327 53.5454 164.387 53.4379 164.495C53.3304 164.602 53.27 164.748 53.27 164.9V167.193C53.27 167.269 53.2847 167.343 53.3135 167.413C53.3423 167.482 53.3846 167.546 53.4378 167.599C53.4911 167.652 53.5542 167.694 53.6238 167.723C53.6934 167.752 53.768 167.767 53.8433 167.767ZM53.8433 162.034C53.9185 162.034 53.9931 162.019 54.0627 161.991C54.1322 161.962 54.1955 161.92 54.2487 161.866C54.3019 161.813 54.3441 161.75 54.3729 161.68C54.4017 161.611 54.4165 161.536 54.4165 161.461V159.168C54.4165 159.016 54.3561 158.87 54.2486 158.762C54.1411 158.655 53.9953 158.595 53.8433 158.595C53.6912 158.595 53.5454 158.655 53.4379 158.762C53.3304 158.87 53.27 159.016 53.27 159.168V161.461C53.27 161.536 53.2847 161.611 53.3135 161.68C53.3423 161.75 53.3846 161.813 53.4378 161.866C53.4911 161.92 53.5542 161.962 53.6238 161.991C53.6934 162.019 53.768 162.034 53.8433 162.034ZM53.8433 156.302C53.9185 156.302 53.9931 156.287 54.0627 156.258C54.1322 156.229 54.1955 156.187 54.2487 156.134C54.3019 156.081 54.3441 156.017 54.3729 155.948C54.4017 155.878 54.4165 155.804 54.4165 155.728V153.435C54.4165 153.283 54.3561 153.137 54.2486 153.03C54.1411 152.922 53.9953 152.862 53.8433 152.862C53.6912 152.862 53.5454 152.922 53.4379 153.03C53.3304 153.137 53.27 153.283 53.27 153.435V155.728C53.27 155.804 53.2847 155.878 53.3135 155.948C53.3423 156.017 53.3846 156.081 53.4378 156.134C53.4911 156.187 53.5542 156.229 53.6238 156.258C53.6934 156.287 53.768 156.302 53.8433 156.302ZM53.8433 150.569C53.9185 150.569 53.9931 150.554 54.0627 150.526C54.1322 150.497 54.1955 150.455 54.2487 150.401C54.3019 150.348 54.3441 150.285 54.3729 150.215C54.4017 150.146 54.4165 150.071 54.4165 149.996V147.703C54.4165 147.551 54.3561 147.405 54.2486 147.298C54.1411 147.19 53.9953 147.13 53.8433 147.13C53.6912 147.13 53.5454 147.19 53.4379 147.298C53.3304 147.405 53.27 147.551 53.27 147.703V149.996C53.27 150.071 53.2847 150.146 53.3135 150.215C53.3423 150.285 53.3846 150.348 53.4378 150.401C53.4911 150.455 53.5542 150.497 53.6238 150.526C53.6934 150.554 53.768 150.569 53.8433 150.569ZM53.8433 144.837C53.9185 144.837 53.9931 144.822 54.0627 144.793C54.1322 144.764 54.1955 144.722 54.2487 144.669C54.3019 144.616 54.3441 144.552 54.3729 144.483C54.4017 144.413 54.4165 144.339 54.4165 144.263V141.97C54.4165 141.818 54.3561 141.673 54.2486 141.565C54.1411 141.458 53.9953 141.397 53.8433 141.397C53.6912 141.397 53.5454 141.458 53.4379 141.565C53.3304 141.673 53.27 141.818 53.27 141.97V144.263C53.27 144.339 53.2847 144.413 53.3135 144.483C53.3423 144.552 53.3846 144.616 53.4378 144.669C53.4911 144.722 53.5542 144.764 53.6238 144.793C53.6934 144.822 53.768 144.837 53.8433 144.837ZM53.8433 139.104C53.9185 139.104 53.9931 139.089 54.0627 139.061C54.1322 139.032 54.1955 138.99 54.2487 138.936C54.3019 138.883 54.3441 138.82 54.3729 138.75C54.4017 138.681 54.4165 138.606 54.4165 138.531V136.238C54.4165 136.086 54.3561 135.94 54.2486 135.833C54.1411 135.725 53.9953 135.665 53.8433 135.665C53.6912 135.665 53.5454 135.725 53.4379 135.833C53.3304 135.94 53.27 136.086 53.27 136.238V138.531C53.27 138.606 53.2847 138.681 53.3135 138.75C53.3423 138.82 53.3846 138.883 53.4378 138.936C53.4911 138.99 53.5542 139.032 53.6238 139.061C53.6934 139.089 53.768 139.104 53.8433 139.104ZM53.8433 133.372C53.9185 133.372 53.9931 133.357 54.0627 133.328C54.1322 133.299 54.1955 133.257 54.2487 133.204C54.3019 133.151 54.3441 133.087 54.3729 133.018C54.4017 132.948 54.4165 132.874 54.4165 132.798V130.505C54.4165 130.353 54.3561 130.208 54.2486 130.1C54.1411 129.993 53.9953 129.932 53.8433 129.932C53.6912 129.932 53.5454 129.993 53.4379 130.1C53.3304 130.208 53.27 130.353 53.27 130.505V132.798C53.27 132.874 53.2847 132.948 53.3135 133.018C53.3423 133.087 53.3846 133.151 53.4378 133.204C53.4911 133.257 53.5542 133.299 53.6238 133.328C53.6934 133.357 53.768 133.372 53.8433 133.372ZM53.8433 127.639C53.9185 127.639 53.9931 127.624 54.0627 127.596C54.1322 127.567 54.1955 127.525 54.2487 127.471C54.3019 127.418 54.3441 127.355 54.3729 127.285C54.4017 127.216 54.4165 127.141 54.4165 127.066V124.773C54.4165 124.621 54.3561 124.475 54.2486 124.368C54.1411 124.26 53.9953 124.2 53.8433 124.2C53.6912 124.2 53.5454 124.26 53.4379 124.368C53.3304 124.475 53.27 124.621 53.27 124.773V127.066C53.27 127.141 53.2847 127.216 53.3135 127.285C53.3423 127.355 53.3846 127.418 53.4378 127.471C53.4911 127.525 53.5542 127.567 53.6238 127.596C53.6934 127.624 53.768 127.639 53.8433 127.639ZM53.8433 121.907C53.9185 121.907 53.9931 121.892 54.0627 121.863C54.1322 121.834 54.1955 121.792 54.2487 121.739C54.3019 121.686 54.3441 121.622 54.3729 121.553C54.4017 121.483 54.4165 121.409 54.4165 121.333V119.04C54.4165 118.888 54.3561 118.743 54.2486 118.635C54.1411 118.528 53.9953 118.467 53.8433 118.467C53.6912 118.467 53.5454 118.528 53.4379 118.635C53.3304 118.743 53.27 118.888 53.27 119.04V121.333C53.27 121.409 53.2847 121.483 53.3135 121.553C53.3423 121.622 53.3846 121.686 53.4378 121.739C53.4911 121.792 53.5542 121.834 53.6238 121.863C53.6934 121.892 53.768 121.907 53.8433 121.907ZM53.8433 116.174C53.9185 116.174 53.9931 116.159 54.0627 116.131C54.1322 116.102 54.1955 116.06 54.2487 116.006C54.3019 115.953 54.3441 115.89 54.3729 115.82C54.4017 115.751 54.4165 115.676 54.4165 115.601V113.308C54.4165 113.156 54.3561 113.01 54.2486 112.903C54.1411 112.795 53.9953 112.735 53.8433 112.735C53.6912 112.735 53.5454 112.795 53.4379 112.903C53.3304 113.01 53.27 113.156 53.27 113.308V115.601C53.27 115.676 53.2847 115.751 53.3135 115.82C53.3423 115.89 53.3846 115.953 53.4378 116.006C53.4911 116.06 53.5542 116.102 53.6238 116.131C53.6934 116.159 53.768 116.174 53.8433 116.174ZM53.8433 110.442C53.9185 110.442 53.9931 110.427 54.0627 110.398C54.1322 110.369 54.1955 110.327 54.2487 110.274C54.3019 110.221 54.3441 110.157 54.3729 110.088C54.4017 110.018 54.4165 109.944 54.4165 109.868V107.575C54.4165 107.423 54.3561 107.278 54.2486 107.17C54.1411 107.063 53.9953 107.002 53.8433 107.002C53.6912 107.002 53.5454 107.063 53.4379 107.17C53.3304 107.278 53.27 107.423 53.27 107.575V109.868C53.27 109.944 53.2847 110.018 53.3135 110.088C53.3423 110.157 53.3846 110.221 53.4378 110.274C53.4911 110.327 53.5542 110.369 53.6238 110.398C53.6934 110.427 53.768 110.442 53.8433 110.442ZM53.8433 104.709C53.9185 104.709 53.9931 104.694 54.0627 104.666C54.1322 104.637 54.1955 104.595 54.2487 104.541C54.3019 104.488 54.3441 104.425 54.3729 104.355C54.4017 104.286 54.4165 104.211 54.4165 104.136V101.843C54.4165 101.691 54.3561 101.545 54.2486 101.438C54.1411 101.33 53.9953 101.27 53.8433 101.27C53.6912 101.27 53.5454 101.33 53.4379 101.438C53.3304 101.545 53.27 101.691 53.27 101.843V104.136C53.27 104.211 53.2847 104.286 53.3135 104.355C53.3423 104.425 53.3846 104.488 53.4378 104.541C53.4911 104.595 53.5542 104.637 53.6238 104.666C53.6934 104.694 53.768 104.709 53.8433 104.709ZM53.8433 98.9767C53.9185 98.9768 53.9931 98.962 54.0627 98.9332C54.1322 98.9044 54.1955 98.8622 54.2487 98.8089C54.3019 98.7557 54.3441 98.6925 54.3729 98.6229C54.4017 98.5533 54.4165 98.4788 54.4165 98.4035V96.1105C54.4165 95.9584 54.3561 95.8126 54.2486 95.7051C54.1411 95.5976 53.9953 95.5372 53.8433 95.5372C53.6912 95.5372 53.5454 95.5976 53.4379 95.7051C53.3304 95.8126 53.27 95.9584 53.27 96.1105V98.4035C53.27 98.4788 53.2847 98.5533 53.3135 98.6229C53.3423 98.6925 53.3846 98.7557 53.4378 98.8089C53.4911 98.8622 53.5542 98.9044 53.6238 98.9332C53.6934 98.962 53.768 98.9768 53.8433 98.9767Z" fill="url(#paint12_linear)"/>
<path opacity="0.6" d="M128.2 223.269C128.276 223.269 128.35 223.254 128.42 223.225C128.489 223.196 128.553 223.154 128.606 223.101C128.659 223.048 128.701 222.984 128.73 222.915C128.759 222.845 128.774 222.771 128.774 222.695V220.402C128.774 220.25 128.713 220.105 128.606 219.997C128.498 219.89 128.352 219.829 128.2 219.829C128.048 219.829 127.903 219.89 127.795 219.997C127.688 220.105 127.627 220.25 127.627 220.402V222.695C127.627 222.771 127.642 222.845 127.671 222.915C127.7 222.984 127.742 223.048 127.795 223.101C127.848 223.154 127.911 223.196 127.981 223.225C128.051 223.254 128.125 223.269 128.2 223.269ZM128.2 217.536C128.276 217.536 128.35 217.521 128.42 217.493C128.489 217.464 128.553 217.422 128.606 217.368C128.659 217.315 128.701 217.252 128.73 217.182C128.759 217.113 128.774 217.038 128.774 216.963V214.67C128.774 214.518 128.713 214.372 128.606 214.265C128.498 214.157 128.352 214.097 128.2 214.097C128.048 214.097 127.903 214.157 127.795 214.265C127.688 214.372 127.627 214.518 127.627 214.67V216.963C127.627 217.038 127.642 217.113 127.671 217.182C127.7 217.252 127.742 217.315 127.795 217.368C127.848 217.422 127.911 217.464 127.981 217.493C128.051 217.521 128.125 217.536 128.2 217.536ZM128.2 211.804C128.276 211.804 128.35 211.789 128.42 211.76C128.489 211.731 128.553 211.689 128.606 211.636C128.659 211.583 128.701 211.519 128.73 211.45C128.759 211.38 128.774 211.306 128.774 211.23V208.937C128.774 208.785 128.713 208.64 128.606 208.532C128.498 208.425 128.352 208.364 128.2 208.364C128.048 208.364 127.903 208.425 127.795 208.532C127.688 208.64 127.627 208.785 127.627 208.937V211.23C127.627 211.306 127.642 211.38 127.671 211.45C127.7 211.519 127.742 211.583 127.795 211.636C127.848 211.689 127.911 211.731 127.981 211.76C128.051 211.789 128.125 211.804 128.2 211.804ZM128.2 206.071C128.276 206.071 128.35 206.056 128.42 206.028C128.489 205.999 128.553 205.957 128.606 205.903C128.659 205.85 128.701 205.787 128.73 205.717C128.759 205.648 128.774 205.573 128.774 205.498V203.205C128.774 203.053 128.713 202.907 128.606 202.8C128.498 202.692 128.352 202.632 128.2 202.632C128.048 202.632 127.903 202.692 127.795 202.8C127.688 202.907 127.627 203.053 127.627 203.205V205.498C127.627 205.573 127.642 205.648 127.671 205.717C127.7 205.787 127.742 205.85 127.795 205.903C127.848 205.957 127.911 205.999 127.981 206.028C128.051 206.056 128.125 206.071 128.2 206.071ZM128.2 200.339C128.276 200.339 128.35 200.324 128.42 200.295C128.489 200.266 128.553 200.224 128.606 200.171C128.659 200.118 128.701 200.054 128.73 199.985C128.759 199.915 128.774 199.841 128.774 199.765V197.472C128.774 197.32 128.713 197.175 128.606 197.067C128.498 196.96 128.352 196.899 128.2 196.899C128.048 196.899 127.903 196.96 127.795 197.067C127.688 197.175 127.627 197.32 127.627 197.472V199.765C127.627 199.841 127.642 199.915 127.671 199.985C127.7 200.054 127.742 200.118 127.795 200.171C127.848 200.224 127.911 200.266 127.981 200.295C128.051 200.324 128.125 200.339 128.2 200.339ZM128.2 194.606C128.276 194.606 128.35 194.591 128.42 194.563C128.489 194.534 128.553 194.492 128.606 194.438C128.659 194.385 128.701 194.322 128.73 194.252C128.759 194.183 128.774 194.108 128.774 194.033V191.74C128.774 191.588 128.713 191.442 128.606 191.335C128.498 191.227 128.352 191.167 128.2 191.167C128.048 191.167 127.903 191.227 127.795 191.335C127.688 191.442 127.627 191.588 127.627 191.74V194.033C127.627 194.108 127.642 194.183 127.671 194.252C127.7 194.322 127.742 194.385 127.795 194.438C127.848 194.492 127.911 194.534 127.981 194.563C128.051 194.591 128.125 194.606 128.2 194.606ZM128.2 188.874C128.276 188.874 128.35 188.859 128.42 188.83C128.489 188.801 128.553 188.759 128.606 188.706C128.659 188.653 128.701 188.59 128.73 188.52C128.759 188.45 128.774 188.376 128.774 188.3V186.007C128.774 185.855 128.713 185.71 128.606 185.602C128.498 185.495 128.352 185.434 128.2 185.434C128.048 185.434 127.903 185.495 127.795 185.602C127.688 185.71 127.627 185.855 127.627 186.007V188.3C127.627 188.376 127.642 188.45 127.671 188.52C127.7 188.59 127.742 188.653 127.795 188.706C127.848 188.759 127.911 188.801 127.981 188.83C128.051 188.859 128.125 188.874 128.2 188.874ZM128.2 183.141C128.276 183.141 128.35 183.127 128.42 183.098C128.489 183.069 128.553 183.027 128.606 182.973C128.659 182.92 128.701 182.857 128.73 182.787C128.759 182.718 128.774 182.643 128.774 182.568V180.275C128.774 180.123 128.713 179.977 128.606 179.87C128.498 179.762 128.352 179.702 128.2 179.702C128.048 179.702 127.903 179.762 127.795 179.87C127.688 179.977 127.627 180.123 127.627 180.275V182.568C127.627 182.643 127.642 182.718 127.671 182.787C127.7 182.857 127.742 182.92 127.795 182.973C127.848 183.027 127.911 183.069 127.981 183.098C128.051 183.127 128.125 183.141 128.2 183.141ZM128.2 177.409C128.276 177.409 128.35 177.394 128.42 177.365C128.489 177.336 128.553 177.294 128.606 177.241C128.659 177.188 128.701 177.125 128.73 177.055C128.759 176.985 128.774 176.911 128.774 176.836V174.543C128.774 174.39 128.713 174.245 128.606 174.137C128.498 174.03 128.352 173.969 128.2 173.969C128.048 173.969 127.903 174.03 127.795 174.137C127.688 174.245 127.627 174.39 127.627 174.543V176.836C127.627 176.911 127.642 176.985 127.671 177.055C127.7 177.125 127.742 177.188 127.795 177.241C127.848 177.294 127.911 177.336 127.981 177.365C128.051 177.394 128.125 177.409 128.2 177.409ZM128.2 171.676C128.276 171.676 128.35 171.662 128.42 171.633C128.489 171.604 128.553 171.562 128.606 171.508C128.659 171.455 128.701 171.392 128.73 171.322C128.759 171.253 128.774 171.178 128.774 171.103V168.81C128.774 168.658 128.713 168.512 128.606 168.405C128.498 168.297 128.352 168.237 128.2 168.237C128.048 168.237 127.903 168.297 127.795 168.405C127.688 168.512 127.627 168.658 127.627 168.81V171.103C127.627 171.178 127.642 171.253 127.671 171.322C127.7 171.392 127.742 171.455 127.795 171.509C127.848 171.562 127.911 171.604 127.981 171.633C128.051 171.662 128.125 171.676 128.2 171.676Z" fill="url(#paint13_linear)"/>
<path opacity="0.6" d="M90.7927 202.682C90.868 202.682 90.9426 202.668 91.0121 202.639C91.0817 202.61 91.1449 202.568 91.1982 202.515C91.2514 202.461 91.2936 202.398 91.3224 202.329C91.3512 202.259 91.366 202.184 91.366 202.109V199.816C91.366 199.664 91.3056 199.518 91.1981 199.411C91.0906 199.303 90.9448 199.243 90.7927 199.243C90.6407 199.243 90.4948 199.303 90.3873 199.411C90.2798 199.518 90.2195 199.664 90.2195 199.816V202.109C90.2194 202.184 90.2342 202.259 90.263 202.329C90.2918 202.398 90.334 202.461 90.3872 202.515C90.4405 202.568 90.5037 202.61 90.5733 202.639C90.6428 202.668 90.7174 202.682 90.7927 202.682ZM90.7927 196.95C90.868 196.95 90.9426 196.935 91.0121 196.906C91.0817 196.878 91.1449 196.835 91.1982 196.782C91.2514 196.729 91.2936 196.666 91.3224 196.596C91.3512 196.526 91.366 196.452 91.366 196.377V194.084C91.366 193.932 91.3056 193.786 91.1981 193.678C91.0906 193.571 90.9448 193.51 90.7927 193.51C90.6407 193.51 90.4948 193.571 90.3873 193.678C90.2798 193.786 90.2195 193.932 90.2195 194.084V196.377C90.2194 196.452 90.2342 196.526 90.263 196.596C90.2918 196.666 90.334 196.729 90.3872 196.782C90.4405 196.835 90.5037 196.878 90.5733 196.906C90.6428 196.935 90.7174 196.95 90.7927 196.95ZM90.7927 191.217C90.868 191.217 90.9426 191.203 91.0121 191.174C91.0817 191.145 91.1449 191.103 91.1982 191.05C91.2514 190.996 91.2936 190.933 91.3224 190.864C91.3512 190.794 91.366 190.719 91.366 190.644V188.351C91.366 188.199 91.3056 188.053 91.1981 187.946C91.0906 187.838 90.9448 187.778 90.7927 187.778C90.6407 187.778 90.4948 187.838 90.3873 187.946C90.2798 188.053 90.2195 188.199 90.2195 188.351V190.644C90.2194 190.719 90.2342 190.794 90.263 190.864C90.2918 190.933 90.334 190.996 90.3872 191.05C90.4405 191.103 90.5037 191.145 90.5733 191.174C90.6428 191.203 90.7174 191.217 90.7927 191.217ZM90.7927 185.485C90.868 185.485 90.9426 185.47 91.0121 185.441C91.0817 185.413 91.1449 185.37 91.1982 185.317C91.2514 185.264 91.2936 185.201 91.3224 185.131C91.3512 185.062 91.366 184.987 91.366 184.912V182.619C91.366 182.467 91.3056 182.321 91.1981 182.213C91.0906 182.106 90.9448 182.045 90.7927 182.045C90.6407 182.045 90.4948 182.106 90.3873 182.213C90.2798 182.321 90.2195 182.467 90.2195 182.619V184.912C90.2194 184.987 90.2342 185.062 90.263 185.131C90.2918 185.201 90.334 185.264 90.3872 185.317C90.4405 185.37 90.5037 185.413 90.5733 185.441C90.6428 185.47 90.7174 185.485 90.7927 185.485ZM90.7927 179.752C90.868 179.752 90.9426 179.738 91.0121 179.709C91.0817 179.68 91.1449 179.638 91.1982 179.585C91.2514 179.531 91.2936 179.468 91.3224 179.399C91.3512 179.329 91.366 179.254 91.366 179.179V176.886C91.366 176.734 91.3056 176.588 91.1981 176.481C91.0906 176.373 90.9448 176.313 90.7927 176.313C90.6407 176.313 90.4948 176.373 90.3873 176.481C90.2798 176.588 90.2195 176.734 90.2195 176.886V179.179C90.2194 179.254 90.2342 179.329 90.263 179.399C90.2918 179.468 90.334 179.531 90.3872 179.585C90.4405 179.638 90.5037 179.68 90.5733 179.709C90.6428 179.738 90.7174 179.752 90.7927 179.752ZM90.7927 174.02C90.868 174.02 90.9426 174.005 91.0121 173.976C91.0817 173.948 91.1449 173.905 91.1982 173.852C91.2514 173.799 91.2936 173.736 91.3224 173.666C91.3512 173.597 91.366 173.522 91.366 173.447V171.154C91.366 171.002 91.3056 170.856 91.1981 170.748C91.0906 170.641 90.9448 170.58 90.7927 170.58C90.6407 170.58 90.4948 170.641 90.3873 170.748C90.2798 170.856 90.2195 171.002 90.2195 171.154V173.447C90.2194 173.522 90.2342 173.597 90.263 173.666C90.2918 173.736 90.334 173.799 90.3872 173.852C90.4405 173.905 90.5037 173.948 90.5733 173.976C90.6428 174.005 90.7174 174.02 90.7927 174.02Z" fill="url(#paint14_linear)"/>
<defs>
<linearGradient id="paint0_linear" x1="56.5334" y1="61.5592" x2="56.5334" y2="91.1973" gradientUnits="userSpaceOnUse">
<stop stop-color="#FF2C9C"/>
<stop offset="1" stop-color="#FFA3D4"/>
</linearGradient>
<linearGradient id="paint1_linear" x1="156.827" y1="245.725" x2="73.5771" y2="108.475" gradientUnits="userSpaceOnUse">
<stop stop-color="#0D477C"/>
<stop offset="0.59375" stop-color="#3BB9FF"/>
<stop offset="1" stop-color="#3BB9FF"/>
</linearGradient>
<linearGradient id="paint2_linear" x1="55.3559" y1="130.237" x2="149.353" y2="123.371" gradientUnits="userSpaceOnUse">
<stop stop-color="#C7E9FC"/>
<stop offset="1" stop-color="#83D1FD"/>
</linearGradient>
<linearGradient id="paint3_linear" x1="125.788" y1="199.09" x2="191.244" y2="196.842" gradientUnits="userSpaceOnUse">
<stop stop-color="#C7E9FC"/>
<stop offset="1" stop-color="#83D1FD"/>
</linearGradient>
<linearGradient id="paint4_linear" x1="132.148" y1="114.1" x2="132.148" y2="143.738" gradientUnits="userSpaceOnUse">
<stop stop-color="#FF2C9C"/>
<stop offset="1" stop-color="#FFA3D4"/>
</linearGradient>
<linearGradient id="paint5_linear" x1="135.681" y1="140.144" x2="99.4779" y2="149.707" gradientUnits="userSpaceOnUse">
<stop offset="0.53125" stop-color="#D1EFFF"/>
<stop offset="1" stop-color="#87D5FF"/>
</linearGradient>
<linearGradient id="paint6_linear" x1="103.786" y1="152.266" x2="138.846" y2="150.349" gradientUnits="userSpaceOnUse">
<stop stop-color="#87D4FE"/>
<stop offset="1" stop-color="#1BADFF"/>
</linearGradient>
<linearGradient id="paint7_linear" x1="24.4351" y1="191.003" x2="153.158" y2="212.174" gradientUnits="userSpaceOnUse">
<stop stop-color="#828282" stop-opacity="0.9"/>
<stop offset="1" stop-color="#4F4F4F"/>
</linearGradient>
<linearGradient id="paint8_linear" x1="34.5168" y1="184.822" x2="208.022" y2="175.448" gradientUnits="userSpaceOnUse">
<stop stop-color="#87D4FE"/>
<stop offset="1" stop-color="#1BADFF"/>
</linearGradient>
<radialGradient id="paint9_radial" cx="0" cy="0" r="1" gradientUnits="userSpaceOnUse" gradientTransform="translate(-8414.44 6442.36) rotate(180) scale(259.72 331.796)">
<stop stop-color="white"/>
<stop offset="1"/>
</radialGradient>
<linearGradient id="paint10_linear" x1="60.0688" y1="66.7122" x2="23.8641" y2="76.276" gradientUnits="userSpaceOnUse">
<stop offset="0.53125" stop-color="#D1EFFF"/>
<stop offset="1" stop-color="#87D5FF"/>
</linearGradient>
<linearGradient id="paint11_linear" x1="28.1725" y1="78.8336" x2="63.2307" y2="76.9173" gradientUnits="userSpaceOnUse">
<stop stop-color="#87D4FE"/>
<stop offset="1" stop-color="#1BADFF"/>
</linearGradient>
<linearGradient id="paint12_linear" x1="53.1582" y1="148.241" x2="54.9276" y2="148.239" gradientUnits="userSpaceOnUse">
<stop stop-color="#87D4FE"/>
<stop offset="1" stop-color="#1BADFF"/>
</linearGradient>
<linearGradient id="paint13_linear" x1="127.515" y1="202.891" x2="129.285" y2="202.889" gradientUnits="userSpaceOnUse">
<stop stop-color="#87D4FE"/>
<stop offset="1" stop-color="#1BADFF"/>
</linearGradient>
<linearGradient id="paint14_linear" x1="90.1077" y1="190.796" x2="91.877" y2="190.791" gradientUnits="userSpaceOnUse">
<stop stop-color="#87D4FE"/>
<stop offset="1" stop-color="#1BADFF"/>
</linearGradient>
</defs>
</svg>
