<svg width="164" height="241" viewBox="0 0 164 241" fill="none" xmlns="http://www.w3.org/2000/svg">
<rect x="1.49976" y="1.07007" width="118.529" height="239" rx="11.5" stroke="#0D477C"/>
<path d="M37.6472 0.570068H84.706V5.98183C84.706 8.19097 82.9152 9.98183 80.706 9.98183H41.6472C39.4381 9.98183 37.6472 8.19097 37.6472 5.98183V0.570068Z" fill="#0D477C"/>
<rect y="59.8644" width="1.88235" height="16.9412" rx="0.941176" fill="#0D477C"/>
<rect y="41.0408" width="1.88235" height="16.9412" rx="0.941176" fill="#0D477C"/>
<rect x="119.529" y="41.0408" width="1.88235" height="14.1176" rx="0.941176" fill="#0D477C"/>
<rect x="72.4707" y="4.33447" width="1.88235" height="1.88235" rx="0.941176" fill="#0D477C"/>
<rect x="48" y="4.33459" width="22.5882" height="1.88235" rx="0.941176" fill="#0D477C"/>
<circle cx="21.5" cy="68.0701" r="2.5" fill="#0D477C"/>
<rect x="29" y="67.5701" width="22" height="1" rx="0.5" fill="#0D477C"/>
<rect x="55" y="67.5701" width="22" height="1" rx="0.5" fill="#0D477C"/>
<rect x="81" y="67.5701" width="22" height="1" rx="0.5" fill="#0D477C"/>
<circle cx="21.5" cy="79.0701" r="2.5" fill="#0D477C"/>
<rect x="29" y="78.5701" width="22" height="1" rx="0.5" fill="#0D477C"/>
<rect x="55" y="78.5701" width="22" height="1" rx="0.5" fill="#0D477C"/>
<rect x="81" y="78.5701" width="22" height="1" rx="0.5" fill="#0D477C"/>
<circle cx="21.5" cy="91.0701" r="2.5" fill="#0D477C"/>
<rect x="29" y="90.5701" width="22" height="1" rx="0.5" fill="#0D477C"/>
<rect x="55" y="90.5701" width="22" height="1" rx="0.5" fill="#0D477C"/>
<rect x="81" y="90.5701" width="22" height="1" rx="0.5" fill="#0D477C"/>
<rect x="19.5" y="109.07" width="83" height="65" rx="1.5" stroke="#0D477C"/>
<ellipse cx="27.5" cy="169.149" rx="1.5" ry="1.42105" fill="#0D477C"/>
<ellipse cx="38.5" cy="169.149" rx="1.5" ry="1.42105" fill="#0D477C"/>
<ellipse cx="49.5" cy="169.149" rx="1.5" ry="1.42105" fill="#0D477C"/>
<ellipse cx="60.5" cy="169.149" rx="1.5" ry="1.42105" fill="#0D477C"/>
<ellipse cx="71.5" cy="169.149" rx="1.5" ry="1.42105" fill="#0D477C"/>
<ellipse cx="82.5" cy="169.149" rx="1.5" ry="1.42105" fill="#0D477C"/>
<ellipse cx="93.5" cy="169.149" rx="1.5" ry="1.42105" fill="#0D477C"/>
<line x1="27.5" y1="126.991" x2="27.5" y2="164.886" stroke="#0D477C"/>
<line x1="38.5" y1="116.57" x2="38.5" y2="164.886" stroke="#0D477C"/>
<line x1="49.5" y1="124.149" x2="49.5" y2="164.886" stroke="#0D477C"/>
<line x1="60.5" y1="134.57" x2="60.5" y2="164.886" stroke="#0D477C"/>
<line x1="71.5" y1="116.57" x2="71.5" y2="164.886" stroke="#0D477C"/>
<path d="M82 126.044L82 164.886" stroke="#0D477C"/>
<line x1="93.5" y1="124.149" x2="93.5" y2="164.886" stroke="#0D477C"/>
<rect opacity="0.2" width="134.678" height="98.8893" rx="10" transform="matrix(0.866025 0.5 -2.20305e-08 1 46.5925 42.357)" fill="#3BB9FF"/>
<rect width="134.678" height="98.8893" rx="10" transform="matrix(0.866025 0.5 -2.20305e-08 1 40 44.2407)" fill="url(#paint0_linear)"/>
<rect width="134.678" height="98.8893" rx="10" transform="matrix(0.866025 0.5 -2.20305e-08 1 40 44.2407)" fill="url(#paint1_linear)"/>
<rect width="40.2375" height="6.10055" rx="2" transform="matrix(0.866025 0.5 -2.20305e-08 1 47.5342 67.7857)" fill="url(#paint2_linear)"/>
<rect width="19.575" height="6.10055" rx="2" transform="matrix(0.866025 0.5 -2.20305e-08 1 47.5342 77.2037)" fill="url(#paint3_linear)"/>
<rect width="35.8875" height="6.10055" rx="2" transform="matrix(0.866025 0.5 -2.20305e-08 1 47.5342 86.6218)" fill="url(#paint4_linear)"/>
<path d="M93.9724 119.815H93.7742V158.594H93.9724V119.815Z" fill="#F2F2F2"/>
<path d="M98.6199 122.497H98.4216V161.277H98.6199V122.497Z" fill="#F2F2F2"/>
<path d="M103.261 125.179H103.063V163.959H103.261V125.179Z" fill="#F2F2F2"/>
<path d="M107.908 127.861H107.71V166.641H107.908V127.861Z" fill="#F2F2F2"/>
<path d="M112.555 130.543H112.357V169.323H112.555V130.543Z" fill="#F2F2F2"/>
<path d="M117.202 133.225H117.004V172.005H117.202V133.225Z" fill="#F2F2F2"/>
<path d="M121.843 135.907H121.645V174.687H121.843V135.907Z" fill="#F2F2F2"/>
<path d="M126.49 138.59H126.292V177.369H126.49V138.59Z" fill="#F2F2F2"/>
<path d="M131.137 141.271H130.939V180.051H131.137V141.271Z" fill="#F2F2F2"/>
<path d="M135.784 143.954H135.586V182.734H135.784V143.954Z" fill="#F2F2F2"/>
<path d="M140.426 146.636H140.228V185.416H140.426V146.636Z" fill="#F2F2F2"/>
<path d="M145.073 149.318H144.875V188.098H145.073V149.318Z" fill="#F2F2F2"/>
<path opacity="0.5" fill-rule="evenodd" clip-rule="evenodd" d="M92.1882 142.415C95.1969 145.686 99.6515 149.802 104.567 151.242C113.47 153.849 113.348 144.263 119.592 148.875C124.805 152.729 126.992 166.781 130.968 169.078C135.574 171.737 135.224 162.39 139.662 164.186C142.681 165.262 145.035 170.442 145.035 170.913C145.035 173.268 145.035 187.866 145.035 187.866L92.1941 157.982V142.415H92.1882Z" fill="#3BB9FF"/>
<path d="M145.035 170.442V171.384C143.164 168.078 141.744 165.23 139.592 164.361C137.598 163.556 136.648 165.177 135.645 166.891C134.601 168.681 133.417 170.711 130.875 169.241C128.922 168.11 127.406 164.279 125.803 160.215C124.1 155.901 122.164 151.009 119.482 149.026C116.497 146.822 115.057 147.977 113.232 149.44C111.389 150.921 109.092 152.764 104.521 151.429C100.614 150.286 96.4509 147.335 92.1537 142.659C92.0779 142.578 92.0838 142.455 92.1654 142.379C92.247 142.304 92.3695 142.309 92.4453 142.391C96.6958 147.009 100.795 149.924 104.631 151.044C108.999 152.321 111.115 150.624 112.981 149.125C114.858 147.615 116.485 146.315 119.715 148.706C122.491 150.752 124.357 155.492 126.17 160.07C127.75 164.064 129.237 167.836 131.073 168.897C133.272 170.168 134.216 168.559 135.307 166.693C136.304 164.991 137.429 163.055 139.744 163.994C142.023 164.915 143.129 167.072 145.035 170.442Z" fill="#3BB9FF"/>
<path fill-rule="evenodd" clip-rule="evenodd" d="M117.995 144.578L117.138 144.082C116.491 143.709 115.966 142.706 115.966 141.843C115.966 140.98 116.491 140.584 117.138 140.957L117.995 141.452C118.643 141.826 119.167 142.829 119.167 143.691C119.167 144.554 118.643 144.951 117.995 144.578Z" fill="#FF2C9C"/>
<path fill-rule="evenodd" clip-rule="evenodd" d="M140.712 162.553L139.499 161.854C138.817 161.463 138.269 160.408 138.269 159.498V159.195C138.269 158.285 138.823 157.871 139.499 158.262L140.712 158.962C141.394 159.352 141.942 160.408 141.942 161.317V161.621C141.948 162.53 141.394 162.944 140.712 162.553Z" fill="url(#paint5_linear)"/>
<path d="M87.2382 155.271L86.9525 155.108V153.615L86.6726 153.598V153.283L87.209 153.3L87.2382 153.318V155.271Z" fill="white"/>
<path d="M88.5031 155.195C88.5031 155.464 88.4681 155.65 88.3923 155.749C88.3165 155.848 88.2116 155.86 88.0775 155.784C87.9434 155.708 87.8384 155.574 87.7626 155.394C87.6868 155.213 87.6518 154.991 87.646 154.729V154.362C87.646 154.093 87.681 153.907 87.7568 153.808C87.8326 153.709 87.9375 153.697 88.0716 153.773C88.2057 153.854 88.3107 153.983 88.3865 154.163C88.4623 154.344 88.4973 154.571 88.4973 154.834V155.195H88.5031ZM88.2174 154.636C88.2174 154.484 88.2057 154.362 88.1824 154.268C88.1591 154.181 88.1241 154.117 88.0775 154.093C87.9842 154.041 87.9375 154.157 87.9375 154.432V154.915C87.9375 155.073 87.9492 155.195 87.9725 155.289C87.9958 155.376 88.0308 155.44 88.0833 155.464C88.1299 155.493 88.1649 155.475 88.1882 155.417C88.2116 155.359 88.2232 155.254 88.2232 155.108V154.636H88.2174Z" fill="white"/>
<path d="M88.6958 154.536C88.6958 154.42 88.7191 154.332 88.7716 154.286C88.8182 154.239 88.8882 154.239 88.9698 154.286C89.0515 154.332 89.1214 154.408 89.1681 154.513C89.2206 154.618 89.2439 154.729 89.2439 154.857V154.956C89.2439 155.079 89.2206 155.16 89.1681 155.207C89.1156 155.254 89.0515 155.248 88.9698 155.201C88.8882 155.154 88.8182 155.079 88.7716 154.974C88.7191 154.869 88.6958 154.758 88.6958 154.63V154.536ZM88.8824 154.746C88.8824 154.799 88.8882 154.845 88.9057 154.886C88.9232 154.927 88.9465 154.956 88.9698 154.974C88.999 154.991 89.0165 154.985 89.034 154.962C89.0515 154.939 89.0573 154.898 89.0573 154.845V154.746C89.0573 154.694 89.0515 154.647 89.034 154.606C89.0165 154.566 88.999 154.536 88.9698 154.519C88.9407 154.501 88.9232 154.507 88.9057 154.531C88.8882 154.554 88.8824 154.595 88.8824 154.647V154.746ZM89.0223 156.157L88.8882 155.977L89.4888 154.799L89.6229 154.98L89.0223 156.157ZM89.273 155.971C89.273 155.848 89.2964 155.767 89.3488 155.72C89.4013 155.673 89.4655 155.679 89.5471 155.726C89.6287 155.773 89.6987 155.848 89.7453 155.953C89.7978 156.052 89.8211 156.169 89.8211 156.297V156.396C89.8211 156.519 89.7978 156.6 89.7453 156.647C89.6928 156.694 89.6287 156.694 89.5471 156.641C89.4596 156.595 89.3955 156.519 89.343 156.414C89.2964 156.309 89.2672 156.198 89.2672 156.076V155.971H89.273ZM89.4596 156.181C89.4596 156.233 89.4713 156.28 89.4888 156.321C89.5063 156.367 89.5296 156.396 89.5529 156.408C89.6112 156.443 89.6404 156.402 89.6404 156.297V156.175C89.6404 156.122 89.6345 156.076 89.617 156.035C89.5996 155.994 89.5762 155.965 89.5529 155.947C89.4946 155.912 89.4655 155.965 89.4655 156.099V156.181H89.4596Z" fill="white"/>
<path d="M87.4722 148.164L86.6092 147.668V147.4L87.0057 146.957C87.0582 146.892 87.0932 146.834 87.1165 146.776C87.1398 146.718 87.1515 146.659 87.1515 146.595C87.1515 146.508 87.1398 146.432 87.1165 146.374C87.0932 146.309 87.064 146.269 87.0174 146.245C86.9707 146.216 86.9358 146.228 86.9066 146.269C86.8774 146.309 86.8658 146.385 86.8658 146.484L86.5801 146.321C86.5801 146.199 86.5976 146.105 86.6384 146.024C86.6792 145.942 86.7258 145.901 86.7958 145.884C86.8658 145.866 86.9416 145.884 87.0232 145.936C87.1515 146.012 87.2564 146.117 87.3264 146.257C87.3964 146.397 87.4372 146.554 87.4372 146.729C87.4372 146.84 87.4197 146.939 87.3789 147.027C87.3381 147.114 87.2681 147.213 87.1631 147.318L86.9766 147.569L87.4722 147.855V148.164Z" fill="white"/>
<path d="M88.5041 147.954C88.5041 148.222 88.4691 148.408 88.3933 148.508C88.3175 148.607 88.2126 148.618 88.0784 148.543C87.9443 148.467 87.8394 148.333 87.7636 148.152C87.6878 147.971 87.6528 147.75 87.647 147.487V147.12C87.647 146.852 87.682 146.665 87.7578 146.566C87.8336 146.467 87.9385 146.455 88.0726 146.531C88.2067 146.613 88.3117 146.741 88.3875 146.922C88.4633 147.102 88.4983 147.33 88.4983 147.592V147.954H88.5041ZM88.2184 147.394C88.2184 147.242 88.2067 147.12 88.1834 147.027C88.1601 146.939 88.1251 146.875 88.0784 146.852C87.9852 146.799 87.9385 146.916 87.9385 147.19V147.674C87.9385 147.831 87.9502 147.954 87.9735 148.047C87.9968 148.134 88.0318 148.199 88.0843 148.222C88.1309 148.251 88.1659 148.234 88.1892 148.175C88.2126 148.117 88.2242 148.012 88.2242 147.866V147.394H88.2184Z" fill="white"/>
<path d="M88.6965 147.295C88.6965 147.178 88.7199 147.091 88.7723 147.044C88.819 146.997 88.8889 146.997 88.9706 147.044C89.0522 147.091 89.1222 147.166 89.1688 147.271C89.2213 147.376 89.2446 147.487 89.2446 147.615V147.715C89.2446 147.837 89.2213 147.919 89.1688 147.965C89.1163 148.012 89.0522 148.006 88.9706 147.959C88.8889 147.913 88.819 147.837 88.7723 147.732C88.7199 147.627 88.6965 147.516 88.6965 147.388V147.295ZM88.8831 147.505C88.8831 147.557 88.8889 147.604 88.9064 147.645C88.9239 147.685 88.9472 147.715 88.9706 147.732C88.9997 147.75 89.0172 147.744 89.0347 147.72C89.0522 147.697 89.058 147.656 89.058 147.604V147.505C89.058 147.452 89.0522 147.406 89.0347 147.365C89.0172 147.324 88.9997 147.295 88.9706 147.277C88.9414 147.26 88.9239 147.266 88.9064 147.289C88.8889 147.312 88.8831 147.353 88.8831 147.406V147.505ZM89.023 148.91L88.8889 148.729L89.4895 147.551L89.6236 147.732L89.023 148.91ZM89.2738 148.723C89.2738 148.601 89.2971 148.519 89.3496 148.473C89.402 148.426 89.4662 148.432 89.5478 148.478C89.6294 148.525 89.6994 148.601 89.7461 148.706C89.7985 148.805 89.8219 148.921 89.8219 149.05V149.149C89.8219 149.271 89.7985 149.353 89.7461 149.4C89.6936 149.446 89.6294 149.446 89.5478 149.394C89.4604 149.347 89.3962 149.271 89.3437 149.166C89.2971 149.061 89.2679 148.951 89.2679 148.828V148.723H89.2738ZM89.4604 148.939C89.4604 148.991 89.472 149.038 89.4895 149.079C89.507 149.126 89.5303 149.155 89.5536 149.166C89.6119 149.201 89.6411 149.161 89.6411 149.056V148.933C89.6411 148.881 89.6353 148.834 89.6178 148.793C89.6003 148.752 89.577 148.723 89.5536 148.706C89.4953 148.671 89.4662 148.723 89.4662 148.857V148.939H89.4604Z" fill="white"/>
<path d="M87.3614 140.117L87.4838 140.187V140.502L87.3614 140.432V140.852L87.0757 140.689V140.269L86.5917 139.989L86.5801 139.738L87.0757 138.741L87.3614 138.904V140.117ZM86.8541 139.826L87.0757 139.954V139.301L87.0699 139.313L86.8541 139.826Z" fill="white"/>
<path d="M88.5041 140.706C88.5041 140.974 88.4691 141.161 88.3933 141.26C88.3175 141.359 88.2126 141.371 88.0784 141.295C87.9443 141.219 87.8394 141.085 87.7636 140.904C87.6878 140.724 87.6528 140.502 87.647 140.24V139.872C87.647 139.604 87.682 139.418 87.7578 139.318C87.8336 139.219 87.9385 139.208 88.0726 139.283C88.2067 139.365 88.3117 139.493 88.3875 139.674C88.4633 139.855 88.4983 140.082 88.4983 140.345V140.706H88.5041ZM88.2184 140.146C88.2184 139.995 88.2067 139.872 88.1834 139.779C88.1601 139.692 88.1251 139.627 88.0784 139.604C87.9852 139.552 87.9385 139.668 87.9385 139.942V140.426C87.9385 140.584 87.9502 140.706 87.9735 140.799C87.9968 140.887 88.0318 140.951 88.0843 140.974C88.1309 141.003 88.1659 140.986 88.1892 140.928C88.2126 140.869 88.2242 140.764 88.2242 140.619V140.146H88.2184Z" fill="white"/>
<path d="M88.6965 140.047C88.6965 139.931 88.7199 139.843 88.7723 139.796C88.819 139.75 88.8889 139.75 88.9706 139.796C89.0522 139.843 89.1222 139.919 89.1688 140.024C89.2213 140.129 89.2446 140.24 89.2446 140.368V140.467C89.2446 140.589 89.2213 140.671 89.1688 140.718C89.1163 140.764 89.0522 140.759 88.9706 140.712C88.8889 140.665 88.819 140.589 88.7723 140.484C88.7199 140.38 88.6965 140.269 88.6965 140.14V140.047ZM88.8831 140.257C88.8831 140.31 88.8889 140.356 88.9064 140.397C88.9239 140.438 88.9472 140.467 88.9706 140.484C88.9997 140.502 89.0172 140.496 89.0347 140.473C89.0522 140.449 89.058 140.409 89.058 140.356V140.257C89.058 140.205 89.0522 140.158 89.0347 140.117C89.0172 140.076 88.9997 140.047 88.9706 140.03C88.9414 140.012 88.9239 140.018 88.9064 140.041C88.8889 140.065 88.8831 140.105 88.8831 140.158V140.257ZM89.023 141.668L88.8889 141.487L89.4895 140.31L89.6236 140.49L89.023 141.668ZM89.2738 141.482C89.2738 141.359 89.2971 141.277 89.3496 141.231C89.402 141.184 89.4662 141.19 89.5478 141.237C89.6294 141.283 89.6994 141.359 89.7461 141.464C89.7985 141.563 89.8219 141.68 89.8219 141.808V141.907C89.8219 142.03 89.7985 142.111 89.7461 142.158C89.6994 142.205 89.6294 142.205 89.5478 142.152C89.4604 142.105 89.3962 142.03 89.3437 141.925C89.2971 141.82 89.2679 141.709 89.2679 141.586V141.482H89.2738ZM89.4604 141.691C89.4604 141.744 89.472 141.791 89.4895 141.831C89.507 141.878 89.5303 141.907 89.5536 141.919C89.6119 141.954 89.6411 141.913 89.6411 141.808V141.686C89.6411 141.633 89.6353 141.586 89.6178 141.546C89.6003 141.505 89.577 141.476 89.5536 141.458C89.4953 141.423 89.4662 141.476 89.4662 141.61V141.691H89.4604Z" fill="white"/>
<path d="M87.2911 131.598V131.919L87.2736 131.908C87.1686 131.849 87.0812 131.843 87.017 131.89C86.9529 131.937 86.9179 132.036 86.9004 132.182C86.9587 132.123 87.0404 132.123 87.1278 132.176C87.2328 132.234 87.3202 132.345 87.3844 132.502C87.4485 132.66 87.4777 132.84 87.4777 133.039C87.4777 133.167 87.4602 133.272 87.4252 133.354C87.3902 133.435 87.3377 133.488 87.2736 133.505C87.2094 133.523 87.1336 133.511 87.052 133.464C86.9179 133.388 86.813 133.254 86.7313 133.068C86.6497 132.881 86.6089 132.665 86.6089 132.426V132.286C86.6089 132.071 86.6322 131.896 86.6847 131.762C86.7372 131.628 86.8071 131.546 86.9063 131.517C86.9995 131.488 87.1103 131.505 87.2386 131.575L87.2911 131.598ZM87.0462 132.432C87.0112 132.409 86.982 132.409 86.9529 132.426C86.9296 132.444 86.9121 132.467 86.9004 132.508V132.648C86.9004 132.788 86.9121 132.899 86.9412 132.98C86.9704 133.062 87.0054 133.12 87.052 133.144C87.0987 133.173 87.1336 133.155 87.1628 133.109C87.192 133.056 87.2036 132.98 87.2036 132.881C87.2036 132.776 87.192 132.683 87.1628 132.601C87.1278 132.514 87.0928 132.461 87.0462 132.432Z" fill="white"/>
<path d="M88.5036 133.464C88.5036 133.733 88.4686 133.919 88.3928 134.018C88.317 134.117 88.2121 134.129 88.078 134.053C87.9439 133.977 87.8389 133.843 87.7631 133.663C87.6873 133.482 87.6523 133.26 87.6465 132.998V132.631C87.6465 132.362 87.6815 132.176 87.7573 132.077C87.8331 131.978 87.938 131.966 88.0721 132.042C88.2062 132.123 88.3112 132.252 88.387 132.432C88.4628 132.613 88.4978 132.84 88.4978 133.103V133.464H88.5036ZM88.2179 132.899C88.2179 132.747 88.2062 132.625 88.1829 132.531C88.1596 132.444 88.1246 132.38 88.078 132.357C87.9847 132.304 87.938 132.421 87.938 132.695V133.179C87.938 133.336 87.9497 133.458 87.973 133.552C87.9963 133.639 88.0313 133.703 88.0838 133.727C88.1304 133.756 88.1654 133.738 88.1887 133.68C88.2121 133.622 88.2237 133.517 88.2237 133.371V132.899H88.2179Z" fill="white"/>
<path d="M88.6958 132.805C88.6958 132.689 88.7191 132.601 88.7716 132.555C88.8182 132.508 88.8882 132.508 88.9698 132.555C89.0515 132.601 89.1214 132.677 89.1681 132.782C89.2206 132.887 89.2439 132.998 89.2439 133.126V133.225C89.2439 133.348 89.2206 133.429 89.1681 133.476C89.1156 133.523 89.0515 133.517 88.9698 133.47C88.8882 133.423 88.8182 133.348 88.7716 133.243C88.7191 133.138 88.6958 133.027 88.6958 132.899V132.805ZM88.8824 133.015C88.8824 133.068 88.8882 133.114 88.9057 133.161C88.9232 133.202 88.9465 133.231 88.9698 133.249C88.999 133.266 89.0165 133.26 89.034 133.237C89.0515 133.214 89.0573 133.173 89.0573 133.12V133.021C89.0573 132.969 89.0515 132.922 89.034 132.881C89.0165 132.84 88.999 132.811 88.9698 132.794C88.9407 132.776 88.9232 132.782 88.9057 132.805C88.8882 132.829 88.8824 132.87 88.8824 132.922V133.015ZM89.0223 134.42L88.8882 134.24L89.4888 133.062L89.6229 133.243L89.0223 134.42ZM89.273 134.234C89.273 134.111 89.2964 134.03 89.3488 133.983C89.4013 133.937 89.4655 133.942 89.5471 133.989C89.6287 134.036 89.6987 134.111 89.7453 134.216C89.7978 134.316 89.8211 134.432 89.8211 134.56V134.66C89.8211 134.782 89.7978 134.864 89.7453 134.91C89.6929 134.957 89.6287 134.957 89.5471 134.904C89.4596 134.858 89.3955 134.782 89.343 134.677C89.2964 134.572 89.2672 134.461 89.2672 134.339V134.234H89.273ZM89.4596 134.444C89.4596 134.496 89.4713 134.543 89.4888 134.584C89.5063 134.63 89.5296 134.66 89.5529 134.671C89.6112 134.706 89.6404 134.665 89.6404 134.56V134.438C89.6404 134.386 89.6345 134.339 89.6171 134.298C89.5996 134.257 89.5762 134.228 89.5529 134.211C89.4946 134.176 89.4655 134.228 89.4655 134.362V134.444H89.4596Z" fill="white"/>
<path d="M87.431 124.975C87.431 125.068 87.4135 125.144 87.3844 125.202C87.3552 125.261 87.3144 125.295 87.2619 125.307C87.3202 125.389 87.3727 125.476 87.4019 125.575C87.4368 125.674 87.4543 125.779 87.4543 125.89C87.4543 126.065 87.4194 126.182 87.3436 126.234C87.2678 126.293 87.1686 126.281 87.0345 126.211C86.9062 126.135 86.8013 126.024 86.7255 125.884C86.6497 125.739 86.6089 125.581 86.6089 125.406C86.6089 125.295 86.6264 125.214 86.6614 125.156C86.6963 125.097 86.743 125.062 86.8071 125.051C86.7547 124.975 86.7138 124.893 86.6789 124.8C86.6497 124.707 86.6322 124.619 86.6322 124.52C86.6322 124.351 86.6672 124.234 86.7372 124.182C86.8071 124.129 86.9063 124.135 87.0229 124.205C87.1453 124.275 87.2386 124.38 87.3144 124.52C87.396 124.648 87.431 124.806 87.431 124.975ZM87.0404 125.89C87.0812 125.914 87.1162 125.908 87.1395 125.873C87.1628 125.838 87.1745 125.774 87.1745 125.692C87.1745 125.61 87.1628 125.529 87.1395 125.465C87.1162 125.4 87.0812 125.36 87.0404 125.33C86.9995 125.307 86.9646 125.313 86.9412 125.348C86.9179 125.383 86.9063 125.441 86.9063 125.529C86.9063 125.616 86.9179 125.692 86.9412 125.75C86.9587 125.82 86.9937 125.867 87.0404 125.89ZM87.1453 124.829C87.1453 124.753 87.1336 124.689 87.1162 124.631C87.0987 124.572 87.0695 124.537 87.0287 124.514C86.9937 124.491 86.9646 124.497 86.9471 124.532C86.9296 124.567 86.9179 124.619 86.9179 124.701C86.9179 124.777 86.9296 124.847 86.9471 124.905C86.9646 124.963 86.9937 125.004 87.0287 125.021C87.0637 125.045 87.0928 125.033 87.1103 124.998C87.1395 124.963 87.1453 124.905 87.1453 124.829Z" fill="white"/>
<path d="M88.5036 126.217C88.5036 126.485 88.4686 126.671 88.3928 126.77C88.317 126.87 88.2121 126.881 88.078 126.805C87.9439 126.73 87.8389 126.596 87.7631 126.415C87.6873 126.234 87.6523 126.012 87.6465 125.75V125.383C87.6465 125.115 87.6815 124.928 87.7573 124.829C87.8331 124.73 87.938 124.718 88.0721 124.794C88.2062 124.875 88.3112 125.004 88.387 125.184C88.4628 125.365 88.4978 125.593 88.4978 125.855V126.217H88.5036ZM88.2179 125.657C88.2179 125.505 88.2062 125.383 88.1829 125.289C88.1596 125.202 88.1246 125.138 88.078 125.115C87.9847 125.062 87.938 125.179 87.938 125.453V125.937C87.938 126.094 87.9497 126.217 87.973 126.31C87.9963 126.397 88.0313 126.461 88.0838 126.485C88.1304 126.514 88.1654 126.496 88.1887 126.438C88.2121 126.38 88.2237 126.275 88.2237 126.129V125.657H88.2179Z" fill="white"/>
<path d="M88.6958 125.558C88.6958 125.441 88.7191 125.354 88.7716 125.307C88.8182 125.26 88.8882 125.26 88.9698 125.307C89.0515 125.354 89.1214 125.43 89.1681 125.535C89.2206 125.639 89.2439 125.75 89.2439 125.879V125.978C89.2439 126.1 89.2206 126.182 89.1681 126.228C89.1156 126.275 89.0515 126.269 88.9698 126.223C88.8882 126.176 88.8182 126.1 88.7716 125.995C88.7191 125.89 88.6958 125.779 88.6958 125.651V125.558ZM88.8824 125.768C88.8824 125.82 88.8882 125.867 88.9057 125.908C88.9232 125.949 88.9465 125.978 88.9698 125.995C88.999 126.013 89.0165 126.007 89.034 125.984C89.0515 125.96 89.0573 125.919 89.0573 125.867V125.768C89.0573 125.715 89.0515 125.669 89.034 125.628C89.0165 125.587 88.999 125.558 88.9698 125.54C88.9407 125.523 88.9232 125.529 88.9057 125.552C88.8882 125.575 88.8824 125.616 88.8824 125.669V125.768ZM89.0223 127.179L88.8882 126.998L89.4888 125.82L89.6229 126.001L89.0223 127.179ZM89.273 126.992C89.273 126.87 89.2964 126.788 89.3488 126.741C89.4013 126.695 89.4655 126.701 89.5471 126.747C89.6287 126.794 89.6987 126.87 89.7453 126.975C89.7978 127.074 89.8211 127.19 89.8211 127.319V127.418C89.8211 127.54 89.7978 127.622 89.7453 127.669C89.6987 127.715 89.6287 127.715 89.5471 127.663C89.4596 127.616 89.3955 127.54 89.343 127.435C89.2964 127.33 89.2672 127.22 89.2672 127.097V126.992H89.273ZM89.4596 127.202C89.4596 127.255 89.4713 127.301 89.4888 127.342C89.5063 127.389 89.5296 127.418 89.5529 127.43C89.6112 127.464 89.6404 127.424 89.6404 127.319V127.196C89.6404 127.144 89.6345 127.097 89.6171 127.056C89.5996 127.016 89.5762 126.986 89.5529 126.969C89.4946 126.934 89.4655 126.986 89.4655 127.12V127.202H89.4596Z" fill="white"/>
<path d="M86.714 118.748L86.4283 118.584V117.092L86.1484 117.074V116.759L86.6849 116.777L86.714 116.794V118.748Z" fill="white"/>
<path d="M87.985 118.672C87.985 118.94 87.9501 119.127 87.8743 119.226C87.7985 119.325 87.6935 119.337 87.5594 119.261C87.4253 119.185 87.3203 119.051 87.2445 118.87C87.1687 118.69 87.1338 118.468 87.1279 118.206V117.838C87.1279 117.57 87.1629 117.384 87.2387 117.284C87.3145 117.185 87.4195 117.174 87.5536 117.249C87.6877 117.331 87.7926 117.459 87.8684 117.64C87.9442 117.821 87.9792 118.048 87.9792 118.311V118.672H87.985ZM87.6993 118.112C87.6993 117.961 87.6877 117.838 87.6644 117.745C87.641 117.658 87.606 117.593 87.5594 117.57C87.4661 117.518 87.4195 117.634 87.4195 117.908V118.392C87.4195 118.55 87.4311 118.672 87.4544 118.765C87.4778 118.853 87.5128 118.917 87.5652 118.94C87.6119 118.969 87.6469 118.952 87.6702 118.894C87.6935 118.835 87.7052 118.73 87.7052 118.585V118.112H87.6993Z" fill="white"/>
<path d="M89.0224 119.272C89.0224 119.541 88.9874 119.727 88.9116 119.826C88.8358 119.925 88.7309 119.937 88.5968 119.861C88.4626 119.786 88.3577 119.651 88.2819 119.471C88.2061 119.29 88.1711 119.068 88.1653 118.806V118.439C88.1653 118.17 88.2003 117.984 88.2761 117.885C88.3519 117.786 88.4568 117.774 88.5909 117.85C88.725 117.931 88.83 118.06 88.9058 118.24C88.9816 118.421 89.0166 118.649 89.0166 118.911V119.272H89.0224ZM88.7367 118.713C88.7367 118.561 88.725 118.439 88.7017 118.345C88.6784 118.258 88.6434 118.194 88.5968 118.17C88.5035 118.118 88.4568 118.235 88.4568 118.509V118.993C88.4568 119.15 88.4685 119.272 88.4918 119.366C88.5151 119.453 88.5501 119.517 88.6026 119.541C88.6492 119.57 88.6842 119.552 88.7075 119.494C88.7309 119.436 88.7425 119.331 88.7425 119.185V118.713H88.7367Z" fill="white"/>
<path d="M89.2148 118.614C89.2148 118.497 89.2382 118.409 89.2906 118.363C89.3373 118.316 89.4073 118.316 89.4889 118.363C89.5705 118.409 89.6405 118.485 89.6871 118.59C89.7396 118.695 89.7629 118.806 89.7629 118.934V119.033C89.7629 119.156 89.7396 119.237 89.6871 119.284C89.6347 119.331 89.5705 119.325 89.4889 119.278C89.4073 119.232 89.3373 119.156 89.2906 119.051C89.2382 118.946 89.2148 118.835 89.2148 118.707V118.614ZM89.4014 118.823C89.4014 118.876 89.4073 118.923 89.4247 118.963C89.4422 119.004 89.4656 119.033 89.4889 119.051C89.518 119.068 89.5355 119.062 89.553 119.039C89.5705 119.016 89.5763 118.975 89.5763 118.923V118.823C89.5763 118.771 89.5705 118.724 89.553 118.683C89.5355 118.643 89.5122 118.614 89.4889 118.596C89.4597 118.579 89.4422 118.584 89.4247 118.608C89.4073 118.631 89.4014 118.672 89.4014 118.724V118.823ZM89.5414 120.234L89.4073 120.054L90.0078 118.876L90.1419 119.057L89.5414 120.234ZM89.7921 120.048C89.7921 119.925 89.8154 119.844 89.8679 119.797C89.9204 119.75 89.9845 119.756 90.0661 119.803C90.1478 119.85 90.2177 119.925 90.2644 120.03C90.3168 120.129 90.3402 120.246 90.3402 120.374V120.474C90.3402 120.596 90.3168 120.678 90.2644 120.724C90.2177 120.771 90.1478 120.771 90.0661 120.718C89.9787 120.672 89.9145 120.596 89.862 120.491C89.8096 120.386 89.7862 120.275 89.7862 120.153V120.048H89.7921ZM89.9787 120.258C89.9787 120.31 89.9903 120.357 90.0078 120.398C90.0253 120.444 90.0486 120.474 90.072 120.485C90.1303 120.52 90.1594 120.479 90.1594 120.374V120.252C90.1594 120.199 90.1536 120.153 90.1361 120.112C90.1186 120.071 90.0953 120.042 90.072 120.025C90.0136 119.99 89.9845 120.042 89.9845 120.176V120.258H89.9787Z" fill="white"/>
<path d="M92.9125 163.877L92.6268 163.714V162.221L92.3469 162.204V161.889L92.8834 161.906L92.9125 161.924V163.877Z" fill="white"/>
<path d="M97.9087 166.763L97.0458 166.268V166L97.4422 165.556C97.4947 165.492 97.5297 165.434 97.553 165.376C97.5763 165.317 97.588 165.259 97.588 165.195C97.588 165.108 97.5763 165.032 97.553 164.973C97.5297 164.909 97.5005 164.868 97.4539 164.845C97.4073 164.816 97.3723 164.828 97.3431 164.868C97.314 164.909 97.3023 164.985 97.3023 165.084L97.0166 164.921C97.0166 164.798 97.0341 164.705 97.0749 164.624C97.1099 164.548 97.1624 164.501 97.2323 164.484C97.3023 164.466 97.3781 164.484 97.4597 164.536C97.588 164.612 97.693 164.717 97.7629 164.857C97.8329 164.997 97.8737 165.154 97.8737 165.329C97.8737 165.44 97.8562 165.539 97.8154 165.626C97.7746 165.714 97.7046 165.813 97.5997 165.918L97.4131 166.169L97.9087 166.454V166.763Z" fill="white"/>
<path d="M102.06 168.011L102.2 168.093C102.252 168.122 102.293 168.122 102.316 168.087C102.34 168.052 102.351 167.994 102.351 167.912C102.351 167.836 102.34 167.766 102.316 167.708C102.293 167.65 102.258 167.609 102.217 167.585C102.176 167.562 102.147 167.562 102.118 167.591C102.095 167.62 102.083 167.661 102.083 167.725L101.797 167.562C101.797 167.463 101.815 167.381 101.85 167.317C101.885 167.259 101.931 167.224 101.996 167.212C102.06 167.201 102.13 167.224 102.205 167.265C102.34 167.341 102.445 167.451 102.52 167.597C102.596 167.743 102.637 167.9 102.637 168.069C102.637 168.157 102.619 168.233 102.584 168.285C102.549 168.343 102.503 168.373 102.45 168.378C102.52 168.46 102.573 168.547 102.602 168.647C102.637 168.746 102.654 168.845 102.654 168.956C102.654 169.131 102.614 169.241 102.532 169.3C102.45 169.358 102.34 169.346 102.205 169.27C102.083 169.201 101.978 169.09 101.902 168.938C101.826 168.792 101.786 168.629 101.786 168.466L102.071 168.629C102.071 168.699 102.083 168.763 102.112 168.827C102.141 168.891 102.176 168.932 102.217 168.961C102.264 168.991 102.305 168.991 102.334 168.956C102.363 168.926 102.375 168.868 102.375 168.787C102.375 168.594 102.316 168.466 102.205 168.402L102.066 168.32V168.011H102.06Z" fill="white"/>
<path d="M107.32 171.463L107.442 171.533V171.848L107.32 171.778V172.198L107.034 172.034V171.615L106.55 171.335L106.539 171.084L107.034 170.087L107.32 170.25V171.463ZM106.813 171.166L107.034 171.294V170.641L107.028 170.652L106.813 171.166Z" fill="white"/>
<path d="M111.36 173.568L111.43 172.617L112.142 173.026V173.352L111.663 173.078L111.64 173.48C111.693 173.463 111.751 173.469 111.809 173.504C111.932 173.574 112.025 173.684 112.089 173.836C112.153 173.988 112.188 174.168 112.188 174.378C112.188 174.577 112.147 174.711 112.072 174.786C111.996 174.862 111.891 174.862 111.763 174.786C111.687 174.74 111.617 174.676 111.547 174.588C111.483 174.501 111.43 174.402 111.389 174.297C111.354 174.186 111.331 174.081 111.331 173.97L111.611 174.133C111.617 174.215 111.628 174.291 111.658 174.349C111.681 174.407 111.716 174.448 111.757 174.472C111.803 174.501 111.838 174.489 111.867 174.442C111.891 174.396 111.908 174.314 111.908 174.192C111.908 174.081 111.891 173.988 111.862 173.912C111.832 173.836 111.786 173.784 111.733 173.754C111.681 173.725 111.64 173.725 111.611 173.754L111.593 173.778L111.36 173.568Z" fill="white"/>
<path d="M116.77 175.684V176.005L116.753 175.993C116.648 175.935 116.56 175.929 116.496 175.976C116.432 176.022 116.397 176.122 116.38 176.267C116.438 176.209 116.52 176.209 116.607 176.262C116.712 176.32 116.799 176.431 116.864 176.588C116.928 176.745 116.957 176.926 116.957 177.124C116.957 177.253 116.939 177.358 116.904 177.439C116.869 177.521 116.817 177.573 116.753 177.591C116.689 177.608 116.613 177.597 116.531 177.55C116.397 177.474 116.292 177.34 116.211 177.154C116.129 176.967 116.088 176.751 116.088 176.512V176.372C116.088 176.157 116.111 175.982 116.164 175.853C116.216 175.719 116.286 175.638 116.385 175.608C116.485 175.579 116.59 175.597 116.718 175.667L116.77 175.684ZM116.525 176.518C116.49 176.495 116.461 176.495 116.432 176.512C116.409 176.53 116.391 176.553 116.38 176.594V176.734C116.38 176.874 116.391 176.985 116.42 177.066C116.45 177.148 116.485 177.206 116.531 177.229C116.578 177.259 116.613 177.241 116.642 177.194C116.671 177.142 116.683 177.066 116.683 176.967C116.683 176.862 116.671 176.769 116.642 176.687C116.613 176.6 116.572 176.547 116.525 176.518Z" fill="white"/>
<path d="M121.715 178.775L121.255 180.238L120.952 180.063L121.418 178.693L120.829 178.355V178.04L121.715 178.553V178.775Z" fill="white"/>
<path d="M126.438 181.801C126.438 181.894 126.421 181.97 126.391 182.028C126.362 182.086 126.321 182.121 126.269 182.133C126.327 182.215 126.374 182.302 126.409 182.401C126.444 182.5 126.461 182.605 126.461 182.716C126.461 182.891 126.426 183.008 126.351 183.06C126.275 183.118 126.176 183.107 126.042 183.037C125.913 182.961 125.808 182.85 125.733 182.71C125.657 182.564 125.616 182.407 125.616 182.232C125.616 182.121 125.633 182.04 125.668 181.981C125.703 181.923 125.75 181.888 125.814 181.876C125.762 181.801 125.721 181.719 125.686 181.626C125.657 181.532 125.639 181.445 125.639 181.346C125.639 181.177 125.674 181.06 125.744 181.008C125.814 180.955 125.913 180.961 126.03 181.031C126.152 181.101 126.246 181.206 126.321 181.346C126.403 181.48 126.438 181.631 126.438 181.801ZM126.042 182.716C126.082 182.739 126.117 182.733 126.141 182.698C126.164 182.663 126.176 182.599 126.176 182.518C126.176 182.43 126.164 182.354 126.141 182.29C126.117 182.226 126.082 182.185 126.042 182.156C126.001 182.133 125.966 182.139 125.942 182.174C125.919 182.209 125.908 182.267 125.908 182.354C125.908 182.442 125.919 182.518 125.942 182.576C125.966 182.652 126.001 182.693 126.042 182.716ZM126.152 181.655C126.152 181.579 126.141 181.515 126.123 181.457C126.106 181.398 126.077 181.363 126.036 181.34C126.001 181.317 125.972 181.322 125.954 181.357C125.937 181.392 125.925 181.445 125.925 181.527C125.925 181.602 125.937 181.672 125.954 181.731C125.972 181.789 126.001 181.83 126.036 181.847C126.071 181.871 126.1 181.859 126.117 181.824C126.147 181.789 126.152 181.736 126.152 181.655Z" fill="white"/>
<path d="M130.927 185.072C130.869 185.118 130.799 185.124 130.729 185.083C130.618 185.019 130.531 184.908 130.467 184.751C130.403 184.594 130.374 184.419 130.374 184.22C130.374 184.092 130.391 183.987 130.426 183.9C130.461 183.812 130.513 183.76 130.578 183.737C130.642 183.713 130.712 183.725 130.793 183.772C130.875 183.818 130.951 183.894 131.015 183.999C131.079 184.104 131.132 184.226 131.167 184.366C131.201 184.506 131.219 184.658 131.219 184.815V184.955C131.219 185.288 131.167 185.515 131.056 185.637C130.945 185.76 130.793 185.766 130.589 185.655L130.56 185.637V185.311L130.578 185.322C130.688 185.387 130.77 185.398 130.828 185.352C130.887 185.305 130.922 185.212 130.927 185.072ZM130.805 184.827C130.857 184.856 130.904 184.833 130.933 184.751V184.576C130.933 184.448 130.922 184.343 130.892 184.25C130.869 184.162 130.834 184.104 130.793 184.081C130.753 184.057 130.718 184.075 130.694 184.133C130.671 184.191 130.659 184.273 130.659 184.372C130.659 184.483 130.671 184.582 130.7 184.664C130.723 184.745 130.758 184.798 130.805 184.827Z" fill="white"/>
<path d="M135.767 188.623L135.481 188.459V186.967L135.201 186.949V186.634L135.738 186.652L135.767 186.669V188.623Z" fill="white"/>
<path d="M137.033 188.547C137.033 188.815 136.998 189.001 136.922 189.101C136.846 189.2 136.741 189.211 136.607 189.136C136.473 189.06 136.368 188.926 136.292 188.745C136.217 188.564 136.182 188.343 136.176 188.08V187.713C136.176 187.445 136.211 187.258 136.287 187.159C136.362 187.06 136.467 187.048 136.601 187.124C136.736 187.206 136.84 187.334 136.916 187.515C136.992 187.695 137.027 187.923 137.027 188.185V188.547H137.033ZM136.747 187.987C136.747 187.835 136.736 187.713 136.712 187.62C136.689 187.532 136.654 187.468 136.607 187.445C136.514 187.392 136.467 187.509 136.467 187.783V188.267C136.467 188.424 136.479 188.547 136.502 188.64C136.526 188.727 136.561 188.792 136.613 188.815C136.66 188.844 136.695 188.827 136.718 188.768C136.741 188.71 136.753 188.605 136.753 188.459V187.987H136.747Z" fill="white"/>
<path d="M140.531 191.369L140.245 191.206V189.713L139.966 189.695V189.381L140.502 189.398L140.531 189.416V191.369Z" fill="white"/>
<path d="M141.569 191.969L141.283 191.806V190.313L141.003 190.296V189.981L141.54 189.998L141.569 190.016V191.969Z" fill="white"/>
<path d="M145.289 194.121L145.003 193.958V192.465L144.723 192.447V192.133L145.26 192.15L145.289 192.168V194.121Z" fill="white"/>
<path d="M146.566 194.855L145.703 194.36V194.092L146.1 193.648C146.152 193.584 146.187 193.526 146.211 193.468C146.234 193.409 146.246 193.351 146.246 193.287C146.246 193.2 146.234 193.124 146.211 193.065C146.187 193.001 146.158 192.96 146.112 192.937C146.065 192.908 146.03 192.92 146.001 192.96C145.972 193.001 145.96 193.077 145.96 193.176L145.674 193.013C145.674 192.891 145.692 192.797 145.733 192.716C145.773 192.634 145.82 192.593 145.89 192.576C145.96 192.558 146.036 192.576 146.117 192.628C146.246 192.704 146.351 192.809 146.421 192.949C146.491 193.089 146.531 193.246 146.531 193.421C146.531 193.532 146.514 193.631 146.473 193.718C146.432 193.806 146.362 193.905 146.257 194.01L146.071 194.261L146.566 194.546V194.855Z" fill="white"/>
<path fill-rule="evenodd" clip-rule="evenodd" d="M52.6302 110.632C52.6302 112.512 51.4863 113.372 50.0822 112.562C48.6781 111.751 47.5342 109.567 47.5342 107.691C47.5342 105.816 48.6781 104.952 50.0822 105.762C51.4863 106.572 52.6302 108.752 52.6302 110.632Z" fill="#FF2C9C"/>
<path fill-rule="evenodd" clip-rule="evenodd" d="M52.2724 110.426C52.2724 112.041 51.2905 112.787 50.0778 112.085C48.8652 111.383 47.8833 109.508 47.8833 107.893C47.8833 106.277 48.8652 105.531 50.0778 106.233C51.2905 106.93 52.2724 108.811 52.2724 110.426Z" fill="#FF6BB9"/>
<path fill-rule="evenodd" clip-rule="evenodd" d="M51.6486 110.063C51.6486 111.216 50.9466 111.747 50.0825 111.246C49.2184 110.745 48.5164 109.405 48.5164 108.251C48.5164 107.097 49.2184 106.567 50.0825 107.068C50.9466 107.569 51.6486 108.909 51.6486 110.063Z" fill="url(#paint6_linear)"/>
<path fill-rule="evenodd" clip-rule="evenodd" d="M52.6498 122.444C52.6498 124.32 51.5058 125.184 50.1017 124.374C48.6927 123.559 47.5537 121.379 47.5537 119.504C47.5537 117.623 48.6976 116.764 50.1017 117.574C51.5058 118.384 52.6498 120.564 52.6498 122.444Z" fill="#3BB9FF"/>
<path fill-rule="evenodd" clip-rule="evenodd" d="M52.2963 122.238C52.2963 123.853 51.3144 124.6 50.1018 123.898C48.8891 123.195 47.9072 121.32 47.9072 119.705C47.9072 118.09 48.8891 117.343 50.1018 118.045C51.3144 118.743 52.2963 120.623 52.2963 122.238Z" fill="url(#paint7_linear)"/>
<path fill-rule="evenodd" clip-rule="evenodd" d="M51.6679 121.875C51.6679 123.029 50.9658 123.559 50.1018 123.058C49.2377 122.557 48.5356 121.217 48.5356 120.063C48.5356 118.91 49.2377 118.379 50.1018 118.88C50.9658 119.381 51.6679 120.721 51.6679 121.875Z" fill="#3BB9FF"/>
<path fill-rule="evenodd" clip-rule="evenodd" d="M52.6302 134.257C52.6302 136.137 51.4863 136.996 50.0822 136.186C48.6781 135.376 47.5342 133.191 47.5342 131.316C47.5342 129.44 48.6781 128.576 50.0822 129.386C51.4863 130.196 52.6302 132.376 52.6302 134.257Z" fill="#3BB9FF"/>
<path fill-rule="evenodd" clip-rule="evenodd" d="M52.2724 134.05C52.2724 135.666 51.2905 136.412 50.0778 135.71C48.8652 135.008 47.8833 133.132 47.8833 131.517C47.8833 129.902 48.8652 129.156 50.0778 129.858C51.2905 130.555 52.2724 132.435 52.2724 134.05Z" fill="url(#paint8_linear)"/>
<path fill-rule="evenodd" clip-rule="evenodd" d="M51.6486 133.687C51.6486 134.841 50.9466 135.371 50.0825 134.87C49.2184 134.37 48.5164 133.029 48.5164 131.876C48.5164 130.722 49.2184 130.192 50.0825 130.692C50.9466 131.193 51.6486 132.533 51.6486 133.687Z" fill="#3BB9FF"/>
<path fill-rule="evenodd" clip-rule="evenodd" d="M64.6048 118.109L57.5155 114.02C57.0246 113.735 56.6318 112.979 56.6318 112.326C56.6318 111.673 57.0295 111.373 57.5155 111.658L64.6048 115.748C65.0958 116.033 65.4885 116.789 65.4885 117.442C65.4885 118.095 65.0909 118.394 64.6048 118.109Z" fill="url(#paint9_linear)"/>
<path fill-rule="evenodd" clip-rule="evenodd" d="M75.0711 124.153L67.9819 120.063C67.4909 119.778 67.0981 119.022 67.0981 118.369C67.0981 117.716 67.4958 117.417 67.9819 117.702L75.0711 121.791C75.5621 122.076 75.9549 122.832 75.9549 123.485C75.9598 124.138 75.5621 124.438 75.0711 124.153Z" fill="#FF2C9C"/>
<path d="M64.8576 129.495L64.8576 129.495L64.8547 129.493L57.7664 125.404C57.7662 125.404 57.7661 125.404 57.7659 125.404C57.6272 125.323 57.464 125.148 57.333 124.897C57.204 124.649 57.1318 124.376 57.1318 124.143C57.1318 124.029 57.1495 123.951 57.1676 123.904C57.1733 123.89 57.1787 123.879 57.1832 123.871C57.1994 123.875 57.2259 123.885 57.2628 123.907L57.2628 123.907L57.2657 123.908L64.354 127.997C64.3541 127.998 64.3541 127.998 64.3542 127.998C64.493 128.078 64.6563 128.253 64.7874 128.505C64.9164 128.752 64.9885 129.026 64.9885 129.259C64.9885 129.373 64.9709 129.451 64.9528 129.497C64.947 129.512 64.9416 129.523 64.9372 129.531C64.921 129.526 64.8945 129.517 64.8576 129.495Z" fill="url(#paint10_linear)"/>
<path d="M64.8576 129.495L64.8576 129.495L64.8547 129.493L57.7664 125.404C57.7662 125.404 57.7661 125.404 57.7659 125.404C57.6272 125.323 57.464 125.148 57.333 124.897C57.204 124.649 57.1318 124.376 57.1318 124.143C57.1318 124.029 57.1495 123.951 57.1676 123.904C57.1733 123.89 57.1787 123.879 57.1832 123.871C57.1994 123.875 57.2259 123.885 57.2628 123.907L57.2628 123.907L57.2657 123.908L64.354 127.997C64.3541 127.998 64.3541 127.998 64.3542 127.998C64.493 128.078 64.6563 128.253 64.7874 128.505C64.9164 128.752 64.9885 129.026 64.9885 129.259C64.9885 129.373 64.9709 129.451 64.9528 129.497C64.947 129.512 64.9416 129.523 64.9372 129.531C64.921 129.526 64.8945 129.517 64.8576 129.495Z" fill="url(#paint11_linear)"/>
<path d="M64.8576 129.495L64.8576 129.495L64.8547 129.493L57.7664 125.404C57.7662 125.404 57.7661 125.404 57.7659 125.404C57.6272 125.323 57.464 125.148 57.333 124.897C57.204 124.649 57.1318 124.376 57.1318 124.143C57.1318 124.029 57.1495 123.951 57.1676 123.904C57.1733 123.89 57.1787 123.879 57.1832 123.871C57.1994 123.875 57.2259 123.885 57.2628 123.907L57.2628 123.907L57.2657 123.908L64.354 127.997C64.3541 127.998 64.3541 127.998 64.3542 127.998C64.493 128.078 64.6563 128.253 64.7874 128.505C64.9164 128.752 64.9885 129.026 64.9885 129.259C64.9885 129.373 64.9709 129.451 64.9528 129.497C64.947 129.512 64.9416 129.523 64.9372 129.531C64.921 129.526 64.8945 129.517 64.8576 129.495Z" stroke="url(#paint12_linear)"/>
<path fill-rule="evenodd" clip-rule="evenodd" d="M75.0716 135.975L67.9872 131.881C67.4963 131.596 67.1035 130.84 67.1035 130.187C67.1035 129.534 67.5012 129.234 67.9872 129.519L75.0765 133.609C75.5675 133.893 75.9602 134.649 75.9602 135.302C75.9602 135.955 75.5626 136.255 75.0716 135.975Z" fill="url(#paint13_linear)"/>
<path fill-rule="evenodd" clip-rule="evenodd" d="M64.6048 141.969L57.5155 137.88C57.0246 137.595 56.6318 136.839 56.6318 136.186C56.6318 135.533 57.0295 135.234 57.5155 135.518L64.6048 139.608C65.0958 139.893 65.4885 140.649 65.4885 141.302C65.4885 141.95 65.0909 142.249 64.6048 141.969Z" fill="url(#paint14_linear)"/>
<path fill-rule="evenodd" clip-rule="evenodd" d="M75.0711 148.013L67.9819 143.923C67.4909 143.639 67.0981 142.883 67.0981 142.23C67.0981 141.577 67.4958 141.277 67.9819 141.562L75.0711 145.652C75.5621 145.936 75.9549 146.692 75.9549 147.345C75.9598 147.993 75.5621 148.298 75.0711 148.013Z" fill="url(#paint15_linear)"/>
<path opacity="0.5" d="M99.6448 113.871C99.4318 113.871 99.2133 113.817 99.0112 113.702C95.4939 111.67 92.7412 106.454 92.7412 101.828C92.7412 99.1794 93.6806 97.1149 95.3246 96.17C96.7555 95.3453 98.5197 95.449 100.284 96.4649C100.89 96.8145 101.098 97.59 100.748 98.2017C100.398 98.808 99.6175 99.0155 99.0112 98.666C98.3394 98.2782 97.3782 97.9123 96.5917 98.3711C95.767 98.8462 95.2754 100.141 95.2754 101.828C95.2754 105.504 97.5639 109.933 100.278 111.501C100.885 111.851 101.092 112.626 100.743 113.238C100.513 113.642 100.087 113.871 99.6448 113.871Z" fill="#3BB9FF"/>
<path fill-rule="evenodd" clip-rule="evenodd" d="M101.344 98.5457C101.344 99.7964 100.585 100.37 99.6454 99.8292C98.706 99.2885 97.9468 97.8357 97.9468 96.5849C97.9468 95.3342 98.706 94.7607 99.6454 95.3014C100.585 95.8421 101.344 97.295 101.344 98.5457Z" fill="#3BB9FF"/>
<path opacity="0.5" d="M122.578 124.844C122.201 124.844 121.83 124.675 121.579 124.358C121.147 123.806 121.24 123.009 121.792 122.572C122.502 122.015 122.911 120.802 122.911 119.246C122.911 115.57 120.623 111.141 117.909 109.573C117.237 109.185 116.276 108.825 115.489 109.278C114.664 109.753 114.173 111.048 114.173 112.735C114.173 116.411 116.461 120.84 119.176 122.408C119.782 122.758 119.989 123.533 119.64 124.145C119.29 124.751 118.515 124.959 117.903 124.609C114.386 122.577 111.633 117.361 111.633 112.735C111.633 110.086 112.572 108.022 114.216 107.077C115.653 106.247 117.412 106.356 119.176 107.372C122.693 109.404 125.446 114.62 125.446 119.246C125.446 121.616 124.703 123.511 123.354 124.571C123.13 124.757 122.851 124.844 122.578 124.844Z" fill="#3BB9FF"/>
<path fill-rule="evenodd" clip-rule="evenodd" d="M124.278 124.554C124.278 125.805 123.519 126.378 122.579 125.838C121.64 125.297 120.881 123.844 120.881 122.593C120.881 121.343 121.64 120.769 122.579 121.31C123.519 121.851 124.278 123.304 124.278 124.554Z" fill="#3BB9FF"/>
<g opacity="0.8">
<path opacity="0.5" d="M138.903 136.537C138.69 136.537 138.472 136.483 138.27 136.368C134.752 134.336 132 129.12 132 124.494C132 121.845 132.939 119.781 134.583 118.836C136.019 118.011 137.778 118.115 139.542 119.131C141.787 120.425 143.802 123.08 144.933 126.231C145.168 126.892 144.829 127.618 144.168 127.853C143.507 128.094 142.781 127.749 142.546 127.089C141.628 124.527 139.99 122.321 138.275 121.332C137.603 120.944 136.642 120.578 135.855 121.037C135.031 121.512 134.539 122.807 134.539 124.494C134.539 128.17 136.828 132.599 139.542 134.167C140.148 134.517 140.356 135.292 140.006 135.904C139.766 136.308 139.34 136.537 138.903 136.537Z" fill="#3BB9FF"/>
</g>
<path fill-rule="evenodd" clip-rule="evenodd" d="M145.436 127.526C145.436 128.776 144.677 129.35 143.737 128.809C142.798 128.268 142.039 126.816 142.039 125.565C142.039 124.314 142.798 123.741 143.737 124.281C144.671 124.817 145.436 126.275 145.436 127.526Z" fill="#3BB9FF"/>
<rect opacity="0.2" width="33.0964" height="33.0964" rx="5" transform="matrix(0.866025 0.5 -2.20305e-08 1 42.4126 160.226)" fill="#3BB9FF"/>
<rect width="33.0964" height="33.0964" rx="6" transform="matrix(0.866025 0.5 -2.20305e-08 1 40 160.925)" fill="url(#paint16_linear)"/>
<path d="M53.5448 185.537L58.5804 179.407L48.5093 173.595L53.5448 185.537Z" fill="#199DE7"/>
<path d="M58.5798 179.407L48.5171 173.595C48.5171 172.459 49.2019 171.941 50.0536 172.434L57.0433 176.468C57.8867 176.96 58.5798 178.271 58.5798 179.407Z" fill="url(#paint17_linear)"/>
<path d="M53.5448 185.537L48.5093 191.658L58.5804 197.47L53.5448 185.537Z" fill="#199DE7"/>
<path d="M48.5093 191.666L58.572 197.478C58.572 198.614 57.8873 199.132 57.0355 198.639L50.0458 194.606C49.2024 194.113 48.5093 192.793 48.5093 191.666Z" fill="url(#paint18_linear)"/>
<rect opacity="0.2" width="42.8616" height="42.8616" rx="5" transform="matrix(0.866025 0.5 -2.20305e-08 1 120.366 30.5701)" fill="url(#paint19_linear)"/>
<rect width="42.8616" height="42.8616" rx="6" transform="matrix(0.866025 0.5 -2.20305e-08 1 116.08 32.7131)" fill="url(#paint20_linear)"/>
<path fill-rule="evenodd" clip-rule="evenodd" d="M137.943 59.1902C137.943 61.8614 136.412 63.1354 134.522 62.0464C132.631 60.9573 131.1 57.9059 131.1 55.245C131.1 52.584 132.631 51.2997 134.522 52.3888C136.412 53.4778 137.943 56.5189 137.943 59.1902Z" fill="url(#paint21_linear)"/>
<path fill-rule="evenodd" clip-rule="evenodd" d="M143.214 75.5669C143.635 77.9402 142.988 79.7997 141.621 80.2415C139.597 80.8888 137.152 80.5498 134.532 79.0292C131.902 77.5086 129.467 75.0429 127.443 72.0531C126.077 70.0394 125.43 67.4298 125.851 65.5394C126.827 61.1524 128.388 61.0702 134.532 64.625C140.676 68.1798 142.238 70.0497 143.214 75.5669Z" fill="url(#paint22_linear)"/>
<rect width="10.7154" height="10.7154" rx="5" transform="matrix(0.866025 0.5 -2.20305e-08 1 101.078 56.287)" fill="url(#paint23_linear)"/>
<defs>
<linearGradient id="paint0_linear" x1="-30.3594" y1="22.3955" x2="150.068" y2="101.843" gradientUnits="userSpaceOnUse">
<stop offset="0.53125" stop-color="#E6F6FF"/>
<stop offset="1" stop-color="#A0D3EF"/>
</linearGradient>
<linearGradient id="paint1_linear" x1="141.415" y1="66.2009" x2="10.3836" y2="99.8946" gradientUnits="userSpaceOnUse">
<stop stop-color="#4F4F4F"/>
<stop offset="1" stop-color="#828282"/>
</linearGradient>
<linearGradient id="paint2_linear" x1="44.1619" y1="3.84163" x2="-7.06921" y2="-19.7538" gradientUnits="userSpaceOnUse">
<stop stop-color="#87D4FE"/>
<stop offset="1" stop-color="#1BADFF"/>
</linearGradient>
<linearGradient id="paint3_linear" x1="21.4842" y1="3.84163" x2="-7.28173" y2="-2.60365" gradientUnits="userSpaceOnUse">
<stop stop-color="#87D4FE"/>
<stop offset="1" stop-color="#1BADFF"/>
</linearGradient>
<linearGradient id="paint4_linear" x1="39.3877" y1="3.84163" x2="-8.00114" y2="-15.6246" gradientUnits="userSpaceOnUse">
<stop stop-color="#87D4FE"/>
<stop offset="1" stop-color="#1BADFF"/>
</linearGradient>
<linearGradient id="paint5_linear" x1="142.3" y1="161.003" x2="136.649" y2="160.686" gradientUnits="userSpaceOnUse">
<stop stop-color="#87D4FE"/>
<stop offset="1" stop-color="#1BADFF"/>
</linearGradient>
<linearGradient id="paint6_linear" x1="48.5107" y1="108.254" x2="51.6464" y2="108.254" gradientUnits="userSpaceOnUse">
<stop stop-color="#FF92CC"/>
<stop offset="1" stop-color="#FF2C9C"/>
</linearGradient>
<linearGradient id="paint7_linear" x1="52.7244" y1="121.799" x2="45.9663" y2="121.474" gradientUnits="userSpaceOnUse">
<stop stop-color="#87D4FE"/>
<stop offset="1" stop-color="#1BADFF"/>
</linearGradient>
<linearGradient id="paint8_linear" x1="52.7005" y1="133.611" x2="45.9424" y2="133.287" gradientUnits="userSpaceOnUse">
<stop stop-color="#87D4FE"/>
<stop offset="1" stop-color="#1BADFF"/>
</linearGradient>
<linearGradient id="paint9_linear" x1="66.3523" y1="115.749" x2="52.8005" y2="114.491" gradientUnits="userSpaceOnUse">
<stop stop-color="#87D4FE"/>
<stop offset="1" stop-color="#1BADFF"/>
</linearGradient>
<linearGradient id="paint10_linear" x1="54.6353" y1="124.877" x2="66.5946" y2="130.014" gradientUnits="userSpaceOnUse">
<stop offset="0.53125" stop-color="#E6F6FF"/>
<stop offset="1" stop-color="#A0D3EF"/>
</linearGradient>
<linearGradient id="paint11_linear" x1="65.9316" y1="127.83" x2="57.2887" y2="129.998" gradientUnits="userSpaceOnUse">
<stop stop-color="#4F4F4F"/>
<stop offset="1" stop-color="#828282"/>
</linearGradient>
<linearGradient id="paint12_linear" x1="66.3523" y1="127.566" x2="52.8005" y2="126.308" gradientUnits="userSpaceOnUse">
<stop stop-color="#87D4FE"/>
<stop offset="1" stop-color="#1BADFF"/>
</linearGradient>
<linearGradient id="paint13_linear" x1="76.824" y1="133.611" x2="63.2721" y2="132.354" gradientUnits="userSpaceOnUse">
<stop stop-color="#87D4FE"/>
<stop offset="1" stop-color="#1BADFF"/>
</linearGradient>
<linearGradient id="paint14_linear" x1="66.3523" y1="139.607" x2="52.8006" y2="138.349" gradientUnits="userSpaceOnUse">
<stop stop-color="#87D4FE"/>
<stop offset="1" stop-color="#1BADFF"/>
</linearGradient>
<linearGradient id="paint15_linear" x1="76.8187" y1="145.652" x2="63.2668" y2="144.395" gradientUnits="userSpaceOnUse">
<stop stop-color="#87D4FE"/>
<stop offset="1" stop-color="#1BADFF"/>
</linearGradient>
<linearGradient id="paint16_linear" x1="36.3244" y1="20.8415" x2="-14.5054" y2="17.2921" gradientUnits="userSpaceOnUse">
<stop stop-color="#87D4FE"/>
<stop offset="1" stop-color="#1BADFF"/>
</linearGradient>
<linearGradient id="paint17_linear" x1="65.6653" y1="181.415" x2="46.3854" y2="168.203" gradientUnits="userSpaceOnUse">
<stop stop-color="#FF2C9C"/>
<stop offset="1" stop-color="white" stop-opacity="0.8"/>
</linearGradient>
<linearGradient id="paint18_linear" x1="65.6575" y1="200.833" x2="46.3776" y2="187.621" gradientUnits="userSpaceOnUse">
<stop stop-color="#FF2C9C"/>
<stop offset="1" stop-color="white" stop-opacity="0.8"/>
</linearGradient>
<linearGradient id="paint19_linear" x1="47.0419" y1="26.9908" x2="-18.7852" y2="22.3942" gradientUnits="userSpaceOnUse">
<stop stop-color="#87D4FE"/>
<stop offset="1" stop-color="#1BADFF"/>
</linearGradient>
<linearGradient id="paint20_linear" x1="47.0419" y1="26.9908" x2="-18.7852" y2="22.3942" gradientUnits="userSpaceOnUse">
<stop stop-color="#87D4FE"/>
<stop offset="1" stop-color="#1BADFF"/>
</linearGradient>
<linearGradient id="paint21_linear" x1="142.761" y1="65.3618" x2="125.281" y2="59.7736" gradientUnits="userSpaceOnUse">
<stop stop-color="#FF2C9C"/>
<stop offset="1" stop-color="white" stop-opacity="0.8"/>
</linearGradient>
<linearGradient id="paint22_linear" x1="155.746" y1="85.7308" x2="114.968" y2="66.7583" gradientUnits="userSpaceOnUse">
<stop stop-color="#FF2C9C"/>
<stop offset="1" stop-color="white" stop-opacity="0.8"/>
</linearGradient>
<linearGradient id="paint23_linear" x1="11.7605" y1="6.74769" x2="-4.69631" y2="5.59854" gradientUnits="userSpaceOnUse">
<stop stop-color="#87D4FE"/>
<stop offset="1" stop-color="#1BADFF"/>
</linearGradient>
</defs>
</svg>
