<svg width="161" height="241" viewBox="0 0 161 241" fill="none" xmlns="http://www.w3.org/2000/svg">
<rect x="1.44128" y="0.790527" width="118.529" height="239" rx="11.5" stroke="#0D477C"/>
<path d="M37.6472 0.290527H84.706V5.70229C84.706 7.91143 82.9152 9.70229 80.706 9.70229H41.6472C39.4381 9.70229 37.6472 7.91143 37.6472 5.70229V0.290527Z" fill="#0D477C"/>
<rect y="59.5848" width="1.88235" height="16.9412" rx="0.941176" fill="#0D477C"/>
<rect y="40.7612" width="1.88235" height="16.9412" rx="0.941176" fill="#0D477C"/>
<rect x="119.529" y="40.7612" width="1.88235" height="14.1176" rx="0.941176" fill="#0D477C"/>
<rect x="72.4706" y="4.05493" width="1.88235" height="1.88235" rx="0.941176" fill="#0D477C"/>
<rect x="48" y="4.05505" width="22.5882" height="1.88235" rx="0.941176" fill="#0D477C"/>
<path d="M18.5 79.939C18.5 78.006 20.067 76.439 22 76.439H98.7059C100.639 76.439 102.206 78.006 102.206 79.939V103.616L97.5144 99.9299C96.7216 99.307 95.7425 98.9684 94.7342 98.9684H22C20.067 98.9684 18.5 97.4014 18.5 95.4684V79.939Z" stroke="#0D477C"/>
<rect x="26.4717" y="82.5259" width="37.6471" height="0.941176" fill="#0D477C"/>
<rect x="26.4717" y="91.9399" width="68.7059" height="0.941176" fill="#0D477C"/>
<rect x="26.4717" y="87.2329" width="4.70588" height="0.941176" fill="#0D477C"/>
<rect x="34.001" y="87.2329" width="11.2941" height="0.941176" fill="#0D477C"/>
<path d="M18.5 152.41C18.5 150.477 20.067 148.91 22 148.91H98.7059C100.639 148.91 102.206 150.477 102.206 152.41V176.087L97.5144 172.401C96.7216 171.778 95.7425 171.439 94.7342 171.439H22C20.067 171.439 18.5 169.872 18.5 167.939V152.41Z" stroke="#0D477C"/>
<rect x="26.4717" y="154.997" width="28.2353" height="0.941176" fill="#0D477C"/>
<rect x="26.4717" y="159.704" width="12.2353" height="0.941176" fill="#0D477C"/>
<rect x="57.5312" y="154.997" width="15.0588" height="0.941176" fill="#0D477C"/>
<path d="M102.207 116.174C102.207 114.241 100.64 112.674 98.707 112.674H22.0011C20.0682 112.674 18.5011 114.241 18.5011 116.174V139.851L23.1926 136.165C23.9855 135.542 24.9645 135.204 25.9728 135.204H98.707C100.64 135.204 102.207 133.637 102.207 131.704V116.174Z" stroke="#0D477C"/>
<rect width="4.70588" height="0.941176" transform="matrix(-1 0 0 1 30.2363 128.175)" fill="#0D477C"/>
<rect width="15.0588" height="0.941176" transform="matrix(-1 0 0 1 40.5879 123.468)" fill="#0D477C"/>
<rect width="3.76471" height="0.941176" transform="matrix(-1 0 0 1 63.1758 118.761)" fill="#0D477C"/>
<rect width="31.0588" height="0.941176" transform="matrix(-1 0 0 1 56.5889 118.761)" fill="#0D477C"/>
<path opacity="0.2" fill-rule="evenodd" clip-rule="evenodd" d="M49.2566 35.4136C49.2613 33.903 48.7259 32.9666 49.3737 32.1395C49.7858 31.6136 51.2202 30.9768 51.8274 30.7677C53.0011 30.3604 54.4918 30.5711 56.1119 31.5074L102.958 58.7775C106.728 60.9545 109.781 66.2403 109.768 70.5726L109.606 92.3181C109.603 93.6618 109.322 95.3815 108.292 96.3241C107.558 96.9952 106.27 97.6694 105.315 97.7459C104.333 97.8254 103.954 96.9187 102.751 96.2243L55.9043 68.9542C52.1302 66.7756 49.0802 61.4898 49.0927 57.1591L49.2566 35.4136Z" fill="#3BB9FF"/>
<path fill-rule="evenodd" clip-rule="evenodd" d="M46.1639 38.0566C46.1764 33.7244 49.2451 31.9718 53.0192 34.1504L99.8654 61.4205C103.635 63.5975 106.688 68.8833 106.675 73.2155L106.513 94.961C106.501 99.2933 103.427 101.044 99.6578 98.8672L52.8116 71.5972C49.0375 69.4186 45.9876 64.1344 46 59.8021L46.1639 38.0566Z" fill="url(#paint0_linear)"/>
<path opacity="0.2" fill-rule="evenodd" clip-rule="evenodd" d="M67.8599 57.9935C67.863 56.837 68.6825 56.3829 69.6892 56.9822L100.215 74.294C101.222 74.8917 102.037 76.3165 102.032 77.473V79.7608C102.029 80.9172 101.209 81.3714 100.203 80.7721L69.6767 63.4603C68.67 62.8625 67.8552 61.4377 67.8599 60.2813V57.9935Z" fill="white"/>
<path opacity="0.2" fill-rule="evenodd" clip-rule="evenodd" d="M67.8596 66.4066C67.8612 65.7246 68.345 65.4562 68.9397 65.8089L86.9661 76.0324C87.5608 76.3851 88.0416 77.2263 88.04 77.9098V79.2613C88.0385 79.9433 87.553 80.2117 86.9599 79.859L68.9335 69.6355C68.3388 69.2828 67.8581 68.4416 67.8596 67.7581V66.4066Z" fill="white"/>
<path fill-rule="evenodd" clip-rule="evenodd" d="M57.2554 59.6211C55.373 58.5333 53.7325 55.9677 53.5889 53.889C53.4453 51.8118 54.8532 51.0065 56.7341 52.0943C58.6149 53.182 60.2569 55.7492 60.4005 57.8264C60.5457 59.9051 59.1362 60.7072 57.2554 59.6211ZM64.2496 58.975L63.0259 58.268C62.7949 57.1241 62.3532 55.9365 61.7554 54.791L62.5561 54.3353C62.1034 53.4988 61.5821 52.6842 61.0093 51.9163L60.2101 52.372C59.4156 51.3405 58.5072 50.4182 57.5426 49.694L57.4489 48.341C57.1133 48.0991 56.7731 47.8775 56.4281 47.6777C56.0832 47.478 55.7445 47.3094 55.4167 47.1659L55.5104 48.5189C54.5707 48.1428 53.7185 48.0476 53.0067 48.2083L52.0749 46.7507C51.5645 46.8912 51.1181 47.1471 50.7482 47.5076L51.68 48.9637C51.1977 49.4834 50.8902 50.2403 50.8059 51.2016L49.5822 50.4946C49.5619 50.8348 49.5635 51.1953 49.59 51.5761C49.6165 51.9569 49.6665 52.3471 49.7383 52.7403L50.962 53.4473C51.1915 54.5897 51.6347 55.7788 52.231 56.9228L51.4303 57.3785C51.8829 58.215 52.4042 59.0296 52.9771 59.7974L53.7762 59.3417C54.5707 60.3733 55.4791 61.2956 56.4437 62.0197L56.5374 63.3712C56.873 63.6146 57.2133 63.8363 57.5598 64.036C57.9047 64.2358 58.2419 64.4043 58.5696 64.5463L58.476 63.1948C59.4156 63.571 60.2678 63.6662 60.978 63.5054L61.9114 64.963C62.4218 64.8226 62.8683 64.5666 63.2382 64.2061L62.3048 62.7485C62.7871 62.2288 63.0946 61.4735 63.1789 60.5122L64.4026 61.2191C64.4229 60.8789 64.4213 60.5168 64.3948 60.1361C64.3713 59.7568 64.3214 59.3682 64.2496 58.975Z" fill="white"/>
<path opacity="0.2" fill-rule="evenodd" clip-rule="evenodd" d="M129.107 68.4791C129.112 66.9684 128.759 66.0258 129.413 65.205C129.911 64.5792 131.071 64.0423 131.678 63.8332C132.852 63.4274 134.342 63.6366 135.963 64.5729L150.927 73.0657C154.696 75.2428 157.749 80.5286 157.737 84.8608L157.574 95.654C157.571 96.9976 157.289 98.7174 156.26 99.66C155.526 100.331 154.239 101.004 153.283 101.082C152.302 101.161 151.922 100.255 150.719 99.5602L135.755 91.0673C131.981 88.8872 128.931 83.6045 128.943 79.2723L129.107 68.4791Z" fill="url(#paint1_linear)"/>
<path fill-rule="evenodd" clip-rule="evenodd" d="M126.015 71.122C126.027 66.7898 129.096 65.0372 132.87 67.2158L147.834 75.7087C151.603 77.8857 154.656 83.1715 154.644 87.5037L154.482 98.2969C154.469 102.629 151.396 104.38 147.626 102.203L132.662 93.7103C128.888 91.5317 125.838 86.2459 125.851 81.9152L126.015 71.122Z" fill="url(#paint2_linear)"/>
<path fill-rule="evenodd" clip-rule="evenodd" d="M126.015 71.122C126.027 66.7898 129.096 65.0372 132.87 67.2158L147.834 75.7087C151.603 77.8857 154.656 83.1715 154.644 87.5037L154.482 98.2969C154.469 102.629 151.396 104.38 147.626 102.203L132.662 93.7103C128.888 91.5317 125.838 86.2459 125.851 81.9152L126.015 71.122Z" fill="url(#paint3_linear)"/>
<path fill-rule="evenodd" clip-rule="evenodd" d="M143.316 81.4253L151.967 90.7359L151.96 93.108L143.285 92.4354L143.293 89.6372L149.354 90.3941L143.307 84.2125L143.316 81.4253Z" fill="white"/>
<path fill-rule="evenodd" clip-rule="evenodd" d="M142.051 78.8237C142.207 79.0765 142.282 79.3325 142.282 79.6118C142.282 79.8116 142.215 80.1518 142.091 80.62L139.644 90.6375C139.566 90.973 139.489 91.2274 139.433 91.41C139.366 91.5957 139.279 91.7081 139.148 91.7596C139.029 91.8142 138.853 91.7768 138.612 91.6379C138.033 91.3039 137.74 90.831 137.741 90.2567C137.741 90.1053 137.797 89.7589 137.918 89.2127L140.354 79.1889C140.477 78.6567 140.601 78.3119 140.719 78.1542C140.83 77.9904 141.06 78.0107 141.386 78.1995C141.681 78.3696 141.899 78.5725 142.051 78.8237Z" fill="white"/>
<path fill-rule="evenodd" clip-rule="evenodd" d="M128.042 79.2998L128.048 76.9011L136.727 77.5862L136.719 80.4094L130.678 79.601L136.705 85.8216L136.696 88.6197L128.042 79.2998Z" fill="white"/>
<path opacity="0.2" fill-rule="evenodd" clip-rule="evenodd" d="M114.32 97.0305C114.859 96.1191 116.636 95.3981 117.685 95.1968C118.909 94.9611 120.436 95.2904 122.124 96.2658C126.556 98.8268 130.427 104.877 130.765 109.773C130.867 111.227 130.665 112.429 130.168 113.303C129.702 114.119 127.823 115.322 126.863 115.536C121.205 117.169 112.734 99.7101 114.32 97.0305Z" fill="#3BB9FF"/>
<path fill-rule="evenodd" clip-rule="evenodd" d="M122.02 114.564C117.586 112.001 113.718 105.956 113.379 101.057C113.04 96.1613 116.357 94.2667 120.792 96.8292C125.223 99.3902 129.094 105.441 129.433 110.336C129.771 115.235 126.451 117.126 122.02 114.564Z" fill="#FF2C9C"/>
<path fill-rule="evenodd" clip-rule="evenodd" d="M124.191 102.206L125.366 102.794L120.145 110.739L115.538 103.907L117.055 104.5L119.488 106.809L124.191 102.206Z" fill="white"/>
<path opacity="0.2" fill-rule="evenodd" clip-rule="evenodd" d="M94.673 107.091C94.6761 106.05 93.8598 105.202 94.2204 104.533C94.6106 103.809 96.2198 103.364 96.9113 103.144C97.8931 102.83 99.1262 103.019 100.465 103.792L155.025 135.275C158.211 137.115 160.79 141.582 160.78 145.241L160.643 173.354C160.638 175.147 160.012 176.418 158.999 177.029C158.381 177.404 156.641 178.087 155.787 177.941C155.188 177.838 155.52 177.042 154.851 176.653L100.291 145.17C97.1002 143.328 94.5247 138.863 94.5357 135.204L94.673 107.091Z" fill="#3BB9FF"/>
<path fill-rule="evenodd" clip-rule="evenodd" d="M91.2429 109.607C91.2538 105.946 93.8464 104.465 97.0352 106.307L151.595 137.79C154.781 139.63 157.359 144.097 157.35 147.756L157.213 175.869C157.202 179.529 154.606 181.008 151.42 179.17L96.8604 147.686C93.6716 145.845 91.0946 141.38 91.1055 137.72L91.2429 109.607Z" fill="url(#paint4_linear)"/>
<path fill-rule="evenodd" clip-rule="evenodd" d="M91.2429 109.607C91.2538 105.946 93.8464 104.465 97.0352 106.307L151.595 137.79C154.781 139.63 157.359 144.097 157.35 147.756L157.213 175.869C157.202 179.529 154.606 181.008 151.42 179.17L96.8604 147.686C93.6716 145.845 91.0946 141.38 91.1055 137.72L91.2429 109.607Z" fill="url(#paint5_linear)"/>
<path opacity="0.5" fill-rule="evenodd" clip-rule="evenodd" d="M103.048 120.764C97.9469 117.819 93.8029 120.185 93.7857 126.041C93.7701 131.902 97.8861 139.036 102.987 141.981C108.083 144.922 112.232 142.56 112.248 136.698C112.265 130.843 108.144 123.706 103.048 120.764Z" fill="white"/>
<path fill-rule="evenodd" clip-rule="evenodd" d="M99.0785 123.389L99.0894 133.99L108.238 134.739L99.0785 123.389Z" fill="white"/>
<path opacity="0.5" fill-rule="evenodd" clip-rule="evenodd" d="M113.871 128.843C113.872 128.091 114.405 127.796 115.06 128.186L152.229 149.475C152.883 149.863 153.414 150.79 153.411 151.541V153.028C153.409 153.78 152.875 154.075 152.221 153.687L115.052 132.397C114.397 132.008 113.868 131.083 113.871 130.331V128.843Z" fill="white"/>
<path opacity="0.4" fill-rule="evenodd" clip-rule="evenodd" d="M113.871 137.505C113.872 136.752 114.405 136.457 115.06 136.848L152.229 158.136C152.883 158.524 153.414 159.451 153.411 160.202V161.689C153.409 162.442 152.875 162.737 152.221 162.348L115.052 141.058C114.397 140.67 113.868 139.744 113.871 138.992V137.505Z" fill="white"/>
<path opacity="0.4" fill-rule="evenodd" clip-rule="evenodd" d="M113.871 145.882C113.872 145.13 114.405 144.835 115.06 145.224L152.229 166.512C152.883 166.9 153.414 167.827 153.411 168.578V170.065C153.409 170.817 152.875 171.112 152.221 170.724L115.052 149.436C114.397 149.047 113.868 148.122 113.871 147.369V145.882Z" fill="white"/>
<path opacity="0.2" fill-rule="evenodd" clip-rule="evenodd" d="M81.8135 152.882L83.635 151.971C84.0908 151.759 84.698 151.818 85.3613 152.202C100.369 160.809 115.347 169.718 130.356 178.325C131.77 179.143 132.916 181.126 132.911 182.751L132.985 207.104C132.983 207.783 132.779 208.295 132.442 208.598C132.104 208.9 130.776 209.473 130.303 209.712C115.294 201.105 100.424 191.052 85.4175 182.447C84.0003 181.629 82.8577 179.645 82.8608 178.021L81.8135 152.882Z" fill="#3BB9FF"/>
<path fill-rule="evenodd" clip-rule="evenodd" d="M80 155.56C80.0047 153.934 81.1566 153.275 82.5723 154.095C97.58 162.701 112.558 171.611 127.567 180.218C128.981 181.035 130.127 183.019 130.122 184.643L130.196 208.997C130.191 210.623 129.038 211.278 127.623 210.462C112.614 201.855 97.6362 192.944 82.6285 184.339C81.2112 183.521 80.0687 181.538 80.0734 179.913L80 155.56Z" fill="url(#paint6_linear)"/>
<path opacity="0.36" fill-rule="evenodd" clip-rule="evenodd" d="M82.5892 158.471C82.5908 157.796 83.0684 157.523 83.6553 157.863C97.945 166.058 112.228 174.256 126.518 182.449C127.105 182.788 127.58 183.61 127.578 184.285L127.609 197.523C127.608 198.197 127.128 198.469 126.543 198.13C112.253 189.935 97.9684 182.833 83.6803 174.638C83.0934 174.3 82.6189 173.477 82.6205 172.805L82.5892 158.471Z" fill="white"/>
<path opacity="0.36" fill-rule="evenodd" clip-rule="evenodd" d="M84.2051 178.571C84.2067 177.819 84.7389 177.524 85.3945 177.913L122.563 199.201C123.217 199.59 123.748 200.517 123.745 201.267V202.755C123.743 203.507 123.209 203.802 122.555 203.413L85.3867 182.125C84.7311 181.736 84.202 180.811 84.2051 180.059V178.571Z" fill="white"/>
<path opacity="0.2" fill-rule="evenodd" clip-rule="evenodd" d="M50.5132 77.062L51.3576 76.6156C51.6526 76.5189 52.0256 76.5735 52.433 76.806C62.5271 82.5943 72.6009 88.587 82.6966 94.3769C83.6487 94.9262 84.4182 96.2605 84.4151 97.3545L84.465 137.309C84.4635 137.805 84.3027 138.169 84.0374 138.364C83.7205 138.6 83.065 139.109 82.5452 138.809C72.4495 133.019 62.563 126.513 52.4689 120.725C51.5168 120.174 50.7473 118.841 50.7504 117.747L50.5132 77.062Z" fill="#3BB9FF"/>
<path fill-rule="evenodd" clip-rule="evenodd" d="M49 79.1732C49.0031 78.0792 49.7773 77.6375 50.731 78.1868C60.8251 83.9751 70.8989 89.9679 80.9946 95.7577C81.9467 96.3071 82.7162 97.6414 82.7131 98.7354L82.763 138.69C82.7599 139.784 81.9842 140.226 81.032 139.676C70.9364 133.886 60.861 127.894 50.7685 122.105C49.8148 121.556 49.0468 120.222 49.0499 119.128L49 79.1732Z" fill="white"/>
<path fill-rule="evenodd" clip-rule="evenodd" d="M49 79.1731C49.0031 78.0792 49.7773 77.6375 50.731 78.1868C60.8251 83.9751 70.8989 89.9679 80.9946 95.7577C81.9467 96.3071 82.7162 97.6414 82.7131 98.7354L82.749 130.132L49.0359 110.797L49 79.1731Z" fill="url(#paint7_linear)"/>
<path fill-rule="evenodd" clip-rule="evenodd" d="M49 79.1731C49.0031 78.0792 49.7773 77.6375 50.731 78.1868C60.8251 83.9751 70.8989 89.9679 80.9946 95.7577C81.9467 96.3071 82.7162 97.6414 82.7131 98.7354L82.749 130.132L49.0359 110.797L49 79.1731Z" fill="url(#paint8_linear)"/>
<g opacity="0.5">
<path fill-rule="evenodd" clip-rule="evenodd" d="M51.5038 115.019C51.5054 114.546 51.8394 114.362 52.2514 114.605L61.5495 119.858C61.96 120.103 62.294 120.684 62.2924 121.157V122.091C62.2909 122.564 61.9553 122.748 61.5448 122.505L52.2468 117.252C51.8347 117.007 51.5022 116.426 51.5038 115.954V115.019Z" fill="url(#paint9_linear)"/>
<path fill-rule="evenodd" clip-rule="evenodd" d="M51.5038 115.019C51.5054 114.546 51.8394 114.362 52.2514 114.605L61.5495 119.858C61.96 120.103 62.294 120.684 62.2924 121.157V122.091C62.2909 122.564 61.9553 122.748 61.5448 122.505L52.2468 117.252C51.8347 117.007 51.5022 116.426 51.5038 115.954V115.019Z" fill="url(#paint10_linear)"/>
</g>
<g opacity="0.5">
<path fill-rule="evenodd" clip-rule="evenodd" d="M51.5038 119.117C51.5054 118.7 51.7988 118.538 52.1625 118.753C57.4335 121.731 66.0729 126.592 71.3439 129.571C71.706 129.787 71.9995 130.299 71.9979 130.715V131.539C71.9963 131.956 71.7013 132.118 71.3392 131.903C66.0682 128.925 57.4288 124.064 52.1578 121.085C51.7957 120.869 51.5022 120.357 51.5038 119.941V119.117Z" fill="url(#paint11_linear)"/>
<path fill-rule="evenodd" clip-rule="evenodd" d="M51.5038 119.117C51.5054 118.7 51.7988 118.538 52.1625 118.753C57.4335 121.731 66.0729 126.592 71.3439 129.571C71.706 129.787 71.9995 130.299 71.9979 130.715V131.539C71.9963 131.956 71.7013 132.118 71.3392 131.903C66.0682 128.925 57.4288 124.064 52.1578 121.085C51.7957 120.869 51.5022 120.357 51.5038 119.941V119.117Z" fill="url(#paint12_linear)"/>
</g>
<path opacity="0.5" fill-rule="evenodd" clip-rule="evenodd" d="M75.4549 104.889L75.419 124.743L80.9928 127.99L81.0287 108.136L75.4549 104.889ZM58.7209 89.0955L58.6647 115.671L64.2385 118.919L64.2947 92.3431L58.7209 89.0955ZM67.0684 98.5168L67.0262 120.545L72.6001 123.792L72.6422 101.764L67.0684 98.5168ZM50.3422 90.9463L50.3063 110.802L55.8801 114.05L55.916 94.1955L50.3422 90.9463Z" fill="#3BB9FF"/>
<path opacity="0.5" fill-rule="evenodd" clip-rule="evenodd" d="M50.2768 98.7244C50.1191 98.5777 50.1316 98.3498 50.3049 98.2156C50.4766 98.0814 50.745 98.0923 50.9011 98.239L56.1815 103.183L58.7382 104.272L64.2215 103.153L67.5508 99.5078C67.6944 99.3502 67.9598 99.3221 68.144 99.4438C68.1814 99.4688 68.2126 99.4969 68.236 99.5281L76.0607 107.926L80.8307 109.102C81.0632 109.096 81.2583 109.251 81.2661 109.449C81.2739 109.647 81.0929 109.814 80.8603 109.82L75.8874 108.65C75.7516 108.658 75.6158 108.609 75.5268 108.511L67.8849 100.315L64.8006 103.693L64.799 103.692C64.7428 103.754 64.6617 103.801 64.5633 103.821L58.785 105C58.6929 105.018 58.5915 105.01 58.4994 104.971L55.7601 103.804C55.7039 103.785 55.6524 103.754 55.6087 103.714L50.2768 98.7244Z" fill="url(#paint13_linear)"/>
<path fill-rule="evenodd" clip-rule="evenodd" d="M50.2768 98.8297C50.1191 98.658 50.1316 98.3896 50.3049 98.2335C50.4766 98.0759 50.745 98.0884 50.9011 98.2616L56.1815 104.066L58.7382 105.344L64.2215 104.031L67.5508 99.752C67.6944 99.5679 67.9598 99.5351 68.144 99.6771C68.1814 99.7052 68.2126 99.7395 68.236 99.777L75.6548 109.347L80.8915 109.152C81.1241 109.144 81.3192 109.325 81.327 109.557C81.3348 109.79 81.1537 109.985 80.9212 109.993L75.48 110.196C75.3442 110.203 75.2084 110.147 75.1194 110.033L67.8833 100.699L64.799 104.665L64.7975 104.663C64.7413 104.737 64.6601 104.791 64.5618 104.815L58.7835 106.197C58.6914 106.219 58.5899 106.21 58.4978 106.165L55.7585 104.794C55.7023 104.771 55.6508 104.735 55.6071 104.688L50.2768 98.8297Z" fill="white"/>
<path opacity="0.1" fill-rule="evenodd" clip-rule="evenodd" d="M36.657 202.372L54.1757 192.396C56.0853 191.523 58.8192 190.829 60.7643 191.841C62.5369 192.763 65.4583 194.652 66.7493 195.388C67.7299 195.947 71.1352 197.986 69.0145 199.139C62.7762 202.531 56.6014 206.346 50.2672 209.791C49.0689 210.443 47.3167 210.678 45.4762 210.526C43.6442 210.374 41.7649 209.84 40.2875 208.981C39.2347 208.369 38.1991 207.765 37.1807 207.173C35.8068 206.372 35.0783 205.427 35.0061 204.552C34.935 203.699 35.4846 202.907 36.657 202.372Z" fill="#3BB9FF"/>
<path fill-rule="evenodd" clip-rule="evenodd" d="M68.3462 113.786C68.718 113.157 69.9454 112.659 70.6696 112.52C71.5144 112.357 72.5683 112.585 73.7343 113.258C76.7936 115.026 79.4661 119.203 79.7 122.583C79.77 123.587 79.631 124.416 79.2872 125.02C78.9661 125.584 77.6687 126.414 77.0059 126.562C73.0996 127.689 67.2514 115.637 68.3462 113.786Z" fill="#F2F4FF"/>
<path fill-rule="evenodd" clip-rule="evenodd" d="M73.662 125.891C70.6005 124.122 67.9302 119.948 67.6964 116.566C67.4625 113.186 69.7524 111.878 72.8139 113.647C75.8733 115.415 78.5458 119.592 78.7796 122.972C79.0134 126.354 76.7214 127.66 73.662 125.891Z" fill="#FF2C9C"/>
<path fill-rule="evenodd" clip-rule="evenodd" d="M75.8626 119.996L74.3453 119.16C74.1029 119.027 73.8776 118.735 73.7839 118.441L73.202 116.597C73.0964 116.265 72.8604 115.998 72.6352 115.874C72.4099 115.749 72.1955 115.767 72.133 116.007L71.7849 117.335C71.7289 117.546 71.5285 117.602 71.2795 117.465L69.7655 116.626C69.2213 116.326 69.0499 116.969 69.5187 117.566L70.8162 119.216C71.0252 119.484 71.1297 119.809 71.0726 120.025L70.7181 121.345C70.6211 121.711 70.9638 122.263 71.3151 122.457C71.425 122.518 71.536 122.543 71.6351 122.516L72.786 122.214C72.8787 122.188 72.9918 122.213 73.1093 122.277C73.2257 122.342 73.3453 122.445 73.4498 122.581L74.7451 124.236C74.8561 124.379 74.9725 124.48 75.0835 124.541C75.4337 124.735 75.7182 124.529 75.5576 124.024L74.9725 122.181C74.8755 121.881 74.938 121.647 75.1244 121.599L76.2786 121.303C76.6924 121.193 76.41 120.298 75.8626 119.996Z" fill="white"/>
<path fill-rule="evenodd" clip-rule="evenodd" d="M64.4505 100.938C64.3201 101.213 64.1951 101.491 64.0583 101.764L63.4968 102.887C63.3772 102.336 62.9375 102.126 62.5992 102.403C62.4968 102.487 62.3934 102.61 62.3255 102.77C62.2716 102.62 61.8459 102.281 61.2716 103.099C60.9127 103.06 60.7241 103.212 60.5722 103.502C60.4817 103.675 60.403 103.883 60.3308 104.09C60.2284 104.383 60.1616 104.633 60.1627 104.887C60.167 105.429 60.1896 106.017 60.1746 106.663C60.1584 107.365 59.361 108.254 58.9288 108.766L61.5356 109.593C61.9343 109.093 62.1487 108.731 62.5507 108.323C62.9602 107.909 63.4764 107.859 63.8675 107.54C64.0863 107.361 64.2113 107.124 64.582 106.598C64.8891 106.163 65.0572 105.692 65.3503 105.217C65.6359 104.724 65.6186 104.832 65.6477 104.28C65.6704 103.852 65.8083 103.431 65.8428 103.172C65.3072 102.905 64.8848 103.566 64.8891 104.211C64.582 104.383 64.3815 104.807 64.3115 104.995C63.8858 104.438 64.1391 104.205 64.3115 103.491C64.582 102.994 64.7749 102.557 64.9247 102.056C65.0076 101.836 65.0906 101.608 65.1801 101.361C65.3018 100.96 65.1467 100.676 65.0249 100.597C64.9268 100.532 64.6682 100.561 64.4505 100.938Z" fill="url(#paint14_linear)"/>
<path fill-rule="evenodd" clip-rule="evenodd" d="M65.5368 103.117C65.1564 103.172 64.887 103.697 64.8902 104.211C64.6036 104.372 64.4085 104.753 64.3277 104.955C64.4839 104.755 64.8827 104.325 65.012 104.273C65.0529 103.779 65.2296 103.373 65.5368 103.117ZM63.5453 102.791L63.4968 102.888C63.4677 102.751 63.4182 102.636 63.3546 102.543C63.3395 102.918 63.1315 103.187 62.9828 103.369C63.3201 103.217 63.4548 103.036 63.5453 102.791ZM62.3222 102.762C62.3039 102.718 62.2554 102.661 62.1843 102.622C62.1153 102.953 62.0378 103.109 61.8912 103.368C62.1304 103.182 62.2457 102.98 62.3222 102.762ZM61.2834 103.082L61.2716 103.099C61.2112 103.092 61.1563 103.091 61.1045 103.095C61.0528 103.456 60.9785 103.68 60.8007 103.93C61.0765 103.661 61.2166 103.477 61.2834 103.082Z" fill="#FF8978"/>
<path fill-rule="evenodd" clip-rule="evenodd" d="M54.6067 115.996C55.9182 113.71 56.9462 110.847 58.7792 108.526C58.9323 108.333 59.2911 108.184 59.4237 107.981C59.6155 107.685 59.8062 107.395 59.9948 107.11C60.8536 107.125 61.9097 107.568 62.6339 108.3C62.5315 108.606 62.4302 108.91 62.3311 109.213C62.2147 109.567 62.4377 110.321 62.3364 110.674C61.4334 113.849 60.137 116.089 58.803 119.005C56.985 121.349 47.0645 135.694 44.9998 131.189C44.3306 129.729 44.8856 127.807 45.8641 126.233C46.405 125.363 47.1572 124.64 47.71 124.066C49.0387 122.688 52.6121 118.053 54.6067 115.996Z" fill="url(#paint15_linear)"/>
<path fill-rule="evenodd" clip-rule="evenodd" d="M49.3952 197.292C49.6862 197.237 50.9847 196.87 51.1075 196.827C51.9373 196.538 53.0117 196.106 54.3727 195.903C55.3286 195.759 56.6605 196.04 56.2327 197.49C55.6605 199.432 53.988 200.849 52.3468 201.535C51.7649 201.778 51.0332 201.834 50.3349 202.184C49.7939 202.455 49.6754 202.903 49.2735 203.203C48.3952 203.861 47.3812 203.795 46.6602 203.548C45.7949 203.252 45.4781 202.887 45.2712 201.841C45.0815 200.881 45.0557 199.143 45.2928 198.463L45.324 198.465C45.3606 199.126 45.726 199.554 46.5374 199.709C47.6419 199.922 49.6215 198.857 49.4372 197.687C49.4179 197.56 49.4038 197.427 49.3952 197.292Z" fill="#3BB9FF"/>
<path fill-rule="evenodd" clip-rule="evenodd" d="M56.0926 196.324C56.5463 196.858 56.251 197.766 55.9892 198.332C55.2758 199.878 53.7509 201.05 52.3468 201.636C51.7649 201.879 51.0429 202.016 50.3457 202.365C49.8047 202.636 49.6959 203.014 49.2939 203.314C48.4157 203.972 47.3424 203.926 46.6215 203.679C45.8036 203.398 45.5126 202.94 45.3079 202.009C45.5148 202.478 45.8294 202.761 46.4006 202.956C47.1215 203.203 48.1948 203.248 49.073 202.591C49.475 202.291 49.5838 201.914 50.1248 201.642C50.8231 201.293 51.6442 201.216 52.2272 200.973C53.8684 200.288 55.6411 199.062 56.2133 197.119C56.2607 196.958 56.306 196.633 56.0926 196.324Z" fill="#E5E5E5"/>
<path fill-rule="evenodd" clip-rule="evenodd" d="M45.2023 195.389C45.3348 196.421 45.449 197.039 45.337 198.079C45.2432 198.962 45.5794 199.525 46.5374 199.709C47.642 199.922 49.6216 198.856 49.4373 197.687C49.2756 196.656 49.5181 195.375 49.5785 194.385L45.2023 195.389Z" fill="url(#paint16_linear)"/>
<path fill-rule="evenodd" clip-rule="evenodd" d="M49.9944 197.623C50.1819 197.678 50.474 197.768 50.7531 197.733C51.2833 199.719 47.1118 203.989 45.1721 201.135C45.059 200.665 45.0019 198.439 45.2001 197.948C45.3327 197.619 45.5762 197.611 45.9728 197.727C46.8166 197.971 47.0773 199.081 47.6571 199.194C48.3468 199.329 48.7854 198.832 49.0375 198.297C49.3091 197.721 49.2315 197.076 49.3737 196.79C49.5343 196.468 49.8328 196.664 49.78 196.814C49.7164 196.997 49.7423 197.428 49.9944 197.623Z" fill="#3BB9FF"/>
<path fill-rule="evenodd" clip-rule="evenodd" d="M55.7392 196.405C55.9106 196.445 56.1337 196.574 56.1972 196.787C56.2684 197.025 56.2005 197.55 56.1994 197.726C56.6563 196.686 56.1908 196.141 55.75 195.97C55.6584 195.934 55.5237 195.89 55.3632 195.905C55.4623 195.964 55.4623 196.006 55.4591 196.057C55.4494 196.218 55.5377 196.359 55.7392 196.405Z" fill="#E5E5E5"/>
<path fill-rule="evenodd" clip-rule="evenodd" d="M47.1033 145.231C51.1939 144.673 52.681 148.127 53.1854 152.441C53.7996 157.702 55.0776 162.1 53.5959 168.275C52.7414 171.836 51.6174 174.023 51.3243 176.055C51.0398 178.035 50.8437 180.949 50.6788 183.246C50.5064 185.654 49.2672 193.656 49.2316 195.332C49.1594 197.015 46.3393 197.858 45.1421 196.444C44.7595 193.622 43.8716 184.276 44.0192 181.705C44.2455 177.771 45.3328 176.077 45.7606 172.108C46.1992 168.028 44.9998 163.581 44.5602 159.496C42.9513 156.454 43.128 154.076 43.9836 151.972C44.9686 149.555 46.2348 148.638 47.1033 145.231Z" fill="#0D477C"/>
<path opacity="0.3" fill-rule="evenodd" clip-rule="evenodd" d="M52.8319 150.506C52.9871 151.111 53.1035 151.759 53.1853 152.441C53.7867 157.703 55.0776 162.1 53.5959 168.275C52.7414 171.836 51.6174 174.023 51.3243 176.055C51.0398 178.034 50.8437 180.949 50.6788 183.246C50.5064 185.654 49.1691 193.827 49.1346 195.503C49.098 196.362 48.6281 196.88 47.7747 197.092C47.4331 191.609 47.1637 186.741 47.8275 181.628C48.2617 178.277 49.209 174.745 49.4137 172.182C49.8663 166.521 48.5646 162.044 46.2229 160.231C47.3813 160.671 48.4579 160.517 49.376 160.036C48.9978 156.737 50.917 153.268 52.8319 150.506Z" fill="#1E2353"/>
<path opacity="0.4" fill-rule="evenodd" clip-rule="evenodd" d="M49.6304 194.254C49.5916 194.733 49.5312 195.186 49.5258 195.43C49.4536 197.113 46.3404 197.859 45.1432 196.445C45.1001 196.127 44.9654 195.58 44.9115 195.116C45.9514 195.9 47.9267 196.496 49.6304 194.254Z" fill="#333333"/>
<path fill-rule="evenodd" clip-rule="evenodd" d="M52.2618 196.751C52.4612 194.823 54.0399 191.122 54.4138 190.064L50.6045 188.105C49.9579 190.535 50.1853 192.249 48.7133 193.336L52.2618 196.751Z" fill="url(#paint17_linear)"/>
<path fill-rule="evenodd" clip-rule="evenodd" d="M51.556 195.479C50.8955 194.786 51.2942 194.327 51.042 193.19C50.917 192.624 50.5593 192.225 50.2198 192.106C49.6153 191.891 49.4644 192.327 49.0043 192.632C48.3986 193.032 48.0527 193.001 47.6486 193.574C45.9546 194.006 45.821 195.522 46.2219 197.043C46.5936 198.453 46.9934 198.593 47.0193 199.335C47.0279 199.579 46.9439 199.848 46.8102 200.304C46.4665 201.475 47.2305 202.887 47.7639 203.604C48.5861 204.712 50.6088 205.519 52.0959 205.383C52.3826 205.357 52.5216 205.092 52.5464 204.743C52.6207 203.691 52.1843 201.893 52.0582 200.724C52.0086 200.267 52.0248 199.413 52.1617 198.535C52.3438 197.371 52.6671 196.143 52.6121 195.554C52.5528 194.897 52.3546 196.315 51.556 195.479Z" fill="url(#paint18_linear)"/>
<path fill-rule="evenodd" clip-rule="evenodd" d="M48.1863 193.508C45.9385 193.62 45.7994 195.417 46.2229 197.043C46.5904 198.454 46.9945 198.593 47.0204 199.335C47.029 199.579 46.9449 199.848 46.8113 200.304C46.4676 201.475 47.2316 202.887 47.765 203.604C48.5872 204.712 50.6099 205.519 52.097 205.383C52.2489 205.369 52.3621 205.283 52.4451 205.15C52.5992 204.904 52.1606 203.5 51.9828 203.161C51.6045 202.443 51.1304 201.651 50.8524 200.552C50.6465 199.738 50.8017 198.485 50.6422 197.536C50.2392 195.149 49.9094 193.76 48.1863 193.508Z" fill="white"/>
<path fill-rule="evenodd" clip-rule="evenodd" d="M46.0105 195.722C46.0234 196.15 46.1086 196.603 46.2228 197.044C46.5903 198.455 46.9944 198.594 47.0202 199.336C47.0289 199.58 46.9448 199.849 46.8112 200.305C46.4674 201.476 47.2314 202.888 47.7649 203.605C48.5871 204.713 50.6098 205.52 52.0969 205.384C52.1745 205.376 52.2423 205.351 52.3005 205.309C52.3232 205.069 52.2553 204.791 52.0904 204.411C51.4751 202.992 49.961 200.969 49.7983 199.629C49.7197 198.984 49.8414 198.468 49.8134 197.886C49.7671 196.883 49.5612 195.904 48.9287 195.052C48.0461 193.865 45.9426 193.514 46.0105 195.722Z" fill="#EAEAED"/>
<path fill-rule="evenodd" clip-rule="evenodd" d="M55.8103 173.665C55.362 169.89 54.084 166.214 52.9266 162.639C47.4685 159.326 48.3026 153.911 50.6022 150.152L56.4062 148.208C56.9946 149.146 57.4354 146.306 57.8405 146.936C58.735 148.326 60.485 152.482 61.1704 154.948C62.5831 160.034 63.0045 164.891 62.4538 171.291C62.4053 171.856 62.3191 172.727 62.2652 173.563C62.2631 173.714 62.1575 174.701 62.1305 174.838C61.9258 176.776 54.9342 190.311 53.3157 193.541C53.1691 192.151 50.9794 190.749 49.7908 191.334C50.5203 186.456 51.5171 181.927 52.2305 180.172C53.6874 176.585 54.8685 175.478 55.8103 173.665Z" fill="#0D477C"/>
<path opacity="0.4" fill-rule="evenodd" clip-rule="evenodd" d="M54.1261 192.165C53.8319 192.748 53.5992 192.975 53.3158 193.541C53.1692 192.151 50.9795 190.749 49.7909 191.334C49.8879 190.685 49.7941 190.505 49.8997 189.873C51.0366 189.349 54.097 190.76 54.1261 192.165Z" fill="#333333"/>
<path fill-rule="evenodd" clip-rule="evenodd" d="M59.0314 148.76C58.8493 148.319 58.8083 147.897 58.6639 147.423C59.7588 143.885 57.2425 142.834 59.2631 138.438C60.6521 135.413 61.0314 133.606 60.3773 132.114C58.9366 128.829 49.8868 124.798 46.3867 124.403C43.9685 124.13 42.5924 126.675 42.6129 129.283C42.6657 136.253 44.9739 136.952 45.2671 144.249C45.2897 144.825 45.599 145.682 45.9761 146.516C45.9944 146.949 46.0041 147.646 46.0203 148.043C47.0063 151.161 58.9139 152.153 59.0314 148.76Z" fill="url(#paint19_linear)"/>
<path opacity="0.1" fill-rule="evenodd" clip-rule="evenodd" d="M59.0314 148.761C58.8805 148.395 58.8266 148.043 58.7307 147.664C56.4505 149.732 51.7963 149.05 49.1788 148.033C48.9158 145.464 48.4923 144.394 49.0322 142.803C51.8222 141.494 54.1347 140.264 55.6574 138.865C58.3536 136.388 58.5702 133.385 54.5561 128.484L54.9235 127.579C51.8491 125.914 48.2941 124.619 46.3867 124.403C43.9685 124.129 42.5924 126.675 42.6129 129.283C42.6657 136.253 44.9739 136.952 45.2671 144.249C45.2897 144.825 45.599 145.682 45.9761 146.516C45.9944 146.949 46.0041 147.647 46.0203 148.043C47.0063 151.161 58.9139 152.153 59.0314 148.761Z" fill="url(#paint20_linear)"/>
<path fill-rule="evenodd" clip-rule="evenodd" d="M76.3625 123.545C76.2784 123.754 76.2752 123.876 76.2461 124.099C76.106 124.44 76.0252 124.703 75.9778 124.938C75.8905 125.381 75.9228 125.731 75.9099 126.321C75.9024 126.662 75.9573 126.838 76.0306 127.171C75.6847 127.848 75.1405 128.262 74.6329 128.82L76.2784 130.076C76.9724 129.618 77.5155 129.137 78.1136 128.739C78.5985 128.547 78.7699 128.438 78.9154 128.286C79.2968 127.889 80.4186 126.708 80.4833 126.244C80.5544 125.729 80.4175 124.539 80.3012 123.884C80.0037 122.216 79.368 120.464 79.2591 121.238C79.0996 121.423 79.23 122.93 79.1298 123.153C78.7408 123.601 78.5544 123.786 78.0662 124.321C77.7634 124.494 77.564 124.673 77.4175 124.713C77.2494 124.759 77.1567 124.641 77.1502 124.494C77.1438 124.329 77.2494 124.036 77.3367 123.605C77.3356 122.89 77.1589 122.485 76.7774 122.523C76.5802 122.542 76.467 122.647 76.4185 122.857C76.3797 123.023 76.3905 123.253 76.3625 123.545Z" fill="url(#paint21_linear)"/>
<path fill-rule="evenodd" clip-rule="evenodd" d="M59.4526 130.264C61.7188 130.613 66.4108 133.386 69.4281 134.738C71.1113 132.34 73.3183 129.467 74.6804 128.499C74.8366 128.388 75.2353 128.163 75.3582 128.014C75.5565 127.771 75.7493 127.523 75.9347 127.267C76.786 127.385 78.0188 128.448 78.0026 128.95C77.8658 129.201 77.7257 129.463 77.5834 129.733C77.4865 129.918 77.522 130.325 77.4649 130.533C77.0026 132.211 74.4551 136.089 73.2676 137.819C72.5812 138.819 72.3398 139.405 71.8753 139.705C71.1296 140.184 70.1296 139.922 68.2018 139.438C66.58 139.03 61.3417 138.118 58.9321 136.846C57.2327 135.95 55.9288 134.295 56.6045 132.435C57.0399 131.243 57.9957 130.039 59.4526 130.264Z" fill="url(#paint22_linear)"/>
<path fill-rule="evenodd" clip-rule="evenodd" d="M48.4632 126.243C48.1949 127.379 52.3415 128.605 53.7629 127.988L53.7931 127.713C54.1594 126.019 54.5194 124.58 54.7726 123.389C55.4332 123.67 57.055 123.753 57.1983 123.526C52.8275 120.035 47.7153 117.455 47.058 119.217C47.4912 120.494 48.6097 121.401 49.1701 122.233C49.3188 122.454 49.4352 122.914 49.4632 123.375C49.3005 124.276 48.9589 125.138 48.4632 126.243Z" fill="url(#paint23_linear)"/>
<path fill-rule="evenodd" clip-rule="evenodd" d="M57.1735 123.546C56.7964 123.792 54.1206 122.902 53.9051 122.913C51.8232 123.016 49.5828 122.847 49.1701 122.233C48.6108 121.401 47.4912 120.494 47.058 119.217C46.3662 117.177 46.5009 114.876 48.3662 113.274C51.6109 110.489 56.7004 112.53 57.4289 115.684C57.7274 116.978 57.3578 117.086 57.4181 117.952C57.5313 119.549 57.7123 118.947 57.5647 121.473C57.5087 122.438 57.4235 123.384 57.1735 123.546Z" fill="#FFA698"/>
<path fill-rule="evenodd" clip-rule="evenodd" d="M49.0623 124.721C49.1765 125.754 52.085 126.482 53.8491 126.072C54.0376 126.028 54.1551 125.992 54.223 125.872C54.4816 126.015 55.1885 127.035 55.2694 127.543C53.7445 129.012 48.9265 128.15 48.3403 126.428C48.2002 126.017 48.072 125.24 49.0623 124.721Z" fill="#3BB9FF"/>
<path fill-rule="evenodd" clip-rule="evenodd" d="M41.0321 121.297C38.2583 123.615 36.6958 127.793 37.9577 130.161C39.101 132.308 41.891 133.571 41.0321 134.931C40.323 136.054 38.6527 137.181 40.6388 138.995C41.6614 139.929 44.1593 142.434 49.2586 141.137C54.2285 139.872 59.4442 135.579 55.2577 130.885C50.8513 125.946 53.429 124.853 55.956 120.969C57.2922 118.916 58.4873 114.857 57.3418 113.346C55.3784 110.757 54.0734 112.622 52.1843 111.708C48.5797 109.962 45.6238 111.21 43.9287 113.939C42.4125 116.382 43.2369 119.452 41.0321 121.297Z" fill="#0D477C"/>
<defs>
<linearGradient id="paint0_linear" x1="112.593" y1="75.1464" x2="19.3305" y2="69.2124" gradientUnits="userSpaceOnUse">
<stop stop-color="#87D4FE"/>
<stop offset="1" stop-color="#1BADFF"/>
</linearGradient>
<linearGradient id="paint1_linear" x1="160.545" y1="87.2195" x2="116.236" y2="84.8407" gradientUnits="userSpaceOnUse">
<stop stop-color="#87D4FE"/>
<stop offset="1" stop-color="#1BADFF"/>
</linearGradient>
<linearGradient id="paint2_linear" x1="119.36" y1="74.6269" x2="162.652" y2="85.561" gradientUnits="userSpaceOnUse">
<stop offset="0.53125" stop-color="#E6F6FF"/>
<stop offset="1" stop-color="#A0D3EF"/>
</linearGradient>
<linearGradient id="paint3_linear" x1="156.084" y1="90.9548" x2="126.854" y2="95.266" gradientUnits="userSpaceOnUse">
<stop stop-color="#4F4F4F"/>
<stop offset="1" stop-color="#828282"/>
</linearGradient>
<linearGradient id="paint4_linear" x1="76.1724" y1="122.374" x2="174.028" y2="150.528" gradientUnits="userSpaceOnUse">
<stop offset="0.53125" stop-color="#E6F6FF"/>
<stop offset="1" stop-color="#A0D3EF"/>
</linearGradient>
<linearGradient id="paint5_linear" x1="160.664" y1="155.352" x2="93.8376" y2="166.579" gradientUnits="userSpaceOnUse">
<stop stop-color="#4F4F4F"/>
<stop offset="1" stop-color="#828282"/>
</linearGradient>
<linearGradient id="paint6_linear" x1="135.091" y1="189.681" x2="57.9156" y2="184.941" gradientUnits="userSpaceOnUse">
<stop stop-color="#87D4FE"/>
<stop offset="1" stop-color="#1BADFF"/>
</linearGradient>
<linearGradient id="paint7_linear" x1="41.3922" y1="89.7681" x2="93.1106" y2="100.583" gradientUnits="userSpaceOnUse">
<stop offset="0.53125" stop-color="#E6F6FF"/>
<stop offset="1" stop-color="#A0D3EF"/>
</linearGradient>
<linearGradient id="paint8_linear" x1="84.4372" y1="112.883" x2="49.9452" y2="117.095" gradientUnits="userSpaceOnUse">
<stop stop-color="#4F4F4F"/>
<stop offset="1" stop-color="#828282"/>
</linearGradient>
<linearGradient id="paint9_linear" x1="49.0718" y1="116.336" x2="63.6364" y2="122.596" gradientUnits="userSpaceOnUse">
<stop offset="0.53125" stop-color="#E6F6FF"/>
<stop offset="1" stop-color="#A0D3EF"/>
</linearGradient>
<linearGradient id="paint10_linear" x1="62.8321" y1="119.93" x2="52.3049" y2="122.573" gradientUnits="userSpaceOnUse">
<stop stop-color="#4F4F4F"/>
<stop offset="1" stop-color="#828282"/>
</linearGradient>
<linearGradient id="paint11_linear" x1="46.8839" y1="121.679" x2="73.1764" y2="134.739" gradientUnits="userSpaceOnUse">
<stop offset="0.53125" stop-color="#E6F6FF"/>
<stop offset="1" stop-color="#A0D3EF"/>
</linearGradient>
<linearGradient id="paint12_linear" x1="73.0231" y1="127.588" x2="53.4152" y2="133.276" gradientUnits="userSpaceOnUse">
<stop stop-color="#4F4F4F"/>
<stop offset="1" stop-color="#828282"/>
</linearGradient>
<linearGradient id="paint13_linear" x1="57.1638" y1="95.1969" x2="83.1026" y2="114.32" gradientUnits="userSpaceOnUse">
<stop stop-color="#0085FF"/>
<stop offset="1" stop-color="#453C9E"/>
</linearGradient>
<linearGradient id="paint14_linear" x1="60.3186" y1="108.274" x2="63.4935" y2="103.735" gradientUnits="userSpaceOnUse">
<stop stop-color="#FF8A78"/>
<stop offset="1" stop-color="#FFA799"/>
</linearGradient>
<linearGradient id="paint15_linear" x1="64.3823" y1="122.821" x2="36.7845" y2="121.436" gradientUnits="userSpaceOnUse">
<stop stop-color="#87D4FE"/>
<stop offset="1" stop-color="#1BADFF"/>
</linearGradient>
<linearGradient id="paint16_linear" x1="45.202" y1="197.061" x2="49.5797" y2="197.061" gradientUnits="userSpaceOnUse">
<stop stop-color="#FF8A78"/>
<stop offset="1" stop-color="#FFA799"/>
</linearGradient>
<linearGradient id="paint17_linear" x1="48.7131" y1="192.427" x2="54.4135" y2="192.427" gradientUnits="userSpaceOnUse">
<stop stop-color="#FF8A78"/>
<stop offset="1" stop-color="#FFA799"/>
</linearGradient>
<linearGradient id="paint18_linear" x1="53.2606" y1="200.455" x2="43.1095" y2="200.105" gradientUnits="userSpaceOnUse">
<stop stop-color="#87D4FE"/>
<stop offset="1" stop-color="#1BADFF"/>
</linearGradient>
<linearGradient id="paint19_linear" x1="62.4516" y1="141.072" x2="34.6182" y2="139.746" gradientUnits="userSpaceOnUse">
<stop stop-color="#87D4FE"/>
<stop offset="1" stop-color="#1BADFF"/>
</linearGradient>
<linearGradient id="paint20_linear" x1="46.3069" y1="117.757" x2="66.8374" y2="121.285" gradientUnits="userSpaceOnUse">
<stop stop-color="#0085FF"/>
<stop offset="1" stop-color="#453C9E"/>
</linearGradient>
<linearGradient id="paint21_linear" x1="76.3216" y1="127.413" x2="79.2827" y2="123.501" gradientUnits="userSpaceOnUse">
<stop stop-color="#FF8A78"/>
<stop offset="1" stop-color="#FFA799"/>
</linearGradient>
<linearGradient id="paint22_linear" x1="80.1075" y1="135.259" x2="47.266" y2="131.36" gradientUnits="userSpaceOnUse">
<stop stop-color="#87D4FE"/>
<stop offset="1" stop-color="#1BADFF"/>
</linearGradient>
<linearGradient id="paint23_linear" x1="52.1749" y1="123.055" x2="53.2505" y2="126.244" gradientUnits="userSpaceOnUse">
<stop stop-color="#FF8A78"/>
<stop offset="1" stop-color="#FFA799"/>
</linearGradient>
</defs>
</svg>
