<svg width="180" height="241" viewBox="0 0 180 241" fill="none" xmlns="http://www.w3.org/2000/svg">
<rect x="1.44141" y="0.5" width="118.529" height="239" rx="11.5" stroke="#0D477C"/>
<path d="M37.647 1.00002H84.7058V6.41178C84.7058 8.62092 82.9149 10.4118 80.7058 10.4118H41.647C39.4378 10.4118 37.647 8.62092 37.647 6.41178V1.00002Z" fill="#0D477C"/>
<rect y="53.2943" width="1.88235" height="16.9412" rx="0.941176" fill="#0D477C"/>
<rect y="34.4707" width="1.88235" height="16.9412" rx="0.941176" fill="#0D477C"/>
<rect x="119.529" y="34.4707" width="1.88235" height="14.1176" rx="0.941176" fill="#0D477C"/>
<g clip-path="url(#clip0)">
<mask id="path-6-inside-1" fill="white">
<path d="M72.363 80.0528C72.6051 80.353 72.8568 80.6628 73.0989 81.0114C73.6605 81.7957 74.0188 82.5026 75.0355 82.8512C75.6261 83.0545 77.5143 83.0158 76.73 84.3617C76.0135 85.6108 75.2098 83.9744 74.8418 83.5871C74.3383 83.0448 72.8374 82.4445 72.8859 83.6839C72.9536 85.5431 77.1367 85.2429 76.2362 87.2763C76.7397 87.5765 77.7274 88.0606 77.5627 88.7965C77.3691 89.6971 76.1878 89.1161 76.2168 90.2684C76.2459 91.9048 78.0275 93.241 79.6833 92.6601C81.4456 92.0307 80.1191 89.5809 82.1331 89.3291C82.9271 89.2323 83.4016 89.4647 84.1085 90.036C84.6894 90.4911 85.0671 91.5368 85.8708 91.4497C85.9482 90.9558 85.5706 90.5976 85.5125 90.1425C86.1322 90.2974 87.3813 91.072 87.7299 91.6143C88.2721 92.4277 88.214 93.609 89.5309 92.5535C89.3276 92.3889 89.2308 92.0307 89.1242 91.9048C90.8091 91.9048 91.9807 92.602 92.707 94.0544C94.3143 97.3176 90.354 94.7322 90.1603 96.4267C89.1823 96.1169 88.7466 95.3326 87.9042 94.8678C87.4975 94.6451 86.7616 94.7613 86.4517 94.5386C86.0257 94.2287 86.1322 93.6574 85.7546 93.3572C84.2924 92.1565 80.9518 94.0931 79.6059 94.8678C79.2379 95.0808 78.8506 95.1002 78.5988 95.4972C78.1728 96.175 78.7731 96.3493 78.6376 96.9787C78.4536 97.8792 77.2723 98.2956 76.914 99.0218C76.0619 100.755 77.7951 103.244 77.5627 105.17C77.4369 106.245 76.2846 107.398 76.7203 108.298C76.914 108.685 77.5821 109.015 77.8339 109.46C78.0663 109.876 78.1631 110.419 78.4729 110.845C79.4606 112.239 80.8743 113.779 82.0363 115.076C82.6947 115.812 83.5856 116.015 84.5732 115.812C85.3963 115.647 86.6357 115.367 87.4007 115.008C88.4077 114.524 88.5433 113.837 89.6084 114.302C90.4605 114.67 91.2061 115.744 92.1937 114.853C93.0071 115.647 92.1066 117.042 91.9226 117.923C91.6902 119.066 92.1357 120.053 92.8425 121.022C93.6753 122.184 93.8786 122.387 93.7043 123.936C93.5687 125.147 93.2589 126.26 93.0071 127.451C92.7554 128.603 92.0291 129.475 92.0679 130.685C92.0969 131.808 92.5811 132.709 92.4358 133.91C92.3099 134.965 92.2422 136.224 91.9614 137.26C91.6806 138.325 90.935 139.264 90.6154 140.349C90.3153 141.385 90.4024 142.721 91.1286 143.573C91.8742 144.464 92.6198 143.951 93.5106 143.283C95.2536 141.966 96.0476 139.719 97.1999 137.938C98.3812 136.117 99.5722 134.452 100.357 132.564C100.521 132.176 100.715 131.789 100.928 131.402C101.964 127.78 102.516 123.956 102.516 119.995C102.516 101.007 89.7633 84.9911 72.363 80.0528ZM61.0726 161.38C49.9953 161.38 39.586 157.071 31.7525 149.238C23.9189 141.404 19.6003 130.985 19.6003 119.918C19.6003 108.84 23.9189 98.4214 31.7525 90.5879C31.9365 90.4039 32.1301 90.2296 32.3141 90.0553C32.1689 90.5007 32.0042 90.9462 31.7428 91.3335C31.1328 92.2534 30.1064 92.6213 29.4576 93.4831C28.867 94.2674 28.3925 95.4584 28.1795 96.3396C27.9374 97.2885 28.0826 98.4505 27.7437 99.3994C27.3177 100.61 26.543 101.336 26.6883 102.73C28.3731 103.234 27.6469 100.242 29.0606 100.087C29.5157 101.2 29.2155 103.282 29.0897 104.502C28.9154 106.178 28.5861 106.594 29.5835 108.027C30.3775 109.17 30.6389 109.925 32.1785 110.109C33.5826 110.273 34.1636 110.913 34.7445 112.268C35.829 112.491 36.4875 112.675 36.6327 113.876C37.0975 114.137 37.9883 114.979 38.4822 115.115C39.1987 115.299 40.3994 114.282 41.0772 115.067C42.2101 116.383 39.6441 119.831 39.189 121.012C38.5112 122.755 38.4144 125.311 40.0605 126.56C40.9029 127.199 41.8034 127.509 42.0842 128.671C42.336 129.746 42.1423 130.637 42.6168 131.653C43.3624 133.242 45.0569 133.764 46.2673 134.984C47.865 136.572 47.7488 138.635 47.7488 140.891C47.7488 143.244 48.6493 145.045 48.9592 147.204C49.2787 149.431 49.9372 151.494 50.4019 153.644C50.7602 155.27 52.1546 157.71 54.1783 157.381C54.3139 156.616 53.5199 156.016 53.423 155.261C53.3359 154.563 53.5295 153.847 53.3843 153.111C53.1132 151.649 53.1325 150.787 54.1008 149.509C54.4398 149.064 54.9142 148.696 55.2725 148.24C55.9503 147.369 55.4274 147.63 55.3984 146.672C55.3596 145.471 55.7276 146.062 56.4441 145.694C56.8218 145.5 57.2381 144.91 57.5189 144.619C58.1483 143.961 59.1166 143.176 59.6008 142.402C60.1527 141.53 60.0849 140.31 60.6465 139.41C61.2856 138.383 62.1958 138.373 63.0963 137.705C64.2583 136.834 63.7838 135.914 63.9969 134.713C64.3455 132.709 65.2557 130.501 66.5144 128.904C68.1025 126.899 68.7899 125.185 66.8534 123.258C65.9044 122.309 65.4009 122.561 64.1324 122.232C63.1641 121.98 62.2927 121.273 61.3147 121.147C60.724 121.08 60.3754 121.293 59.8332 121.147C59.3393 121.022 59.3974 120.712 58.8649 120.721C58.0806 120.731 56.9767 122.367 56.3086 121.322C55.9406 120.731 57.0638 119.114 57.0154 118.33C56.9476 117.371 56.5894 115.793 55.6501 115.27C55.2919 115.067 54.4978 115.037 54.0621 114.873C53.5489 114.67 53.0357 114.36 52.5806 114.059C51.9803 113.672 50.8183 113.004 50.5472 112.307C49.8113 112.278 49.3078 111.871 48.5622 111.881C47.8844 111.89 47.4389 112.21 46.703 112.123C46.0736 112.055 45.3765 111.552 44.689 111.639C44.2339 111.707 43.5561 112.297 43.1591 112.53C42.1036 113.12 40.9901 113.546 39.8281 113.769C38.0271 114.098 37.7075 113.411 37.814 111.755L37.5429 111.213C38.211 109.354 37.0104 109.228 35.6838 108.773C35.4998 107.456 37.1266 106.507 36.4487 105.064C35.0738 104.987 33.5729 108.86 32.4109 107.185C31.646 106.081 32.8079 102.992 33.4857 102.053C34.1636 101.104 36.6424 99.3994 37.8044 99.2542C38.7146 99.138 39.5086 99.5447 39.8572 100.339C40.2348 101.2 39.741 102.024 39.8572 103.001C41.0094 102.74 40.7093 101.259 40.6608 100.474C40.5737 99.1477 41.2709 99.2445 41.939 98.2956C42.5587 97.4241 42.6555 96.4364 43.4205 95.6037C44.0112 94.9452 44.718 94.2578 45.3668 93.6574C46.1124 92.9699 46.9548 93.028 47.7197 92.5245C48.8817 91.7595 47.3421 90.3265 49.0657 90.433C49.6757 90.4717 49.3659 90.8493 50.1792 90.6654C50.5181 90.5879 51.1475 90.278 51.5155 90.1328C53.1519 89.4647 51.99 89.2807 51.2347 88.4189C50.2857 87.315 51.6317 87.5087 52.6193 87.3441C53.3456 87.2279 53.1906 86.9858 53.82 87.4119C54.3816 87.7895 54.0524 88.2833 54.8658 88.2543C56.4151 88.2059 55.3403 86.6566 55.0014 86.1337C54.4107 85.2526 54.2558 84.6425 53.0067 84.6038C53.1325 84.2068 53.1422 83.6839 52.9679 83.3063C51.9222 83.4418 51.7382 82.6769 50.9442 82.3767C49.5983 81.8732 49.821 82.9674 49.269 83.713C48.7074 84.4876 47.6229 84.352 47.2162 85.2913C46.7805 86.2693 47.1872 87.0246 45.6185 86.7534C45.8316 86.1628 45.7541 85.4075 45.7154 84.7781C45.2603 84.72 44.8439 84.6038 44.4178 84.4682C44.4178 82.8899 46.1608 82.764 47.3518 82.6091C48.6784 82.4445 49.1141 81.0986 50.2954 80.8662C51.3993 80.6531 52.1933 82.4445 53.5586 81.4084C54.3332 80.8177 53.975 80.4692 53.6942 79.8979C53.6167 79.7429 53.2197 79.404 53.1229 79.2588C53.1132 79.2491 53.1035 79.2394 53.1035 79.2297C33.9505 82.9093 19.4841 99.7674 19.4841 119.995C19.4841 142.915 38.0658 161.506 60.9951 161.506C77.6789 161.506 92.0679 151.659 98.662 137.463C96.6382 141.782 93.8689 145.762 90.3927 149.238C82.5592 157.071 72.15 161.38 61.0726 161.38ZM57.8288 81.2632C57.9934 81.6408 57.6158 82.0959 58.0806 82.3573C58.8165 82.7447 60.937 80.2077 61.4502 79.7914C62.0893 79.2782 62.4863 78.9877 62.3508 78.4938C61.8957 78.4841 61.4502 78.4745 60.9951 78.4745C59.4071 78.4745 57.8385 78.5616 56.2989 78.7359C56.5022 79.3266 56.938 80.0237 57.18 80.4304C57.3543 80.7306 57.6932 80.9339 57.8288 81.2632Z"/>
</mask>
<path d="M72.363 80.0528C72.6051 80.353 72.8568 80.6628 73.0989 81.0114C73.6605 81.7957 74.0188 82.5026 75.0355 82.8512C75.6261 83.0545 77.5143 83.0158 76.73 84.3617C76.0135 85.6108 75.2098 83.9744 74.8418 83.5871C74.3383 83.0448 72.8374 82.4445 72.8859 83.6839C72.9536 85.5431 77.1367 85.2429 76.2362 87.2763C76.7397 87.5765 77.7274 88.0606 77.5627 88.7965C77.3691 89.6971 76.1878 89.1161 76.2168 90.2684C76.2459 91.9048 78.0275 93.241 79.6833 92.6601C81.4456 92.0307 80.1191 89.5809 82.1331 89.3291C82.9271 89.2323 83.4016 89.4647 84.1085 90.036C84.6894 90.4911 85.0671 91.5368 85.8708 91.4497C85.9482 90.9558 85.5706 90.5976 85.5125 90.1425C86.1322 90.2974 87.3813 91.072 87.7299 91.6143C88.2721 92.4277 88.214 93.609 89.5309 92.5535C89.3276 92.3889 89.2308 92.0307 89.1242 91.9048C90.8091 91.9048 91.9807 92.602 92.707 94.0544C94.3143 97.3176 90.354 94.7322 90.1603 96.4267C89.1823 96.1169 88.7466 95.3326 87.9042 94.8678C87.4975 94.6451 86.7616 94.7613 86.4517 94.5386C86.0257 94.2287 86.1322 93.6574 85.7546 93.3572C84.2924 92.1565 80.9518 94.0931 79.6059 94.8678C79.2379 95.0808 78.8506 95.1002 78.5988 95.4972C78.1728 96.175 78.7731 96.3493 78.6376 96.9787C78.4536 97.8792 77.2723 98.2956 76.914 99.0218C76.0619 100.755 77.7951 103.244 77.5627 105.17C77.4369 106.245 76.2846 107.398 76.7203 108.298C76.914 108.685 77.5821 109.015 77.8339 109.46C78.0663 109.876 78.1631 110.419 78.4729 110.845C79.4606 112.239 80.8743 113.779 82.0363 115.076C82.6947 115.812 83.5856 116.015 84.5732 115.812C85.3963 115.647 86.6357 115.367 87.4007 115.008C88.4077 114.524 88.5433 113.837 89.6084 114.302C90.4605 114.67 91.2061 115.744 92.1937 114.853C93.0071 115.647 92.1066 117.042 91.9226 117.923C91.6902 119.066 92.1357 120.053 92.8425 121.022C93.6753 122.184 93.8786 122.387 93.7043 123.936C93.5687 125.147 93.2589 126.26 93.0071 127.451C92.7554 128.603 92.0291 129.475 92.0679 130.685C92.0969 131.808 92.5811 132.709 92.4358 133.91C92.3099 134.965 92.2422 136.224 91.9614 137.26C91.6806 138.325 90.935 139.264 90.6154 140.349C90.3153 141.385 90.4024 142.721 91.1286 143.573C91.8742 144.464 92.6198 143.951 93.5106 143.283C95.2536 141.966 96.0476 139.719 97.1999 137.938C98.3812 136.117 99.5722 134.452 100.357 132.564C100.521 132.176 100.715 131.789 100.928 131.402C101.964 127.78 102.516 123.956 102.516 119.995C102.516 101.007 89.7633 84.9911 72.363 80.0528ZM61.0726 161.38C49.9953 161.38 39.586 157.071 31.7525 149.238C23.9189 141.404 19.6003 130.985 19.6003 119.918C19.6003 108.84 23.9189 98.4214 31.7525 90.5879C31.9365 90.4039 32.1301 90.2296 32.3141 90.0553C32.1689 90.5007 32.0042 90.9462 31.7428 91.3335C31.1328 92.2534 30.1064 92.6213 29.4576 93.4831C28.867 94.2674 28.3925 95.4584 28.1795 96.3396C27.9374 97.2885 28.0826 98.4505 27.7437 99.3994C27.3177 100.61 26.543 101.336 26.6883 102.73C28.3731 103.234 27.6469 100.242 29.0606 100.087C29.5157 101.2 29.2155 103.282 29.0897 104.502C28.9154 106.178 28.5861 106.594 29.5835 108.027C30.3775 109.17 30.6389 109.925 32.1785 110.109C33.5826 110.273 34.1636 110.913 34.7445 112.268C35.829 112.491 36.4875 112.675 36.6327 113.876C37.0975 114.137 37.9883 114.979 38.4822 115.115C39.1987 115.299 40.3994 114.282 41.0772 115.067C42.2101 116.383 39.6441 119.831 39.189 121.012C38.5112 122.755 38.4144 125.311 40.0605 126.56C40.9029 127.199 41.8034 127.509 42.0842 128.671C42.336 129.746 42.1423 130.637 42.6168 131.653C43.3624 133.242 45.0569 133.764 46.2673 134.984C47.865 136.572 47.7488 138.635 47.7488 140.891C47.7488 143.244 48.6493 145.045 48.9592 147.204C49.2787 149.431 49.9372 151.494 50.4019 153.644C50.7602 155.27 52.1546 157.71 54.1783 157.381C54.3139 156.616 53.5199 156.016 53.423 155.261C53.3359 154.563 53.5295 153.847 53.3843 153.111C53.1132 151.649 53.1325 150.787 54.1008 149.509C54.4398 149.064 54.9142 148.696 55.2725 148.24C55.9503 147.369 55.4274 147.63 55.3984 146.672C55.3596 145.471 55.7276 146.062 56.4441 145.694C56.8218 145.5 57.2381 144.91 57.5189 144.619C58.1483 143.961 59.1166 143.176 59.6008 142.402C60.1527 141.53 60.0849 140.31 60.6465 139.41C61.2856 138.383 62.1958 138.373 63.0963 137.705C64.2583 136.834 63.7838 135.914 63.9969 134.713C64.3455 132.709 65.2557 130.501 66.5144 128.904C68.1025 126.899 68.7899 125.185 66.8534 123.258C65.9044 122.309 65.4009 122.561 64.1324 122.232C63.1641 121.98 62.2927 121.273 61.3147 121.147C60.724 121.08 60.3754 121.293 59.8332 121.147C59.3393 121.022 59.3974 120.712 58.8649 120.721C58.0806 120.731 56.9767 122.367 56.3086 121.322C55.9406 120.731 57.0638 119.114 57.0154 118.33C56.9476 117.371 56.5894 115.793 55.6501 115.27C55.2919 115.067 54.4978 115.037 54.0621 114.873C53.5489 114.67 53.0357 114.36 52.5806 114.059C51.9803 113.672 50.8183 113.004 50.5472 112.307C49.8113 112.278 49.3078 111.871 48.5622 111.881C47.8844 111.89 47.4389 112.21 46.703 112.123C46.0736 112.055 45.3765 111.552 44.689 111.639C44.2339 111.707 43.5561 112.297 43.1591 112.53C42.1036 113.12 40.9901 113.546 39.8281 113.769C38.0271 114.098 37.7075 113.411 37.814 111.755L37.5429 111.213C38.211 109.354 37.0104 109.228 35.6838 108.773C35.4998 107.456 37.1266 106.507 36.4487 105.064C35.0738 104.987 33.5729 108.86 32.4109 107.185C31.646 106.081 32.8079 102.992 33.4857 102.053C34.1636 101.104 36.6424 99.3994 37.8044 99.2542C38.7146 99.138 39.5086 99.5447 39.8572 100.339C40.2348 101.2 39.741 102.024 39.8572 103.001C41.0094 102.74 40.7093 101.259 40.6608 100.474C40.5737 99.1477 41.2709 99.2445 41.939 98.2956C42.5587 97.4241 42.6555 96.4364 43.4205 95.6037C44.0112 94.9452 44.718 94.2578 45.3668 93.6574C46.1124 92.9699 46.9548 93.028 47.7197 92.5245C48.8817 91.7595 47.3421 90.3265 49.0657 90.433C49.6757 90.4717 49.3659 90.8493 50.1792 90.6654C50.5181 90.5879 51.1475 90.278 51.5155 90.1328C53.1519 89.4647 51.99 89.2807 51.2347 88.4189C50.2857 87.315 51.6317 87.5087 52.6193 87.3441C53.3456 87.2279 53.1906 86.9858 53.82 87.4119C54.3816 87.7895 54.0524 88.2833 54.8658 88.2543C56.4151 88.2059 55.3403 86.6566 55.0014 86.1337C54.4107 85.2526 54.2558 84.6425 53.0067 84.6038C53.1325 84.2068 53.1422 83.6839 52.9679 83.3063C51.9222 83.4418 51.7382 82.6769 50.9442 82.3767C49.5983 81.8732 49.821 82.9674 49.269 83.713C48.7074 84.4876 47.6229 84.352 47.2162 85.2913C46.7805 86.2693 47.1872 87.0246 45.6185 86.7534C45.8316 86.1628 45.7541 85.4075 45.7154 84.7781C45.2603 84.72 44.8439 84.6038 44.4178 84.4682C44.4178 82.8899 46.1608 82.764 47.3518 82.6091C48.6784 82.4445 49.1141 81.0986 50.2954 80.8662C51.3993 80.6531 52.1933 82.4445 53.5586 81.4084C54.3332 80.8177 53.975 80.4692 53.6942 79.8979C53.6167 79.7429 53.2197 79.404 53.1229 79.2588C53.1132 79.2491 53.1035 79.2394 53.1035 79.2297C33.9505 82.9093 19.4841 99.7674 19.4841 119.995C19.4841 142.915 38.0658 161.506 60.9951 161.506C77.6789 161.506 92.0679 151.659 98.662 137.463C96.6382 141.782 93.8689 145.762 90.3927 149.238C82.5592 157.071 72.15 161.38 61.0726 161.38ZM57.8288 81.2632C57.9934 81.6408 57.6158 82.0959 58.0806 82.3573C58.8165 82.7447 60.937 80.2077 61.4502 79.7914C62.0893 79.2782 62.4863 78.9877 62.3508 78.4938C61.8957 78.4841 61.4502 78.4745 60.9951 78.4745C59.4071 78.4745 57.8385 78.5616 56.2989 78.7359C56.5022 79.3266 56.938 80.0237 57.18 80.4304C57.3543 80.7306 57.6932 80.9339 57.8288 81.2632Z" stroke="#0D477C" stroke-width="2" mask="url(#path-6-inside-1)"/>
<path d="M60.9952 161.99C37.8431 161.99 19 143.157 19 119.995C19 99.8837 33.3018 82.5415 53.0164 78.7554C53.8394 78.5908 54.7012 78.4553 55.5436 78.3487L55.7373 78.8135L55.6598 78.3391L56.2505 78.2616C58.2355 78.0389 60.2883 77.9711 62.3314 78.0195C65.8173 78.1357 69.2257 78.6683 72.4889 79.5978C90.4508 84.6911 102.99 101.307 102.99 120.005C102.99 123.936 102.448 127.819 101.383 131.547C101.238 132.07 101.073 132.583 100.899 133.096C100.812 133.368 100.715 133.658 100.618 133.929C100.453 134.394 100.298 134.839 100.124 135.265L99.611 136.505C99.4463 136.882 99.272 137.279 99.0881 137.676C92.2325 152.443 77.282 161.99 60.9952 161.99ZM55.6211 78.8232L55.6986 79.2977C54.8368 79.4042 54.0137 79.5397 53.2003 79.7044C33.9409 83.4033 19.9683 100.349 19.9683 119.995C19.9683 142.615 38.3757 161.022 60.9952 161.022C76.9043 161.022 91.516 151.697 98.2263 137.26C98.4103 136.863 98.5846 136.476 98.7589 136.079L99.2624 136.147L98.8169 135.963L99.2527 134.888C99.4173 134.471 99.5722 134.045 99.7175 133.619C99.824 133.329 99.9208 133.048 99.9983 132.787C100.163 132.283 100.327 131.789 100.463 131.276C101.509 127.635 102.032 123.839 102.032 119.995C102.032 101.733 89.773 85.4948 72.2274 80.5177C69.032 79.6075 65.7108 79.0943 62.3314 78.9781C61.8666 78.9685 61.4406 78.9588 60.9952 78.9588C59.4265 78.9588 57.8676 79.0459 56.357 79.2202L55.7954 79.288L55.6211 78.8232Z" fill="#0D477C"/>
</g>
<circle opacity="0.2" r="70.4778" transform="matrix(0.866025 0.5 -2.20305e-08 1 118.964 122.19)" fill="url(#paint0_linear)"/>
<circle opacity="0.9" r="70.4778" transform="matrix(0.866025 0.5 -2.20305e-08 1 109.768 127.708)" fill="url(#paint1_linear)"/>
<path d="M146.599 160.872L118.205 87.6857L114.199 93.3828L109.824 99.6064L89.8166 128.089L136.188 154.861L140.554 166.137L151 172.169L146.599 160.872ZM105.407 126.678L118.216 108.48L131.024 141.468L105.407 126.678Z" fill="white"/>
<path d="M77.362 110.895C77.304 102.73 80.0421 96.4853 84.9754 93.5312C90.0116 90.3098 96.2007 90.7713 103.379 94.9154C103.491 94.9805 103.599 95.0426 103.717 95.1106L108.328 88.5617C106.719 87.3932 105.098 86.3351 103.476 85.3937C94.0181 79.9332 85.8002 79.2115 79.063 83.2491C72.3257 87.2867 68.9033 94.9243 68.9033 105.91C68.9033 115.565 71.2037 125.329 75.6764 135.035L80.5129 128.154C78.3977 122.156 77.3166 116.234 77.362 110.895Z" fill="white"/>
<path d="M103.845 167.602C110.089 171.298 116.234 172.946 121.603 172.364C126.939 171.678 131.277 168.797 134.145 164.034L134.847 162.913L125.112 157.293L124.841 157.562C119.507 162.978 112.283 163.126 103.379 157.985C95.9652 153.705 89.7197 146.911 84.8065 137.797C83.114 134.658 81.6709 131.418 80.5131 128.16L75.6766 135.04C76.6158 137.11 77.6428 139.155 78.7507 141.163C85.329 152.889 93.7621 161.78 103.845 167.602Z" fill="#0D477C"/>
<path d="M109.824 99.6065L114.199 93.3829C112.278 91.6162 110.312 90.0104 108.323 88.5821L103.742 95.1548C105.795 96.3697 107.837 97.8644 109.824 99.6065Z" fill="#0D477C"/>
<circle opacity="0.9" r="62.8137" transform="matrix(0.866025 0.5 -2.20305e-08 1 109.029 127.462)" stroke="#3BB9FF"/>
<path opacity="0.2" fill-rule="evenodd" clip-rule="evenodd" d="M51.9171 45.9225C53.4994 46.797 54.4234 47.8215 55.4499 49.2803C55.4377 49.0254 55.4255 49.9609 55.434 48.5155C55.4425 47.0702 54.6136 44.7358 55.7436 43.5661C56.191 43.1026 58.3731 42.2513 58.896 42.1159C59.9017 41.8573 61.0671 42.0317 62.3118 42.7123C64.2049 43.7478 65.9176 45.7639 67.1623 48.1874C68.4093 50.617 69.1834 54.6627 69.1822 56.1251C69.181 57.5875 69.1749 56.6301 69.1602 56.8764C70.2135 56.5593 71.1595 56.5642 72.7856 57.4643C74.413 58.3644 76.4622 60.5867 77.7324 63.0541C79.0063 65.5276 79.8072 68.4256 79.8133 71.1259C79.8182 73.2335 79.3379 74.9069 78.5199 76.0668C77.6959 77.2353 76.1038 77.9244 74.975 78.2989C71.7385 79.4234 65.5007 72.8591 62.2081 70.9942C58.7156 69.0159 55.2377 67.0485 51.7818 65.0922C49.8972 64.0262 48.2088 61.993 46.9983 59.5658C45.7915 57.1448 45.0637 54.3224 45.0881 51.6916C45.1027 50.1548 43.9788 47.8472 45.4331 46.7433C47.6944 45.0273 50.1081 44.9199 51.9171 45.9225Z" fill="#008FDF"/>
<path fill-rule="evenodd" clip-rule="evenodd" d="M46.6418 46.7171C48.2241 47.5929 49.1482 48.6162 50.1746 50.0761C50.1624 49.8212 50.1502 50.7567 50.1587 49.3114C50.1673 47.8661 50.9487 44.7095 52.1909 43.6594C53.433 42.6093 55.1433 42.4739 57.0365 43.5094C58.9296 44.5449 60.6424 46.561 61.887 48.9845C63.1341 51.4141 63.9081 55.4598 63.9069 56.9222C63.9057 58.3846 63.8996 57.4271 63.885 57.6735C64.9382 57.3564 65.8842 57.3613 67.5104 58.2614C69.1378 59.1615 71.187 61.3838 72.4572 63.8512C73.7311 66.3247 74.532 69.2117 74.5381 71.923C74.5442 74.6343 73.7542 76.6541 72.4791 77.7165C71.2089 78.7764 69.4462 78.8764 67.5092 77.7799C63.9703 75.776 60.4388 73.7769 56.9329 71.7925C53.4391 69.8142 49.9625 67.8468 46.5065 65.8905C44.6219 64.8245 42.9336 62.7913 41.7231 60.3641C40.5187 57.9406 39.7897 55.1183 39.8141 52.4874C39.8385 49.8566 40.6101 47.9002 41.8413 46.8574C43.075 45.8133 45.0608 45.8414 46.6418 46.7171Z" fill="#FF2C9C"/>
<path fill-rule="evenodd" clip-rule="evenodd" d="M51.3493 59.3707L48.9095 57.9629L52.7462 64.6107L56.6077 62.4092L54.1697 60.9996L54.1761 54.74L51.3567 53.1111L51.3493 59.3707Z" fill="white"/>
<path fill-rule="evenodd" clip-rule="evenodd" d="M59.803 62.0833L62.2428 63.492L58.4061 56.8433L54.5447 59.0448L56.9835 60.4544L56.9762 66.714L59.7966 68.3429L59.803 62.0833Z" fill="white"/>
<path opacity="0.2" d="M159.561 205.64L140.145 184.365L120.728 182.763C120.728 182.763 117.609 209.618 140.145 238.102C162.681 236.168 159.561 205.64 159.561 205.64Z" fill="#008FDF"/>
<path d="M154.979 207.543L135.563 186.274L127.577 185.452L116.147 184.672C116.147 184.672 113.027 211.527 135.563 240.011C158.104 238.072 154.979 207.543 154.979 207.543Z" fill="url(#paint2_linear)"/>
<path d="M154.979 207.543L135.563 186.274L127.577 185.452L116.147 184.672C116.147 184.672 113.027 211.527 135.563 240.011C158.104 238.072 154.979 207.543 154.979 207.543Z" fill="url(#paint3_linear)"/>
<path opacity="0.2" d="M152.624 207.875L135.165 188.751L127.985 188.013L117.707 187.313C117.707 187.313 114.902 211.459 135.165 237.065C155.429 235.326 152.624 207.875 152.624 207.875Z" fill="white"/>
<path d="M134 205.9C137.867 207.999 141 213.103 141 217.301C141 221.5 137.867 223.2 134 221.1C130.133 219.001 127 213.897 127 209.699C127 205.5 130.138 203.8 134 205.9ZM130.334 209.967L134.925 217.275L137.68 215.777C138.044 215.58 138.044 214.943 137.68 214.35C137.316 213.757 136.732 213.441 136.368 213.638L134.901 214.433L131.623 209.216C131.254 208.627 130.666 208.32 130.311 208.526C129.956 208.737 129.965 209.378 130.334 209.967Z" fill="white"/>
<path d="M124.022 196.284L122.73 194.966L121.438 196.284L122.73 197.602L124.022 196.284Z" fill="white"/>
<path d="M128.684 196.272L127.392 194.954L126.1 196.272L127.392 197.59L128.684 196.272Z" fill="white"/>
<path d="M126.365 193.895L125.073 192.577L123.782 193.895L125.073 195.213L126.365 193.895Z" fill="white"/>
<path d="M126.348 198.667L125.057 197.349L123.765 198.667L125.057 199.985L126.348 198.667Z" fill="white"/>
<defs>
<linearGradient id="paint0_linear" x1="154.703" y1="88.7624" x2="-61.7775" y2="73.646" gradientUnits="userSpaceOnUse">
<stop stop-color="#87D4FE"/>
<stop offset="1" stop-color="#1BADFF"/>
</linearGradient>
<linearGradient id="paint1_linear" x1="154.703" y1="88.7624" x2="-61.7775" y2="73.646" gradientUnits="userSpaceOnUse">
<stop stop-color="#87D4FE"/>
<stop offset="1" stop-color="#1BADFF"/>
</linearGradient>
<linearGradient id="paint2_linear" x1="107.18" y1="197.205" x2="166.653" y2="210.8" gradientUnits="userSpaceOnUse">
<stop offset="0.53125" stop-color="#E6F6FF"/>
<stop offset="1" stop-color="#A0D3EF"/>
</linearGradient>
<linearGradient id="paint3_linear" x1="157.084" y1="221.718" x2="117.21" y2="227.041" gradientUnits="userSpaceOnUse">
<stop stop-color="#4F4F4F"/>
<stop offset="1" stop-color="#828282"/>
</linearGradient>
<clipPath id="clip0">
<rect width="84" height="83.9903" fill="white" transform="translate(19 78)"/>
</clipPath>
</defs>
</svg>
