<svg width="249" height="240" viewBox="0 0 249 240" fill="none" xmlns="http://www.w3.org/2000/svg">
<rect x="1.44128" y="0.5" width="118.529" height="239" rx="11.5" stroke="#0D477C"/>
<path d="M37.6472 0H84.706V5.41176C84.706 7.6209 82.9152 9.41177 80.706 9.41177H41.6472C39.4381 9.41177 37.6472 7.6209 37.6472 5.41177V0Z" fill="#0D477C"/>
<rect y="59.2943" width="1.88235" height="16.9412" rx="0.941176" fill="#0D477C"/>
<rect y="40.4707" width="1.88235" height="16.9412" rx="0.941176" fill="#0D477C"/>
<rect x="119.529" y="40.4707" width="1.88235" height="14.1176" rx="0.941176" fill="#0D477C"/>
<rect x="72.4706" y="3.7644" width="1.88235" height="1.88235" rx="0.941176" fill="#0D477C"/>
<rect x="48" y="3.76453" width="22.5882" height="1.88235" rx="0.941176" fill="#0D477C"/>
<rect x="27.4668" y="88.708" width="28.2353" height="0.941176" fill="#0D477C"/>
<rect x="27.4668" y="97.1797" width="15.0588" height="0.941176" fill="#0D477C"/>
<rect x="78.292" y="149.03" width="15.0588" height="0.941176" fill="#0D477C"/>
<rect x="27.4766" y="109.411" width="11.2941" height="0.941176" fill="#0D477C"/>
<rect x="40.6455" y="109.411" width="6.58824" height="0.941176" fill="#0D477C"/>
<rect x="49.1172" y="109.411" width="38.5882" height="0.941176" fill="#0D477C"/>
<rect x="89.5859" y="109.411" width="3.76471" height="0.941176" fill="#0D477C"/>
<rect x="27.4719" y="134.821" width="57.7135" height="0.941176" transform="rotate(0.0858889 27.4719 134.821)" fill="#0D477C"/>
<rect x="89.5908" y="134.831" width="3.76471" height="0.941176" fill="#0D477C"/>
<rect x="27.4717" y="117.883" width="3.76471" height="0.941176" fill="#0D477C"/>
<rect x="34.0586" y="117.883" width="13.1765" height="0.941176" fill="#0D477C"/>
<rect x="49.1172" y="117.883" width="7.52941" height="0.941176" fill="#0D477C"/>
<rect x="59.4688" y="117.883" width="33.8824" height="0.941176" fill="#0D477C"/>
<rect x="27.4717" y="126.354" width="3.76471" height="0.941176" fill="#0D477C"/>
<rect x="34.0586" y="126.354" width="17.8824" height="0.941176" fill="#0D477C"/>
<path d="M23.6275 73.6471L19 68V171.529L23.6275 165.882L28.2549 171.529L32.8824 165.882L37.5098 171.529L42.1373 165.882L46.7647 171.529L51.3922 165.882L56.0196 171.529L60.6471 165.882L65.2745 171.529L69.902 165.882L74.5294 171.529L79.1569 165.882L83.7843 171.529L88.4118 165.882L93.0392 171.529L97.6667 165.882L102.294 171.529V68L97.6667 73.6471L93.0392 68L88.4118 73.6471L83.7843 68L79.1569 73.6471L74.5294 68L69.902 73.6471L65.2745 68L60.6471 73.6471L56.0196 68L51.3922 73.6471L46.7647 68L42.1373 73.6471L37.5098 68L32.8824 73.6471L28.2549 68L23.6275 73.6471Z" stroke="#0D477C"/>
<path d="M28.0001 102.424L101.935 60V60.0001C101.899 73.2469 111.156 89.3796 122.61 96.0334L224.498 155.221C237.962 163.042 248.843 182.005 248.801 197.576L174.867 240C174.908 224.429 164.027 205.466 150.564 197.645L48.6757 138.457C37.2216 131.803 27.9648 115.671 28.0001 102.424Z" fill="url(#paint0_linear)"/>
<g style="mix-blend-mode:overlay">
<path d="M141.74 165.764L124.994 175.373L126.604 176.309L143.351 166.7L141.74 165.764Z" fill="white"/>
<path d="M150.327 160.836L144.298 164.296L145.909 165.232L151.938 161.772L150.327 160.836Z" fill="white"/>
<path d="M156.983 157.017L152.886 159.368L154.497 160.304L158.594 157.953L156.983 157.017Z" fill="white"/>
<path d="M130.438 167.999L121.313 173.235L122.924 174.171L132.049 168.935L130.438 167.999Z" fill="white"/>
<path d="M144.178 160.115L132.996 166.532L134.607 167.467L145.789 161.051L144.178 160.115Z" fill="white"/>
<path d="M150.834 156.296L146.736 158.647L148.348 159.583L152.445 157.232L150.834 156.296Z" fill="white"/>
<path d="M124.235 167.309L117.633 171.097L119.244 172.033L125.846 168.244L124.235 167.309Z" fill="white"/>
<path d="M129.049 164.546L126.792 165.841L128.403 166.777L130.659 165.482L129.049 164.546Z" fill="white"/>
<path d="M135.705 160.727L131.608 163.078L133.219 164.014L137.316 161.663L135.705 160.727Z" fill="white"/>
<path d="M138.321 154.977L113.953 168.96L115.564 169.895L139.932 155.913L138.321 154.977Z" fill="white"/>
<path d="M146.909 150.049L140.879 153.509L142.49 154.445L148.52 150.985L146.909 150.049Z" fill="white"/>
<path d="M116.874 163.033L110.272 166.822L111.884 167.757L118.486 163.969L116.874 163.033Z" fill="white"/>
<path d="M132.368 154.143L119.433 161.565L121.044 162.501L133.979 155.079L132.368 154.143Z" fill="white"/>
<path d="M139.024 150.324L134.927 152.675L136.538 153.611L140.635 151.26L139.024 150.324Z" fill="white"/>
<path d="M120.1 156.933L106.592 164.684L108.203 165.62L121.711 157.869L120.1 156.933Z" fill="white"/>
<path d="M132.427 149.86L122.659 155.465L124.27 156.401L134.038 150.795L132.427 149.86Z" fill="white"/>
<path d="M141.588 144.603L134.986 148.391L136.597 149.327L143.199 145.539L141.588 144.603Z" fill="white"/>
<path d="M107.474 159.928L102.912 162.546L104.523 163.482L109.085 160.864L107.474 159.928Z" fill="white"/>
<path d="M116.062 155L110.032 158.46L111.644 159.396L117.673 155.936L116.062 155Z" fill="white"/>
<path d="M128.335 147.958L118.62 153.532L120.231 154.468L129.946 148.893L128.335 147.958Z" fill="white"/>
<path d="M113.207 152.389L99.2321 160.408L100.843 161.344L114.818 153.324L113.207 152.389Z" fill="white"/>
<path d="M128.859 143.408L115.765 150.921L117.376 151.857L130.47 144.343L128.859 143.408Z" fill="white"/>
<path d="M135.515 139.588L131.418 141.939L133.029 142.875L137.126 140.524L135.515 139.588Z" fill="white"/>
<path d="M141.902 135.923L137.805 138.274L139.416 139.21L143.513 136.859L141.902 135.923Z" fill="white"/>
<path d="M103.925 153.465L95.5518 158.27L97.1625 159.206L105.536 154.401L103.925 153.465Z" fill="white"/>
<path d="M110.043 149.954L106.483 151.997L108.094 152.933L111.654 150.89L110.043 149.954Z" fill="white"/>
<path d="M120.618 143.887L112.602 148.486L114.213 149.422L122.229 144.823L120.618 143.887Z" fill="white"/>
<path d="M110.607 127.484L97.0813 135.245L98.6924 136.181L112.219 128.42L110.607 127.484Z" fill="white"/>
<path d="M119.871 122.169L114.543 125.226L116.154 126.162L121.482 123.105L119.871 122.169Z" fill="white"/>
</g>
<path opacity="0.2" d="M188.82 151.092C190.648 157.098 178.33 167.523 161.308 174.376C144.287 181.229 129.007 181.915 127.18 175.908C125.352 169.902 137.67 159.477 154.692 152.624C171.713 145.771 186.993 145.085 188.82 151.092Z" fill="#4F4F4F"/>
<path d="M52.5245 207.015L52.7119 202.293L53.8101 199.527L54.5072 201.816L52.5245 207.015Z" fill="url(#paint1_linear)"/>
<path d="M102.095 207.917L102.28 203.282C102.28 203.282 98.3609 207.193 98.3586 207.288C98.3563 207.384 102.095 207.917 102.095 207.917Z" fill="url(#paint2_linear)"/>
<path d="M76.9692 221.662C63.2825 221.334 52.4216 214.376 52.711 202.293C53.0004 190.21 64.3303 180.68 78.0171 181.008C91.704 181.336 102.565 191.397 102.275 203.48C101.986 215.563 90.6561 221.99 76.9692 221.662Z" fill="url(#paint3_linear)"/>
<path d="M102.088 208.203C102.378 196.12 91.5173 186.059 77.8305 185.731C64.1437 185.403 52.8136 194.932 52.5242 207.015C52.2347 219.098 63.0953 229.159 76.7821 229.487C90.4689 229.815 101.799 220.286 102.088 208.203Z" fill="url(#paint4_linear)"/>
<path d="M60.009 191.846C55.5139 195.689 52.6664 201.039 52.5232 207.015C52.2339 219.098 63.0947 229.159 76.7815 229.487C83.5518 229.649 89.7429 227.397 94.3087 223.619L60.009 191.846Z" fill="url(#paint5_linear)"/>
<path d="M100.982 208.176C101.258 196.632 90.882 187.02 77.8058 186.707C64.7296 186.394 53.9051 195.498 53.6288 207.042C53.3524 218.586 63.7288 228.198 76.805 228.511C89.8813 228.824 100.706 219.72 100.982 208.176Z" fill="#3BB9FF"/>
<path d="M96.3133 208.064C96.5353 198.797 88.2055 191.08 77.7082 190.829C67.2108 190.578 58.5211 197.886 58.2992 207.153C58.0772 216.421 66.407 224.137 76.9043 224.389C87.4016 224.64 96.0913 217.331 96.3133 208.064Z" fill="#3BB9FF"/>
<path d="M96.3133 208.064C96.3225 207.68 96.3117 207.3 96.292 206.921C95.4174 215.64 87.0214 222.347 76.9591 222.106C66.8968 221.865 58.8314 214.763 58.3752 206.013C58.3373 206.39 58.3083 206.77 58.2991 207.154C58.0772 216.421 66.4071 224.137 76.9044 224.388C87.4018 224.64 96.0914 217.331 96.3133 208.064Z" fill="url(#paint6_linear)"/>
<path d="M80.9527 209.024L77.0544 205.412C73.3003 206.264 66.3034 207.858 60.714 209.171C62.1036 213.353 65.4923 216.802 69.9205 218.634L80.9527 209.024Z" fill="url(#paint7_linear)"/>
<path d="M74.8174 219.912C75.4371 219.988 76.0665 220.037 76.7059 220.052C81.0168 220.195 85.2385 218.804 88.6204 216.127L82.2569 210.232L74.8174 219.912Z" fill="url(#paint8_linear)"/>
<path d="M72.8722 201.539L65.5282 194.736C63.0584 196.894 60.8505 199.272 60.2544 202.451L72.8722 201.539Z" fill="url(#paint9_linear)"/>
<path d="M76.7139 192.836C87.2112 193.087 95.541 200.804 95.3191 210.071C95.2737 211.906 94.8914 213.718 94.1912 215.415C95.5168 213.187 96.2476 210.656 96.3135 208.064C96.5355 198.797 88.2057 191.081 77.7084 190.83C69.3382 190.629 62.1226 195.237 59.4272 201.81C62.6575 196.327 69.2243 192.657 76.7139 192.836Z" fill="url(#paint10_linear)"/>
<path d="M52.7118 202.293C52.6688 204.091 52.5011 205.392 52.9243 207.074C53.4701 205.303 54.6542 200 54.6542 200L56.5412 195.786L58.1128 194.491L60.7728 192.552L60.9927 186.474C56.0405 190.352 52.8632 195.971 52.7118 202.293Z" fill="url(#paint11_linear)"/>
<path d="M100.675 201.673L100.779 200.428C100.779 200.344 100.811 200.264 100.869 200.205C100.928 200.146 101.007 200.112 101.09 200.112L101.184 200.114C101.267 200.118 101.344 200.156 101.4 200.218C101.455 200.28 101.484 200.361 101.479 200.444L101.375 201.69C101.376 201.773 101.343 201.853 101.285 201.912C101.227 201.971 101.147 202.005 101.064 202.006L100.971 202.003C100.888 201.999 100.81 201.961 100.754 201.899C100.699 201.837 100.67 201.756 100.675 201.673Z" fill="url(#paint12_linear)"/>
<path d="M98.4976 196.901L98.6255 194.663C98.6248 194.568 98.6618 194.477 98.7282 194.409C98.7947 194.342 98.8852 194.304 98.9799 194.303L99.1972 194.308C99.2918 194.313 99.3803 194.356 99.4434 194.427C99.5065 194.497 99.5391 194.59 99.5339 194.684L99.406 196.923C99.4067 197.018 99.3697 197.109 99.3033 197.176C99.2369 197.244 99.1464 197.282 99.0517 197.283L98.8343 197.278C98.7398 197.272 98.6512 197.23 98.5881 197.159C98.525 197.088 98.4925 196.996 98.4976 196.901Z" fill="url(#paint13_linear)"/>
<path d="M95.4799 192.74L95.6061 190.57C95.6054 190.463 95.6471 190.36 95.7222 190.284C95.7972 190.207 95.8995 190.164 96.0065 190.163L96.3859 190.172C96.4927 190.178 96.5928 190.226 96.6641 190.306C96.7355 190.386 96.7723 190.491 96.7664 190.598L96.6402 192.768C96.6409 192.875 96.5992 192.978 96.5241 193.054C96.449 193.13 96.3468 193.174 96.2397 193.175L95.8604 193.166C95.7535 193.16 95.6535 193.111 95.5821 193.032C95.5108 192.952 95.474 192.847 95.4799 192.74Z" fill="url(#paint14_linear)"/>
<path d="M90.9603 189.38L91.0976 186.75C91.0969 186.643 91.1386 186.54 91.2137 186.464C91.2888 186.387 91.3911 186.344 91.4981 186.343L91.8774 186.352C91.9842 186.358 92.0843 186.406 92.1557 186.486C92.227 186.566 92.2638 186.671 92.258 186.778L92.1207 189.408C92.1214 189.515 92.0796 189.618 92.0045 189.694C91.9294 189.77 91.8272 189.814 91.7202 189.815L91.3409 189.805C91.2341 189.799 91.134 189.751 91.0626 189.671C90.9913 189.592 90.9545 189.487 90.9603 189.38Z" fill="url(#paint15_linear)"/>
<path d="M86.4136 187.173L86.5604 184.143C86.5597 184.036 86.6015 183.933 86.6765 183.857C86.7516 183.781 86.8539 183.737 86.9609 183.736L87.3403 183.745C87.4472 183.751 87.5472 183.8 87.6185 183.879C87.6899 183.959 87.7267 184.064 87.7208 184.171L87.574 187.201C87.5747 187.308 87.5329 187.411 87.4578 187.487C87.3827 187.564 87.2805 187.607 87.1735 187.608L86.7941 187.599C86.6872 187.593 86.5872 187.545 86.5158 187.465C86.4445 187.385 86.4077 187.28 86.4136 187.173Z" fill="url(#paint16_linear)"/>
<path d="M81.8464 185.827L81.9904 182.915C81.9897 182.808 82.0314 182.705 82.1065 182.629C82.1816 182.552 82.2839 182.509 82.3909 182.508L82.7702 182.517C82.8771 182.523 82.9771 182.571 83.0485 182.651C83.1199 182.731 83.1567 182.836 83.1508 182.943L83.0067 185.855C83.0075 185.962 82.9657 186.065 82.8906 186.141C82.8156 186.217 82.7133 186.26 82.6063 186.261L82.227 186.252C82.1201 186.246 82.02 186.198 81.9487 186.118C81.8773 186.038 81.8406 185.934 81.8464 185.827Z" fill="url(#paint17_linear)"/>
<path d="M77.2579 185.368L77.4029 182.411C77.4022 182.304 77.444 182.201 77.5191 182.125C77.5942 182.049 77.6965 182.005 77.8035 182.004L78.1828 182.013C78.2897 182.02 78.3898 182.068 78.4611 182.148C78.5324 182.227 78.5692 182.332 78.5634 182.439L78.4182 185.396C78.419 185.503 78.3772 185.605 78.3021 185.682C78.2271 185.758 78.1248 185.801 78.0178 185.802L77.6385 185.793C77.5316 185.787 77.4315 185.739 77.3602 185.659C77.2888 185.579 77.2521 185.475 77.2579 185.368Z" fill="url(#paint18_linear)"/>
<path d="M72.6567 185.466L72.7974 182.695C72.7967 182.588 72.8384 182.485 72.9135 182.409C72.9886 182.332 73.0909 182.289 73.1979 182.288L73.5772 182.297C73.6841 182.303 73.7841 182.351 73.8555 182.431C73.9268 182.511 73.9636 182.616 73.9577 182.723L73.8171 185.493C73.8178 185.6 73.7761 185.703 73.701 185.78C73.6259 185.856 73.5236 185.899 73.4166 185.9L73.0373 185.891C72.9304 185.885 72.8303 185.837 72.759 185.757C72.6877 185.677 72.6509 185.572 72.6567 185.466Z" fill="url(#paint19_linear)"/>
<path d="M68.0328 186.473L68.1713 183.79C68.1706 183.683 68.2123 183.58 68.2874 183.504C68.3625 183.427 68.4648 183.384 68.5718 183.383L68.9511 183.392C69.058 183.398 69.1581 183.446 69.2294 183.526C69.3007 183.606 69.3375 183.711 69.3316 183.818L69.1931 186.501C69.1938 186.608 69.1521 186.71 69.077 186.787C69.002 186.863 68.8997 186.906 68.7927 186.907L68.4133 186.898C68.3065 186.892 68.2064 186.844 68.1351 186.764C68.0637 186.684 68.027 186.58 68.0328 186.473Z" fill="url(#paint20_linear)"/>
<path d="M63.3794 188.731L63.5231 185.827C63.5224 185.72 63.5642 185.617 63.6393 185.541C63.7143 185.465 63.8166 185.421 63.9236 185.42L64.303 185.429C64.4098 185.436 64.5099 185.484 64.5813 185.564C64.6526 185.643 64.6894 185.748 64.6835 185.855L64.5397 188.759C64.5404 188.866 64.4986 188.969 64.4235 189.045C64.3485 189.122 64.2462 189.165 64.1392 189.166L63.7599 189.157C63.6531 189.151 63.553 189.103 63.4816 189.023C63.4103 188.943 63.3735 188.838 63.3794 188.731Z" fill="url(#paint21_linear)"/>
<path d="M156.677 130.61L156.92 124.509L158.338 120.936L159.239 123.893L156.677 130.61Z" fill="#828282"/>
<path d="M220.718 131.775L220.957 125.787C220.957 125.787 215.894 130.84 215.891 130.962C215.888 131.085 220.718 131.775 220.718 131.775Z" fill="#BDBDBD"/>
<path d="M188.259 149.532C170.576 149.109 156.545 140.119 156.919 124.509C157.293 108.898 171.93 96.5872 189.612 97.0106C207.295 97.434 221.326 110.432 220.952 126.042C220.578 141.652 205.941 149.956 188.259 149.532Z" fill="#BDBDBD"/>
<path d="M220.71 132.144C221.084 116.534 207.053 103.536 189.371 103.112C171.689 102.688 157.051 114.999 156.677 130.61C156.303 146.22 170.334 159.218 188.017 159.641C205.699 160.065 220.336 147.754 220.71 132.144Z" fill="#BDBDBD"/>
<path d="M166.347 111.012C160.54 115.977 156.861 122.888 156.676 130.61C156.302 146.22 170.333 159.218 188.016 159.641C196.762 159.851 204.761 156.941 210.659 152.06L166.347 111.012Z" fill="#828282"/>
<path d="M219.281 132.109C219.638 117.195 206.232 104.777 189.339 104.373C172.445 103.968 158.461 115.731 158.104 130.644C157.747 145.558 171.153 157.976 188.046 158.38C204.939 158.785 218.924 147.023 219.281 132.109Z" fill="#4F4F4F"/>
<path d="M213.249 131.965C213.536 119.992 202.774 110.023 189.213 109.698C175.651 109.373 164.424 118.816 164.138 130.788C163.851 142.761 174.612 152.73 188.174 153.054C201.736 153.379 212.962 143.937 213.249 131.965Z" fill="#4F4F4F"/>
<path d="M213.249 131.964C213.261 131.468 213.247 130.977 213.222 130.488C212.092 141.752 201.245 150.416 188.245 150.105C175.246 149.794 164.826 140.62 164.236 129.315C164.188 129.802 164.15 130.292 164.138 130.788C163.851 142.761 174.613 152.73 188.175 153.054C201.736 153.379 212.963 143.937 213.249 131.964Z" fill="#BDBDBD"/>
<path d="M193.404 133.204L188.368 128.539C183.518 129.639 174.479 131.699 167.258 133.394C169.053 138.797 173.431 143.253 179.152 145.62L193.404 133.204Z" fill="#BDBDBD"/>
<path d="M185.478 147.272C186.279 147.369 187.092 147.432 187.918 147.452C193.487 147.636 198.941 145.84 203.311 142.381L195.089 134.765L185.478 147.272Z" fill="#BDBDBD"/>
<path d="M182.965 123.535L173.477 114.746C170.287 117.534 167.434 120.606 166.664 124.713L182.965 123.535Z" fill="#BDBDBD"/>
<path d="M187.928 112.291C201.49 112.616 212.252 122.585 211.965 134.557C211.906 136.928 211.412 139.268 210.508 141.461C212.22 138.583 213.164 135.313 213.25 131.965C213.536 119.992 202.775 110.024 189.213 109.699C178.4 109.44 169.078 115.394 165.595 123.885C169.769 116.802 178.252 112.059 187.928 112.291Z" fill="#828282"/>
<path d="M156.919 124.509C156.864 126.831 156.647 128.512 157.194 130.686C157.899 128.397 159.429 121.546 159.429 121.546L161.867 116.102L163.897 114.429L167.334 111.924L167.618 104.072C161.22 109.082 157.115 116.341 156.919 124.509Z" fill="#828282"/>
<path d="M218.884 123.708L219.018 122.099C219.018 121.991 219.06 121.888 219.135 121.812C219.21 121.735 219.313 121.691 219.42 121.691L219.541 121.693C219.648 121.699 219.749 121.748 219.82 121.828C219.892 121.908 219.929 122.013 219.923 122.12L219.789 123.729C219.789 123.837 219.747 123.94 219.672 124.016C219.597 124.093 219.494 124.137 219.387 124.137L219.266 124.135C219.159 124.129 219.058 124.08 218.987 124C218.915 123.92 218.878 123.815 218.884 123.708Z" fill="#828282"/>
<path d="M216.071 117.543L216.236 114.651C216.236 114.529 216.283 114.411 216.369 114.324C216.455 114.237 216.572 114.187 216.694 114.186L216.975 114.193C217.097 114.2 217.211 114.255 217.293 114.346C217.375 114.437 217.417 114.557 217.41 114.679L217.245 117.571C217.246 117.693 217.198 117.811 217.112 117.898C217.026 117.985 216.909 118.035 216.787 118.036L216.506 118.029C216.384 118.022 216.27 117.967 216.188 117.876C216.107 117.785 216.064 117.665 216.071 117.543Z" fill="#828282"/>
<path d="M212.172 112.167L212.335 109.364C212.334 109.225 212.388 109.092 212.485 108.994C212.582 108.895 212.714 108.839 212.853 108.838L213.343 108.85C213.481 108.858 213.61 108.92 213.702 109.023C213.794 109.126 213.842 109.261 213.834 109.399L213.671 112.203C213.672 112.341 213.618 112.474 213.521 112.573C213.424 112.672 213.292 112.728 213.154 112.729L212.664 112.717C212.526 112.709 212.396 112.647 212.304 112.544C212.212 112.441 212.165 112.305 212.172 112.167Z" fill="#828282"/>
<path d="M206.333 107.826L206.511 104.429C206.51 104.29 206.564 104.157 206.661 104.059C206.758 103.96 206.89 103.904 207.028 103.903L207.518 103.915C207.656 103.922 207.785 103.985 207.878 104.088C207.97 104.191 208.017 104.326 208.01 104.464L207.832 107.862C207.833 108 207.779 108.133 207.682 108.232C207.585 108.33 207.453 108.386 207.315 108.388L206.825 108.376C206.687 108.368 206.558 108.306 206.465 108.203C206.373 108.1 206.326 107.964 206.333 107.826Z" fill="#828282"/>
<path d="M200.46 104.976L200.649 101.061C200.648 100.922 200.702 100.789 200.799 100.691C200.896 100.592 201.029 100.536 201.167 100.535L201.657 100.547C201.795 100.555 201.924 100.617 202.016 100.72C202.109 100.823 202.156 100.958 202.149 101.096L201.959 105.011C201.96 105.15 201.906 105.283 201.809 105.381C201.712 105.48 201.58 105.536 201.441 105.537L200.951 105.525C200.813 105.517 200.684 105.455 200.592 105.352C200.5 105.249 200.452 105.114 200.46 104.976Z" fill="#828282"/>
<path d="M194.559 103.236L194.745 99.4739C194.744 99.3357 194.798 99.2026 194.895 99.1041C194.992 99.0056 195.124 98.9495 195.262 98.9483L195.752 98.96C195.891 98.9679 196.02 99.0302 196.112 99.1333C196.204 99.2364 196.252 99.3718 196.244 99.5099L196.058 103.272C196.059 103.41 196.005 103.543 195.908 103.641C195.811 103.74 195.679 103.796 195.541 103.797L195.051 103.786C194.913 103.778 194.783 103.715 194.691 103.612C194.599 103.509 194.551 103.374 194.559 103.236Z" fill="#828282"/>
<path d="M188.631 102.643L188.819 98.8231C188.818 98.6848 188.872 98.5519 188.969 98.4533C189.066 98.3548 189.198 98.2988 189.336 98.2976L189.826 98.3094C189.964 98.3172 190.093 98.3795 190.186 98.4825C190.278 98.5856 190.325 98.721 190.318 98.859L190.13 102.679C190.131 102.817 190.077 102.95 189.98 103.048C189.883 103.147 189.751 103.203 189.613 103.204L189.123 103.192C188.985 103.185 188.855 103.122 188.763 103.019C188.671 102.916 188.624 102.781 188.631 102.643Z" fill="#828282"/>
<path d="M182.687 102.769L182.869 99.1896C182.868 99.0513 182.922 98.9183 183.019 98.8198C183.116 98.7213 183.248 98.6653 183.386 98.6641L183.876 98.6758C184.014 98.6837 184.143 98.746 184.236 98.849C184.328 98.9521 184.375 99.0875 184.368 99.2255L184.186 102.805C184.187 102.943 184.133 103.076 184.036 103.175C183.939 103.273 183.807 103.33 183.669 103.331L183.179 103.319C183.041 103.311 182.911 103.249 182.819 103.146C182.727 103.043 182.679 102.907 182.687 102.769Z" fill="#828282"/>
<path d="M176.713 104.07L176.892 100.604C176.891 100.466 176.945 100.333 177.042 100.234C177.139 100.136 177.271 100.08 177.409 100.079L177.899 100.09C178.037 100.098 178.167 100.16 178.259 100.264C178.351 100.367 178.399 100.502 178.391 100.64L178.212 104.106C178.213 104.244 178.159 104.377 178.062 104.476C177.965 104.575 177.833 104.631 177.695 104.632L177.205 104.62C177.067 104.612 176.937 104.55 176.845 104.447C176.753 104.344 176.705 104.208 176.713 104.07Z" fill="#828282"/>
<path d="M170.701 106.988L170.887 103.236C170.886 103.098 170.94 102.965 171.037 102.867C171.134 102.768 171.266 102.712 171.405 102.711L171.895 102.723C172.033 102.73 172.162 102.793 172.254 102.896C172.346 102.999 172.394 103.134 172.386 103.272L172.2 107.024C172.201 107.162 172.147 107.295 172.05 107.394C171.953 107.492 171.821 107.548 171.683 107.55L171.193 107.538C171.055 107.53 170.926 107.468 170.834 107.365C170.741 107.262 170.694 107.126 170.701 106.988Z" fill="#828282"/>
<path d="M175.321 66.8144L175.485 62.7137C175.485 62.7137 172.018 66.174 172.016 66.2582C172.014 66.3422 175.321 66.8144 175.321 66.8144Z" fill="#FFA3D4"/>
<path d="M153.092 78.9754C140.983 78.6855 131.374 72.5288 131.63 61.8385C131.886 51.1484 141.91 42.7172 154.019 43.0073C166.128 43.2972 175.737 52.1984 175.481 62.8886C175.225 73.5789 165.201 79.2654 153.092 78.9754Z" fill="#FFA3D4"/>
<path d="M175.315 67.0671C175.571 56.3769 165.962 47.4756 153.853 47.1856C141.744 46.8957 131.72 55.3268 131.464 66.017C131.208 76.7073 140.817 85.6085 152.926 85.8985C165.035 86.1884 175.059 77.7574 175.315 67.0671Z" fill="#FFA3D4"/>
<path d="M138.088 52.5961C134.111 55.9963 131.591 60.7293 131.465 66.0174C131.209 76.7077 140.818 85.6089 152.927 85.8989C158.917 86.0423 164.394 84.0495 168.434 80.7072L138.088 52.5961Z" fill="#F10080"/>
<path d="M174.337 67.0437C174.582 56.8303 165.401 48.3261 153.832 48.0489C142.263 47.7718 132.686 55.8267 132.442 66.04C132.197 76.2534 141.377 84.7576 152.946 85.0348C164.515 85.3119 174.092 77.257 174.337 67.0437Z" fill="#FF2C9C"/>
<path d="M170.206 66.9445C170.402 58.7454 163.033 51.9185 153.745 51.6961C144.458 51.4737 136.77 57.9401 136.573 66.1391C136.377 74.3382 143.747 81.1651 153.034 81.3875C162.322 81.6099 170.01 75.1435 170.206 66.9445Z" fill="#FF2C9C"/>
<path d="M170.206 66.9448C170.214 66.6049 170.204 66.2686 170.187 65.9338C169.413 73.6473 161.985 79.5812 153.082 79.368C144.18 79.1548 137.044 72.8721 136.64 65.1305C136.607 65.464 136.581 65.7995 136.573 66.1393C136.377 74.3384 143.746 81.1653 153.034 81.3877C162.321 81.6101 170.009 75.1438 170.206 66.9448Z" fill="#FFA3D4"/>
<path d="M156.616 67.7934L153.167 64.5984C149.846 65.3519 143.655 66.7624 138.71 67.9235C139.939 71.6235 142.938 74.6752 146.855 76.2957L156.616 67.7934Z" fill="#FFA3D4"/>
<path d="M151.187 77.4274C151.735 77.4941 152.292 77.5373 152.858 77.5509C156.672 77.6771 160.407 76.4466 163.399 74.0781L157.769 68.8627L151.187 77.4274Z" fill="#FFA3D4"/>
<path d="M149.468 61.1716L142.97 55.1526C140.785 57.0618 138.832 59.166 138.304 61.9786L149.468 61.1716Z" fill="#FFA3D4"/>
<path d="M152.865 53.472C162.153 53.6944 169.523 60.5213 169.326 68.7204C169.286 70.3441 168.948 71.9467 168.328 73.4481C169.501 71.4772 170.148 69.2378 170.206 66.945C170.402 58.746 163.033 51.919 153.745 51.6966C146.34 51.5193 139.956 55.5965 137.571 61.4119C140.429 56.5607 146.239 53.3133 152.865 53.472Z" fill="#F10080"/>
<path d="M131.63 61.8389C131.592 63.4296 131.443 64.5805 131.818 66.0694C132.301 64.502 133.348 59.81 133.348 59.81L135.018 56.0818L136.408 54.9362L138.762 53.2208L138.956 47.8435C134.575 51.2742 131.764 56.2459 131.63 61.8389Z" fill="#F10080"/>
<path d="M174.065 61.2905L174.157 60.1887C174.157 60.1151 174.186 60.0444 174.237 59.992C174.289 59.9396 174.359 59.9098 174.433 59.9091L174.515 59.9111C174.589 59.9153 174.657 59.9484 174.707 60.0032C174.756 60.0581 174.781 60.1301 174.777 60.2035L174.685 61.3054C174.685 61.3789 174.657 61.4497 174.605 61.5021C174.553 61.5545 174.483 61.5843 174.41 61.5849L174.327 61.583C174.253 61.5788 174.185 61.5457 174.135 61.4908C174.086 61.436 174.061 61.364 174.065 61.2905Z" fill="#F10080"/>
<path d="M172.138 57.0686L172.251 55.0881C172.251 55.0044 172.283 54.9238 172.342 54.8641C172.401 54.8044 172.481 54.7705 172.565 54.7697L172.757 54.7743C172.841 54.7791 172.919 54.8168 172.975 54.8793C173.031 54.9417 173.06 55.0238 173.055 55.1075L172.942 57.0879C172.942 57.1717 172.91 57.2522 172.851 57.3119C172.792 57.3716 172.712 57.4056 172.628 57.4063L172.436 57.4017C172.352 57.397 172.274 57.3592 172.218 57.2968C172.162 57.2343 172.134 57.1522 172.138 57.0686Z" fill="#F10080"/>
<path d="M169.468 53.3872L169.579 51.467C169.579 51.3724 169.616 51.2813 169.682 51.2138C169.748 51.1464 169.839 51.108 169.934 51.1071L170.269 51.1152C170.364 51.1205 170.452 51.1632 170.515 51.2338C170.579 51.3044 170.611 51.3971 170.606 51.4917L170.494 53.4118C170.495 53.5065 170.458 53.5976 170.391 53.6651C170.325 53.7325 170.235 53.7709 170.14 53.7718L169.804 53.7637C169.71 53.7583 169.621 53.7157 169.558 53.6451C169.495 53.5745 169.462 53.4818 169.468 53.3872Z" fill="#F10080"/>
<path d="M165.47 50.4145L165.591 48.0876C165.59 47.9929 165.627 47.9018 165.694 47.8344C165.76 47.7669 165.851 47.7285 165.945 47.7277L166.281 47.7357C166.376 47.7411 166.464 47.7838 166.527 47.8544C166.59 47.9249 166.623 48.0176 166.618 48.1122L166.496 50.4391C166.497 50.5338 166.46 50.6249 166.394 50.6923C166.327 50.7598 166.237 50.7982 166.142 50.799L165.806 50.791C165.712 50.7856 165.623 50.7429 165.56 50.6724C165.497 50.6018 165.464 50.509 165.47 50.4145Z" fill="#F10080"/>
<path d="M161.448 48.4619L161.578 45.7808C161.577 45.6861 161.614 45.5951 161.681 45.5276C161.747 45.4601 161.837 45.4217 161.932 45.4209L162.268 45.4289C162.362 45.4343 162.451 45.477 162.514 45.5476C162.577 45.6181 162.61 45.7109 162.604 45.8054L162.474 48.4865C162.475 48.5812 162.438 48.6723 162.372 48.7397C162.305 48.8072 162.215 48.8456 162.12 48.8464L161.785 48.8384C161.69 48.833 161.602 48.7904 161.538 48.7198C161.475 48.6492 161.443 48.5565 161.448 48.4619Z" fill="#F10080"/>
<path d="M157.407 47.2706L157.534 44.6944C157.533 44.5997 157.57 44.5087 157.637 44.4412C157.703 44.3737 157.794 44.3353 157.888 44.3345L158.224 44.3425C158.318 44.3479 158.407 44.3906 158.47 44.4612C158.533 44.5317 158.566 44.6245 158.561 44.719L158.433 47.2952C158.434 47.3899 158.397 47.481 158.33 47.5485C158.264 47.616 158.173 47.6543 158.079 47.6551L157.743 47.6471C157.649 47.6417 157.56 47.5991 157.497 47.5285C157.434 47.4579 157.401 47.3652 157.407 47.2706Z" fill="#F10080"/>
<path d="M153.348 46.8645L153.476 44.2487C153.475 44.154 153.512 44.063 153.579 43.9955C153.645 43.928 153.736 43.8896 153.83 43.8888L154.166 43.8968C154.261 43.9022 154.349 43.9449 154.412 44.0154C154.475 44.086 154.508 44.1788 154.503 44.2733L154.374 46.8891C154.375 46.9838 154.338 47.0748 154.272 47.1423C154.205 47.2098 154.115 47.2482 154.02 47.249L153.685 47.241C153.59 47.2356 153.501 47.1929 153.438 47.1223C153.375 47.0518 153.343 46.959 153.348 46.8645Z" fill="#F10080"/>
<path d="M149.276 46.9514L149.401 44.4999C149.4 44.4053 149.437 44.3142 149.503 44.2467C149.57 44.1793 149.66 44.1409 149.755 44.14L150.091 44.1481C150.185 44.1535 150.274 44.1961 150.337 44.2667C150.4 44.3373 150.433 44.43 150.427 44.5245L150.303 46.976C150.304 47.0707 150.267 47.1617 150.2 47.2292C150.134 47.2967 150.043 47.335 149.949 47.3359L149.613 47.3278C149.518 47.3224 149.43 47.2798 149.367 47.2092C149.304 47.1386 149.271 47.0459 149.276 46.9514Z" fill="#F10080"/>
<path d="M145.185 47.8422L145.308 45.4683C145.307 45.3737 145.344 45.2826 145.41 45.2151C145.477 45.1477 145.567 45.1093 145.662 45.1085L145.998 45.1165C146.092 45.1218 146.181 45.1645 146.244 45.2351C146.307 45.3057 146.339 45.3984 146.334 45.4929L146.212 47.8668C146.212 47.9614 146.175 48.0525 146.109 48.12C146.043 48.1874 145.952 48.2258 145.857 48.2266L145.522 48.2186C145.427 48.2133 145.339 48.1706 145.276 48.1C145.212 48.0294 145.18 47.9367 145.185 47.8422Z" fill="#F10080"/>
<path d="M141.068 49.8405L141.196 47.2712C141.195 47.1765 141.232 47.0854 141.298 47.0179C141.365 46.9505 141.455 46.9121 141.55 46.9113L141.886 46.9193C141.98 46.9247 142.069 46.9673 142.132 47.0379C142.195 47.1085 142.227 47.2012 142.222 47.2958L142.095 49.8651C142.096 49.9597 142.059 50.0508 141.992 50.1183C141.926 50.1858 141.835 50.2242 141.741 50.225L141.405 50.2169C141.311 50.2116 141.222 50.1689 141.159 50.0983C141.096 50.0277 141.063 49.935 141.068 49.8405Z" fill="#F10080"/>
<path d="M131.464 66.0168L131.629 61.8384L132.601 59.3918L133.217 61.4169L131.464 66.0168Z" fill="#F10080"/>
<defs>
<linearGradient id="paint0_linear" x1="112.5" y1="53" x2="207.791" y2="229.9" gradientUnits="userSpaceOnUse">
<stop stop-color="#3BB9FF"/>
<stop stop-color="#828282"/>
<stop offset="0.0001" stop-color="#8ED7FF"/>
<stop offset="0.20272" stop-color="#D1EFFF"/>
<stop offset="0.401704" stop-color="#D1EFFF"/>
<stop offset="0.647148" stop-color="#D1EFFF"/>
<stop offset="0.833333" stop-color="#D1EFFF"/>
<stop offset="1" stop-color="#3BB9FF"/>
</linearGradient>
<linearGradient id="paint1_linear" x1="52.9706" y1="197.655" x2="55.5093" y2="197.842" gradientUnits="userSpaceOnUse">
<stop stop-color="#0085FF"/>
<stop offset="1" stop-color="#453C9E"/>
</linearGradient>
<linearGradient id="paint2_linear" x1="102.662" y1="206.201" x2="96.6318" y2="205.845" gradientUnits="userSpaceOnUse">
<stop stop-color="#87D4FE"/>
<stop offset="1" stop-color="#1BADFF"/>
</linearGradient>
<linearGradient id="paint3_linear" x1="107.116" y1="206.613" x2="31.1564" y2="200.148" gradientUnits="userSpaceOnUse">
<stop stop-color="#87D4FE"/>
<stop offset="1" stop-color="#1BADFF"/>
</linearGradient>
<linearGradient id="paint4_linear" x1="84.3621" y1="181.617" x2="78.6033" y2="248.791" gradientUnits="userSpaceOnUse">
<stop stop-color="#87D4FE"/>
<stop offset="1" stop-color="#1BADFF"/>
</linearGradient>
<linearGradient id="paint5_linear" x1="61.9206" y1="182.433" x2="111.064" y2="197.56" gradientUnits="userSpaceOnUse">
<stop stop-color="#0085FF"/>
<stop offset="1" stop-color="#453C9E"/>
</linearGradient>
<linearGradient id="paint6_linear" x1="100.025" y1="217.588" x2="42.5452" y2="209.286" gradientUnits="userSpaceOnUse">
<stop stop-color="#87D4FE"/>
<stop offset="1" stop-color="#1BADFF"/>
</linearGradient>
<linearGradient id="paint7_linear" x1="82.9266" y1="213.738" x2="52.0451" y2="210.437" gradientUnits="userSpaceOnUse">
<stop stop-color="#87D4FE"/>
<stop offset="1" stop-color="#1BADFF"/>
</linearGradient>
<linearGradient id="paint8_linear" x1="89.9666" y1="216.422" x2="68.8673" y2="214.353" gradientUnits="userSpaceOnUse">
<stop stop-color="#87D4FE"/>
<stop offset="1" stop-color="#1BADFF"/>
</linearGradient>
<linearGradient id="paint9_linear" x1="74.1028" y1="199.594" x2="54.8805" y2="197.399" gradientUnits="userSpaceOnUse">
<stop stop-color="#87D4FE"/>
<stop offset="1" stop-color="#1BADFF"/>
</linearGradient>
<linearGradient id="paint10_linear" x1="67.7276" y1="184.675" x2="108.212" y2="201.517" gradientUnits="userSpaceOnUse">
<stop stop-color="#0085FF"/>
<stop offset="1" stop-color="#453C9E"/>
</linearGradient>
<linearGradient id="paint11_linear" x1="54.5216" y1="181.324" x2="65.1366" y2="182.517" gradientUnits="userSpaceOnUse">
<stop stop-color="#0085FF"/>
<stop offset="1" stop-color="#453C9E"/>
</linearGradient>
<linearGradient id="paint12_linear" x1="100.856" y1="199.638" x2="101.878" y2="199.759" gradientUnits="userSpaceOnUse">
<stop stop-color="#0085FF"/>
<stop offset="1" stop-color="#453C9E"/>
</linearGradient>
<linearGradient id="paint13_linear" x1="98.7305" y1="193.558" x2="100.054" y2="193.685" gradientUnits="userSpaceOnUse">
<stop stop-color="#0085FF"/>
<stop offset="1" stop-color="#453C9E"/>
</linearGradient>
<linearGradient id="paint14_linear" x1="95.769" y1="189.41" x2="97.4038" y2="189.604" gradientUnits="userSpaceOnUse">
<stop stop-color="#0085FF"/>
<stop offset="1" stop-color="#453C9E"/>
</linearGradient>
<linearGradient id="paint15_linear" x1="91.252" y1="185.475" x2="92.9062" y2="185.647" gradientUnits="userSpaceOnUse">
<stop stop-color="#0085FF"/>
<stop offset="1" stop-color="#453C9E"/>
</linearGradient>
<linearGradient id="paint16_linear" x1="86.7074" y1="182.768" x2="88.3772" y2="182.925" gradientUnits="userSpaceOnUse">
<stop stop-color="#0085FF"/>
<stop offset="1" stop-color="#453C9E"/>
</linearGradient>
<linearGradient id="paint17_linear" x1="82.1396" y1="181.57" x2="83.8049" y2="181.73" gradientUnits="userSpaceOnUse">
<stop stop-color="#0085FF"/>
<stop offset="1" stop-color="#453C9E"/>
</linearGradient>
<linearGradient id="paint18_linear" x1="77.5513" y1="181.055" x2="79.2183" y2="181.214" gradientUnits="userSpaceOnUse">
<stop stop-color="#0085FF"/>
<stop offset="1" stop-color="#453C9E"/>
</linearGradient>
<linearGradient id="paint19_linear" x1="72.9491" y1="181.385" x2="74.609" y2="181.551" gradientUnits="userSpaceOnUse">
<stop stop-color="#0085FF"/>
<stop offset="1" stop-color="#453C9E"/>
</linearGradient>
<linearGradient id="paint20_linear" x1="68.3247" y1="182.502" x2="69.981" y2="182.671" gradientUnits="userSpaceOnUse">
<stop stop-color="#0085FF"/>
<stop offset="1" stop-color="#453C9E"/>
</linearGradient>
<linearGradient id="paint21_linear" x1="63.6725" y1="184.484" x2="65.3373" y2="184.645" gradientUnits="userSpaceOnUse">
<stop stop-color="#0085FF"/>
<stop offset="1" stop-color="#453C9E"/>
</linearGradient>
</defs>
</svg>
