<svg width="1323" height="1324" viewBox="0 0 1323 1324" fill="none" xmlns="http://www.w3.org/2000/svg">
<rect opacity="0.72" x="834" y="431" width="230" height="58" rx="4" fill="url(#paint0_linear)"/>
<path d="M913.236 465H905.926V463.55L909.376 459.873C909.85 459.355 910.199 458.904 910.423 458.518C910.653 458.132 910.768 457.766 910.768 457.419C910.768 456.946 910.648 456.575 910.409 456.306C910.169 456.033 909.828 455.896 909.383 455.896C908.905 455.896 908.526 456.062 908.248 456.394C907.975 456.721 907.838 457.153 907.838 457.69H905.714C905.714 457.041 905.868 456.448 906.175 455.911C906.488 455.374 906.927 454.954 907.494 454.651C908.06 454.343 908.702 454.189 909.42 454.189C910.519 454.189 911.371 454.453 911.976 454.98C912.586 455.508 912.892 456.252 912.892 457.214C912.892 457.742 912.755 458.279 912.481 458.826C912.208 459.373 911.739 460.01 911.075 460.737L908.651 463.293H913.236V465ZM920.802 460.986H922.01V462.693H920.802V465H918.685V462.693H914.312L914.217 461.36L918.663 454.336H920.802V460.986ZM916.327 460.986H918.685V457.222L918.546 457.463L916.327 460.986ZM923.907 465.916H922.333L926.258 454.336H927.833L923.907 465.916ZM936.014 455.522L931.891 465H929.657L933.788 456.05H928.485V454.336H936.014V455.522ZM945.492 462.81C945.492 462.551 945.362 462.349 945.104 462.202C944.85 462.051 944.439 461.917 943.873 461.799C941.988 461.404 941.046 460.603 941.046 459.397C941.046 458.694 941.336 458.108 941.917 457.639C942.503 457.166 943.268 456.929 944.21 456.929C945.216 456.929 946.019 457.166 946.62 457.639C947.225 458.113 947.528 458.728 947.528 459.485H945.411C945.411 459.182 945.313 458.933 945.118 458.738C944.923 458.538 944.618 458.438 944.203 458.438C943.846 458.438 943.57 458.518 943.375 458.679C943.18 458.84 943.082 459.045 943.082 459.294C943.082 459.529 943.192 459.719 943.412 459.866C943.636 460.007 944.012 460.132 944.54 460.239C945.067 460.342 945.511 460.459 945.873 460.591C946.991 461.001 947.55 461.711 947.55 462.722C947.55 463.445 947.24 464.031 946.62 464.48C946 464.924 945.199 465.146 944.217 465.146C943.553 465.146 942.962 465.029 942.445 464.795C941.932 464.556 941.529 464.231 941.236 463.821C940.943 463.406 940.797 462.959 940.797 462.48H942.804C942.823 462.856 942.962 463.145 943.221 463.345C943.48 463.545 943.827 463.645 944.261 463.645C944.667 463.645 944.972 463.569 945.177 463.418C945.387 463.262 945.492 463.059 945.492 462.81ZM953.666 464.194C953.143 464.829 952.42 465.146 951.498 465.146C950.648 465.146 949.999 464.902 949.549 464.414C949.105 463.926 948.878 463.21 948.868 462.268V457.075H950.985V462.195C950.985 463.02 951.361 463.433 952.113 463.433C952.831 463.433 953.324 463.184 953.592 462.686V457.075H955.716V465H953.724L953.666 464.194ZM964.447 461.111C964.447 462.332 964.168 463.311 963.612 464.048C963.06 464.78 962.313 465.146 961.371 465.146C960.57 465.146 959.923 464.868 959.43 464.312V468.047H957.313V457.075H959.276L959.349 457.852C959.862 457.236 960.531 456.929 961.356 456.929C962.333 456.929 963.092 457.29 963.634 458.013C964.176 458.735 964.447 459.731 964.447 461.001V461.111ZM962.33 460.957C962.33 460.22 962.198 459.651 961.935 459.25C961.676 458.85 961.297 458.65 960.799 458.65C960.135 458.65 959.679 458.904 959.43 459.412V462.656C959.688 463.179 960.15 463.44 960.814 463.44C961.825 463.44 962.33 462.612 962.33 460.957ZM972.899 461.111C972.899 462.332 972.621 463.311 972.064 464.048C971.512 464.78 970.765 465.146 969.823 465.146C969.022 465.146 968.375 464.868 967.882 464.312V468.047H965.765V457.075H967.728L967.801 457.852C968.314 457.236 968.983 456.929 969.808 456.929C970.785 456.929 971.544 457.29 972.086 458.013C972.628 458.735 972.899 459.731 972.899 461.001V461.111ZM970.782 460.957C970.782 460.22 970.65 459.651 970.387 459.25C970.128 458.85 969.75 458.65 969.251 458.65C968.587 458.65 968.131 458.904 967.882 459.412V462.656C968.141 463.179 968.602 463.44 969.266 463.44C970.277 463.44 970.782 462.612 970.782 460.957ZM973.888 460.964C973.888 460.178 974.039 459.478 974.342 458.862C974.645 458.247 975.079 457.771 975.646 457.434C976.217 457.097 976.878 456.929 977.63 456.929C978.7 456.929 979.571 457.256 980.245 457.91C980.924 458.564 981.302 459.453 981.38 460.576L981.395 461.118C981.395 462.334 981.056 463.311 980.377 464.048C979.698 464.78 978.788 465.146 977.645 465.146C976.502 465.146 975.589 464.78 974.906 464.048C974.227 463.315 973.888 462.319 973.888 461.06V460.964ZM976.004 461.118C976.004 461.87 976.146 462.446 976.429 462.847C976.712 463.242 977.118 463.44 977.645 463.44C978.158 463.44 978.558 463.245 978.846 462.854C979.134 462.458 979.278 461.829 979.278 460.964C979.278 460.227 979.134 459.656 978.846 459.25C978.558 458.845 978.153 458.643 977.63 458.643C977.113 458.643 976.712 458.845 976.429 459.25C976.146 459.651 976.004 460.273 976.004 461.118ZM987.152 459.06C986.864 459.021 986.61 459.001 986.39 459.001C985.589 459.001 985.064 459.272 984.815 459.814V465H982.699V457.075H984.698L984.757 458.02C985.182 457.292 985.77 456.929 986.522 456.929C986.756 456.929 986.976 456.96 987.181 457.024L987.152 459.06ZM991.078 455.127V457.075H992.433V458.628H991.078V462.583C991.078 462.876 991.134 463.086 991.246 463.213C991.358 463.34 991.573 463.403 991.891 463.403C992.125 463.403 992.333 463.386 992.513 463.352V464.956C992.098 465.083 991.671 465.146 991.231 465.146C989.747 465.146 988.99 464.397 988.961 462.898V458.628H987.804V457.075H988.961V455.127H991.078Z" fill="white"/>
<circle opacity="0.8" cx="1062" cy="431" r="20" fill="#4EEAFF"/>
<rect opacity="0.72" x="272" y="839" width="230" height="72" rx="4" fill="url(#paint1_linear)"/>
<path d="M340.916 867.195C340.916 866.794 340.804 866.477 340.579 866.243C340.359 866.003 339.983 865.784 339.451 865.583C338.919 865.383 338.46 865.186 338.074 864.99C337.688 864.79 337.356 864.563 337.078 864.309C336.805 864.05 336.59 863.748 336.434 863.401C336.282 863.054 336.207 862.642 336.207 862.163C336.207 861.338 336.47 860.662 336.998 860.134C337.525 859.607 338.226 859.299 339.1 859.211V857.644H340.271V859.233C341.136 859.355 341.812 859.717 342.3 860.317C342.789 860.913 343.033 861.687 343.033 862.639H340.916C340.916 862.053 340.794 861.616 340.55 861.328C340.311 861.035 339.988 860.889 339.583 860.889C339.183 860.889 338.873 861.003 338.653 861.233C338.433 861.458 338.323 861.77 338.323 862.17C338.323 862.542 338.431 862.839 338.646 863.064C338.86 863.289 339.258 863.518 339.839 863.752C340.425 863.987 340.906 864.209 341.282 864.419C341.658 864.624 341.976 864.858 342.234 865.122C342.493 865.381 342.691 865.679 342.828 866.016C342.964 866.348 343.033 866.736 343.033 867.18C343.033 868.01 342.774 868.684 342.256 869.202C341.739 869.719 341.026 870.024 340.118 870.117V871.575H338.953V870.125C337.952 870.017 337.176 869.663 336.624 869.062C336.077 868.457 335.804 867.654 335.804 866.653H337.92C337.92 867.234 338.057 867.681 338.331 867.993C338.609 868.301 339.007 868.455 339.524 868.455C339.954 868.455 340.293 868.342 340.542 868.118C340.792 867.888 340.916 867.581 340.916 867.195ZM351.646 865.591C351.646 867.065 351.341 868.193 350.73 868.975C350.12 869.756 349.227 870.146 348.05 870.146C346.888 870.146 345.999 869.763 345.384 868.997C344.769 868.23 344.454 867.131 344.439 865.701V863.738C344.439 862.249 344.747 861.118 345.362 860.347C345.982 859.575 346.873 859.189 348.035 859.189C349.197 859.189 350.086 859.573 350.701 860.339C351.316 861.101 351.631 862.197 351.646 863.628V865.591ZM349.529 863.438C349.529 862.554 349.407 861.912 349.163 861.511C348.924 861.106 348.548 860.903 348.035 860.903C347.537 860.903 347.168 861.096 346.929 861.482C346.695 861.863 346.57 862.461 346.556 863.276V865.869C346.556 866.738 346.673 867.385 346.907 867.81C347.146 868.23 347.527 868.44 348.05 868.44C348.567 868.44 348.941 868.237 349.17 867.832C349.4 867.427 349.52 866.807 349.529 865.972V863.438ZM353.279 868.96C353.279 868.623 353.392 868.35 353.616 868.14C353.846 867.93 354.131 867.825 354.473 867.825C354.82 867.825 355.105 867.93 355.33 868.14C355.56 868.35 355.674 868.623 355.674 868.96C355.674 869.292 355.562 869.563 355.337 869.773C355.113 869.978 354.825 870.081 354.473 870.081C354.126 870.081 353.841 869.978 353.616 869.773C353.392 869.563 353.279 869.292 353.279 868.96ZM364.625 865.591C364.625 867.065 364.319 868.193 363.709 868.975C363.099 869.756 362.205 870.146 361.028 870.146C359.866 870.146 358.978 869.763 358.362 868.997C357.747 868.23 357.432 867.131 357.417 865.701V863.738C357.417 862.249 357.725 861.118 358.34 860.347C358.96 859.575 359.852 859.189 361.014 859.189C362.176 859.189 363.064 859.573 363.68 860.339C364.295 861.101 364.61 862.197 364.625 863.628V865.591ZM362.508 863.438C362.508 862.554 362.386 861.912 362.142 861.511C361.902 861.106 361.526 860.903 361.014 860.903C360.516 860.903 360.147 861.096 359.908 861.482C359.673 861.863 359.549 862.461 359.534 863.276V865.869C359.534 866.738 359.651 867.385 359.886 867.81C360.125 868.23 360.506 868.44 361.028 868.44C361.546 868.44 361.919 868.237 362.149 867.832C362.378 867.427 362.498 866.807 362.508 865.972V863.438ZM371.202 870H369.085V861.841L366.558 862.625V860.903L370.975 859.321H371.202V870ZM379.075 870V863.628H377.896V862.075H379.075V861.401C379.075 860.513 379.329 859.824 379.837 859.336C380.35 858.843 381.065 858.596 381.983 858.596C382.276 858.596 382.635 858.645 383.06 858.743L383.038 860.383C382.862 860.339 382.647 860.317 382.393 860.317C381.597 860.317 381.199 860.691 381.199 861.438V862.075H382.774V863.628H381.199V870H379.075ZM383.543 865.964C383.543 865.178 383.694 864.478 383.997 863.862C384.3 863.247 384.734 862.771 385.301 862.434C385.872 862.097 386.534 861.929 387.286 861.929C388.355 861.929 389.227 862.256 389.9 862.91C390.579 863.564 390.958 864.453 391.036 865.576L391.05 866.118C391.05 867.334 390.711 868.311 390.032 869.048C389.354 869.78 388.443 870.146 387.3 870.146C386.158 870.146 385.245 869.78 384.561 869.048C383.882 868.315 383.543 867.319 383.543 866.06V865.964ZM385.66 866.118C385.66 866.87 385.801 867.446 386.084 867.847C386.368 868.242 386.773 868.44 387.3 868.44C387.813 868.44 388.213 868.245 388.501 867.854C388.79 867.458 388.934 866.829 388.934 865.964C388.934 865.227 388.79 864.656 388.501 864.25C388.213 863.845 387.808 863.643 387.286 863.643C386.768 863.643 386.368 863.845 386.084 864.25C385.801 864.651 385.66 865.273 385.66 866.118ZM396.807 864.06C396.519 864.021 396.265 864.001 396.045 864.001C395.245 864.001 394.72 864.272 394.471 864.814V870H392.354V862.075H394.354L394.412 863.02C394.837 862.292 395.425 861.929 396.177 861.929C396.412 861.929 396.631 861.96 396.836 862.024L396.807 864.06ZM406.622 870H404.505V861.841L401.978 862.625V860.903L406.395 859.321H406.622V870ZM410.73 872.673L409.625 872.095L409.888 871.619C410.215 871.023 410.384 870.43 410.394 869.839V868.198H412.181L412.173 869.663C412.168 870.205 412.032 870.752 411.763 871.304C411.495 871.855 411.15 872.312 410.73 872.673ZM420.933 865.591C420.933 867.065 420.628 868.193 420.018 868.975C419.407 869.756 418.514 870.146 417.337 870.146C416.175 870.146 415.286 869.763 414.671 868.997C414.056 868.23 413.741 867.131 413.726 865.701V863.738C413.726 862.249 414.034 861.118 414.649 860.347C415.269 859.575 416.16 859.189 417.322 859.189C418.484 859.189 419.373 859.573 419.988 860.339C420.604 861.101 420.918 862.197 420.933 863.628V865.591ZM418.816 863.438C418.816 862.554 418.694 861.912 418.45 861.511C418.211 861.106 417.835 860.903 417.322 860.903C416.824 860.903 416.456 861.096 416.216 861.482C415.982 861.863 415.857 862.461 415.843 863.276V865.869C415.843 866.738 415.96 867.385 416.194 867.81C416.434 868.23 416.814 868.44 417.337 868.44C417.854 868.44 418.228 868.237 418.458 867.832C418.687 867.427 418.807 866.807 418.816 865.972V863.438ZM429.546 865.591C429.546 867.065 429.241 868.193 428.631 868.975C428.021 869.756 427.127 870.146 425.95 870.146C424.788 870.146 423.899 869.763 423.284 868.997C422.669 868.23 422.354 867.131 422.339 865.701V863.738C422.339 862.249 422.647 861.118 423.262 860.347C423.882 859.575 424.773 859.189 425.936 859.189C427.098 859.189 427.986 859.573 428.602 860.339C429.217 861.101 429.532 862.197 429.546 863.628V865.591ZM427.43 863.438C427.43 862.554 427.308 861.912 427.063 861.511C426.824 861.106 426.448 860.903 425.936 860.903C425.438 860.903 425.069 861.096 424.83 861.482C424.595 861.863 424.471 862.461 424.456 863.276V865.869C424.456 866.738 424.573 867.385 424.808 867.81C425.047 868.23 425.428 868.44 425.95 868.44C426.468 868.44 426.841 868.237 427.071 867.832C427.3 867.427 427.42 866.807 427.43 865.972V863.438ZM438.16 865.591C438.16 867.065 437.854 868.193 437.244 868.975C436.634 869.756 435.74 870.146 434.563 870.146C433.401 870.146 432.513 869.763 431.897 868.997C431.282 868.23 430.967 867.131 430.953 865.701V863.738C430.953 862.249 431.26 861.118 431.875 860.347C432.496 859.575 433.387 859.189 434.549 859.189C435.711 859.189 436.6 859.573 437.215 860.339C437.83 861.101 438.145 862.197 438.16 863.628V865.591ZM436.043 863.438C436.043 862.554 435.921 861.912 435.677 861.511C435.438 861.106 435.062 860.903 434.549 860.903C434.051 860.903 433.682 861.096 433.443 861.482C433.208 861.863 433.084 862.461 433.069 863.276V865.869C433.069 866.738 433.187 867.385 433.421 867.81C433.66 868.23 434.041 868.44 434.563 868.44C435.081 868.44 435.455 868.237 435.684 867.832C435.914 867.427 436.033 866.807 436.043 865.972V863.438ZM342.901 889.194C342.378 889.829 341.656 890.146 340.733 890.146C339.883 890.146 339.234 889.902 338.785 889.414C338.34 888.926 338.113 888.21 338.104 887.268V882.075H340.22V887.195C340.22 888.02 340.596 888.433 341.348 888.433C342.066 888.433 342.559 888.184 342.828 887.686V882.075H344.952V890H342.959L342.901 889.194ZM348.497 882.075L348.562 882.991C349.129 882.283 349.888 881.929 350.84 881.929C351.68 881.929 352.305 882.175 352.715 882.668C353.125 883.162 353.335 883.899 353.345 884.88V890H351.229V884.932C351.229 884.482 351.131 884.158 350.936 883.958C350.74 883.752 350.416 883.65 349.961 883.65C349.366 883.65 348.919 883.904 348.621 884.412V890H346.504V882.075H348.497ZM357.19 890H355.066V882.075H357.19V890ZM354.942 880.024C354.942 879.707 355.047 879.446 355.257 879.241C355.472 879.036 355.762 878.933 356.128 878.933C356.49 878.933 356.778 879.036 356.993 879.241C357.208 879.446 357.315 879.707 357.315 880.024C357.315 880.347 357.205 880.61 356.985 880.815C356.771 881.021 356.485 881.123 356.128 881.123C355.772 881.123 355.484 881.021 355.264 880.815C355.049 880.61 354.942 880.347 354.942 880.024ZM358.611 885.964C358.611 884.719 358.887 883.735 359.439 883.013C359.996 882.29 360.757 881.929 361.724 881.929C362.574 881.929 363.25 882.253 363.753 882.903L363.892 882.075H365.752V893.047H363.628V889.319C363.14 889.871 362.5 890.146 361.709 890.146C360.767 890.146 360.015 889.78 359.454 889.048C358.892 888.315 358.611 887.288 358.611 885.964ZM360.728 886.118C360.728 886.875 360.86 887.451 361.124 887.847C361.392 888.242 361.768 888.44 362.251 888.44C362.901 888.44 363.36 888.181 363.628 887.664V884.39C363.365 883.892 362.911 883.643 362.266 883.643C361.778 883.643 361.399 883.84 361.131 884.236C360.862 884.631 360.728 885.259 360.728 886.118ZM372.168 889.194C371.646 889.829 370.923 890.146 370 890.146C369.151 890.146 368.501 889.902 368.052 889.414C367.608 888.926 367.381 888.21 367.371 887.268V882.075H369.488V887.195C369.488 888.02 369.864 888.433 370.616 888.433C371.333 888.433 371.827 888.184 372.095 887.686V882.075H374.219V890H372.227L372.168 889.194ZM379.463 890.146C378.301 890.146 377.354 889.79 376.622 889.077C375.894 888.364 375.53 887.415 375.53 886.228V886.023C375.53 885.227 375.684 884.517 375.992 883.892C376.299 883.262 376.734 882.778 377.295 882.441C377.862 882.1 378.506 881.929 379.229 881.929C380.313 881.929 381.165 882.271 381.785 882.954C382.41 883.638 382.723 884.607 382.723 885.862V886.726H377.676C377.745 887.244 377.95 887.659 378.292 887.971C378.638 888.284 379.075 888.44 379.603 888.44C380.418 888.44 381.055 888.145 381.514 887.554L382.554 888.718C382.237 889.167 381.807 889.519 381.265 889.773C380.723 890.022 380.123 890.146 379.463 890.146ZM379.222 883.643C378.802 883.643 378.46 883.784 378.196 884.067C377.938 884.351 377.771 884.756 377.698 885.283H380.643V885.115C380.633 884.646 380.506 884.285 380.262 884.031C380.018 883.772 379.671 883.643 379.222 883.643ZM390.633 887.415L392.105 882.075H394.317L391.644 890H389.622L386.949 882.075H389.161L390.633 887.415ZM397.488 890H395.364V882.075H397.488V890ZM395.24 880.024C395.24 879.707 395.345 879.446 395.555 879.241C395.77 879.036 396.06 878.933 396.426 878.933C396.788 878.933 397.076 879.036 397.291 879.241C397.505 879.446 397.613 879.707 397.613 880.024C397.613 880.347 397.503 880.61 397.283 880.815C397.068 881.021 396.783 881.123 396.426 881.123C396.07 881.123 395.782 881.021 395.562 880.815C395.347 880.61 395.24 880.347 395.24 880.024ZM403.531 887.81C403.531 887.551 403.401 887.349 403.143 887.202C402.889 887.051 402.479 886.917 401.912 886.799C400.027 886.404 399.085 885.603 399.085 884.397C399.085 883.694 399.375 883.108 399.957 882.639C400.542 882.166 401.307 881.929 402.249 881.929C403.255 881.929 404.058 882.166 404.659 882.639C405.264 883.113 405.567 883.728 405.567 884.485H403.45C403.45 884.182 403.353 883.933 403.157 883.738C402.962 883.538 402.657 883.438 402.242 883.438C401.885 883.438 401.609 883.518 401.414 883.679C401.219 883.84 401.121 884.045 401.121 884.294C401.121 884.529 401.231 884.719 401.451 884.866C401.675 885.007 402.051 885.132 402.579 885.239C403.106 885.342 403.55 885.459 403.912 885.591C405.03 886.001 405.589 886.711 405.589 887.722C405.589 888.445 405.279 889.031 404.659 889.48C404.039 889.924 403.238 890.146 402.256 890.146C401.592 890.146 401.001 890.029 400.484 889.795C399.971 889.556 399.568 889.231 399.275 888.821C398.982 888.406 398.836 887.959 398.836 887.48H400.843C400.862 887.856 401.001 888.145 401.26 888.345C401.519 888.545 401.866 888.645 402.3 888.645C402.706 888.645 403.011 888.569 403.216 888.418C403.426 888.262 403.531 888.059 403.531 887.81ZM409.192 890H407.068V882.075H409.192V890ZM406.944 880.024C406.944 879.707 407.049 879.446 407.259 879.241C407.474 879.036 407.764 878.933 408.13 878.933C408.492 878.933 408.78 879.036 408.995 879.241C409.209 879.446 409.317 879.707 409.317 880.024C409.317 880.347 409.207 880.61 408.987 880.815C408.772 881.021 408.487 881.123 408.13 881.123C407.774 881.123 407.486 881.021 407.266 880.815C407.051 880.61 406.944 880.347 406.944 880.024ZM413.477 880.127V882.075H414.832V883.628H413.477V887.583C413.477 887.876 413.533 888.086 413.646 888.213C413.758 888.34 413.973 888.403 414.29 888.403C414.524 888.403 414.732 888.386 414.913 888.352V889.956C414.498 890.083 414.07 890.146 413.631 890.146C412.146 890.146 411.39 889.397 411.36 887.898V883.628H410.203V882.075H411.36V880.127H413.477ZM415.462 885.964C415.462 885.178 415.613 884.478 415.916 883.862C416.219 883.247 416.653 882.771 417.22 882.434C417.791 882.097 418.453 881.929 419.205 881.929C420.274 881.929 421.146 882.256 421.819 882.91C422.498 883.564 422.876 884.453 422.955 885.576L422.969 886.118C422.969 887.334 422.63 888.311 421.951 889.048C421.272 889.78 420.362 890.146 419.219 890.146C418.077 890.146 417.164 889.78 416.48 889.048C415.801 888.315 415.462 887.319 415.462 886.06V885.964ZM417.579 886.118C417.579 886.87 417.72 887.446 418.003 887.847C418.287 888.242 418.692 888.44 419.219 888.44C419.732 888.44 420.132 888.245 420.42 887.854C420.708 887.458 420.853 886.829 420.853 885.964C420.853 885.227 420.708 884.656 420.42 884.25C420.132 883.845 419.727 883.643 419.205 883.643C418.687 883.643 418.287 883.845 418.003 884.25C417.72 884.651 417.579 885.273 417.579 886.118ZM428.726 884.06C428.438 884.021 428.184 884.001 427.964 884.001C427.164 884.001 426.639 884.272 426.39 884.814V890H424.273V882.075H426.272L426.331 883.02C426.756 882.292 427.344 881.929 428.096 881.929C428.331 881.929 428.55 881.96 428.755 882.024L428.726 884.06ZM434.043 887.81C434.043 887.551 433.914 887.349 433.655 887.202C433.401 887.051 432.991 886.917 432.425 886.799C430.54 886.404 429.598 885.603 429.598 884.397C429.598 883.694 429.888 883.108 430.469 882.639C431.055 882.166 431.819 881.929 432.762 881.929C433.768 881.929 434.571 882.166 435.171 882.639C435.777 883.113 436.08 883.728 436.08 884.485H433.963C433.963 884.182 433.865 883.933 433.67 883.738C433.475 883.538 433.169 883.438 432.754 883.438C432.398 883.438 432.122 883.518 431.927 883.679C431.731 883.84 431.634 884.045 431.634 884.294C431.634 884.529 431.744 884.719 431.963 884.866C432.188 885.007 432.564 885.132 433.091 885.239C433.619 885.342 434.063 885.459 434.424 885.591C435.542 886.001 436.102 886.711 436.102 887.722C436.102 888.445 435.792 889.031 435.171 889.48C434.551 889.924 433.75 890.146 432.769 890.146C432.105 890.146 431.514 890.029 430.997 889.795C430.484 889.556 430.081 889.231 429.788 888.821C429.495 888.406 429.349 887.959 429.349 887.48H431.355C431.375 887.856 431.514 888.145 431.773 888.345C432.032 888.545 432.378 888.645 432.813 888.645C433.218 888.645 433.523 888.569 433.729 888.418C433.938 888.262 434.043 888.059 434.043 887.81Z" fill="white"/>
<path opacity="0.8" d="M292 911C292 922.046 283.046 931 272 931C260.954 931 252 922.046 252 911C252 899.954 260.954 891 272 891C283.046 891 292 899.954 292 911Z" fill="#FEC237"/>
<path d="M272.703 914.419C273.511 914.221 274.109 913.7 274.109 913.102C274.109 912.504 273.511 911.984 272.703 911.786V914.419Z" fill="white"/>
<path d="M272 903.266C267.735 903.266 264.266 906.735 264.266 911C264.266 915.265 267.735 918.734 272 918.734C276.265 918.734 279.734 915.265 279.734 911C279.734 906.735 276.265 903.266 272 903.266ZM275.516 913.103C275.516 914.461 274.306 915.597 272.703 915.858V916.625C272.703 917.014 272.389 917.328 272 917.328C271.611 917.328 271.297 917.014 271.297 916.625V915.858C269.694 915.597 268.484 914.461 268.484 913.103C268.484 912.714 268.799 912.399 269.188 912.399C269.576 912.399 269.891 912.714 269.891 913.103C269.891 913.701 270.489 914.221 271.297 914.419V911.639C269.694 911.378 268.484 910.242 268.484 908.884C268.484 907.525 269.694 906.389 271.297 906.128V905.368C271.297 904.98 271.611 904.665 272 904.665C272.389 904.665 272.703 904.98 272.703 905.368V906.128C274.306 906.389 275.516 907.525 275.516 908.884C275.516 909.272 275.201 909.587 274.812 909.587C274.424 909.587 274.109 909.272 274.109 908.884C274.109 908.286 273.511 907.765 272.703 907.567V910.347C274.306 910.608 275.516 911.744 275.516 913.103Z" fill="white"/>
<path d="M271.297 907.567C270.489 907.765 269.891 908.286 269.891 908.884C269.891 909.482 270.489 910.002 271.297 910.201V907.567Z" fill="white"/>
<path d="M272 899C265.409 899 260 904.409 260 911C260 917.591 265.409 923 272 923C278.591 923 284 917.591 284 911C284 904.409 278.591 899 272 899ZM272 920.141C266.96 920.141 262.859 916.04 262.859 911C262.859 905.96 266.96 901.859 272 901.859C277.04 901.859 281.141 905.96 281.141 911C281.141 916.04 277.04 920.141 272 920.141Z" fill="white"/>
<path d="M1073.47 428.966L1070.66 428.277C1070.5 427.784 1070.31 427.306 1070.07 426.842L1071.5 424.452C1071.67 424.17 1071.63 423.819 1071.4 423.594L1069.41 421.597C1069.18 421.372 1068.83 421.33 1068.55 421.498L1066.16 422.933C1065.69 422.694 1065.22 422.497 1064.72 422.342L1064.05 419.534C1063.96 419.225 1063.68 419 1063.36 419H1060.55C1060.22 419 1059.94 419.225 1059.86 419.534L1059.18 422.342C1058.69 422.497 1058.21 422.694 1057.75 422.933L1055.36 421.498C1055.08 421.33 1054.73 421.372 1054.5 421.597L1052.5 423.594C1052.28 423.819 1052.24 424.17 1052.4 424.452L1053.84 426.842C1053.6 427.306 1053.4 427.784 1053.25 428.277L1050.53 428.966C1050.22 429.036 1050 429.317 1050 429.641V432.453C1050 432.777 1050.22 433.058 1050.53 433.128L1053.25 433.817C1053.4 434.309 1053.6 434.788 1053.84 435.252L1052.4 437.642C1052.24 437.923 1052.28 438.275 1052.5 438.5L1054.5 440.497C1054.73 440.722 1055.08 440.764 1055.36 440.595L1057.75 439.161C1058.21 439.4 1058.69 439.597 1059.18 439.752L1059.86 442.466C1059.94 442.775 1060.22 443 1060.55 443H1063.36C1063.68 443 1063.96 442.775 1064.05 442.466L1064.72 439.752C1065.22 439.597 1065.69 439.4 1066.16 439.161L1068.55 440.595C1068.83 440.764 1069.18 440.722 1069.41 440.497L1071.4 438.5C1071.63 438.275 1071.67 437.923 1071.5 437.642L1070.07 435.252C1070.31 434.788 1070.5 434.309 1070.66 433.817L1073.47 433.128C1073.78 433.058 1074 432.777 1074 432.453V429.641C1074 429.317 1073.78 429.036 1073.47 428.966ZM1061.95 434.562C1060.01 434.562 1058.44 432.988 1058.44 431.047C1058.44 429.106 1060.01 427.531 1061.95 427.531C1063.89 427.531 1065.47 429.106 1065.47 431.047C1065.47 432.988 1063.89 434.562 1061.95 434.562Z" fill="white"/>
<defs>
<linearGradient id="paint0_linear" x1="885.75" y1="416.5" x2="1019.77" y2="563.879" gradientUnits="userSpaceOnUse">
<stop stop-color="#0085FF"/>
<stop offset="1" stop-color="#453C9E"/>
</linearGradient>
<linearGradient id="paint1_linear" x1="323.75" y1="821" x2="489.648" y2="967.964" gradientUnits="userSpaceOnUse">
<stop stop-color="#0085FF"/>
<stop offset="1" stop-color="#453C9E"/>
</linearGradient>
</defs>
</svg>
