<svg width="805" height="806" viewBox="0 0 805 806" fill="none" xmlns="http://www.w3.org/2000/svg">
<g opacity="0.3">
<g opacity="0.8">
<path d="M631.799 446.649L631.8 446.65L655.609 487.616H599.215L575.311 446.149L575.166 445.898H574.878H320.271L430.06 255.905L430.06 255.904L454.164 214.215L475.804 176.798L631.799 446.649ZM404.863 396.539L404.429 397.289H405.296H546.426H547.293L546.858 396.539L476.293 274.599L475.86 273.851L475.428 274.599L404.863 396.539Z" stroke="#3BB9FF"/>
<path d="M394.434 250.129C354.884 250.129 320.773 265.011 293.03 294.305C265.853 322.041 250.769 359.445 251.088 398.311C250.839 423.86 256.751 449.09 268.32 471.856L242.286 517.031C218.092 483.322 205.645 443.448 205.645 397.833C205.645 345.627 224.383 299.954 261.284 262.28C298.184 224.609 343.177 205.5 394.968 205.5C403.6 205.521 411.994 206.195 420.556 207.279L396.001 250.129H395.999H395.995H395.991H395.988H395.984H395.98H395.977H395.973H395.969H395.966H395.962H395.958H395.955H395.951H395.947H395.943H395.94H395.936H395.932H395.929H395.925H395.921H395.918H395.914H395.91H395.907H395.903H395.899H395.896H395.892H395.888H395.885H395.881H395.877H395.874H395.87H395.866H395.863H395.859H395.855H395.852H395.848H395.844H395.841H395.837H395.833H395.83H395.826H395.822H395.819H395.815H395.811H395.808H395.804H395.8H395.797H395.793H395.789H395.786H395.782H395.778H395.775H395.771H395.768H395.764H395.76H395.757H395.753H395.749H395.746H395.742H395.738H395.735H395.731H395.727H395.724H395.72H395.717H395.713H395.709H395.706H395.702H395.698H395.695H395.691H395.688H395.684H395.68H395.677H395.673H395.669H395.666H395.662H395.658H395.655H395.651H395.648H395.644H395.64H395.637H395.633H395.63H395.626H395.622H395.619H395.615H395.611H395.608H395.604H395.601H395.597H395.593H395.59H395.586H395.583H395.579H395.575H395.572H395.568H395.564H395.561H395.557H395.554H395.55H395.546H395.543H395.539H395.536H395.532H395.528H395.525H395.521H395.518H395.514H395.51H395.507H395.503H395.5H395.496H395.492H395.489H395.485H395.482H395.478H395.474H395.471H395.467H395.464H395.46H395.456H395.453H395.449H395.446H395.442H395.438H395.435H395.431H395.428H395.424H395.42H395.417H395.413H395.41H395.406H395.402H395.399H395.395H395.392H395.388H395.385H395.381H395.377H395.374H395.37H395.367H395.363H395.359H395.356H395.352H395.349H395.345H395.342H395.338H395.334H395.331H395.327H395.324H395.32H395.316H395.313H395.309H395.306H395.302H395.299H395.295H395.291H395.288H395.284H395.281H395.277H395.273H395.27H395.266H395.263H395.259H395.256H395.252H395.248H395.245H395.241H395.238H395.234H395.231H395.227H395.223H395.22H395.216H395.213H395.209H395.206H395.202H395.198H395.195H395.191H395.188H395.184H395.181H395.177H395.173H395.17H395.166H395.163H395.159H395.156H395.152H395.148H395.145H395.141H395.138H395.134H395.131H395.127H395.123H395.12H395.116H395.113H395.109H395.106H395.102H395.098H395.095H395.091H395.088H395.084H395.081H395.077H395.073H395.07H395.066H395.063H395.059H395.056H395.052H395.048H395.045H395.041H395.038H395.034H395.031H395.027H395.023H395.02H395.016H395.013H395.009H395.006H395.002H394.998H394.995H394.991H394.988H394.984H394.981H394.977H394.973H394.97H394.966H394.963H394.959H394.956H394.952H394.948H394.945H394.941H394.938H394.934H394.93H394.927H394.923H394.92H394.916H394.913H394.909H394.905H394.902H394.898H394.895H394.891H394.888H394.884H394.88H394.877H394.873H394.87H394.866H394.863H394.859H394.855H394.852H394.848H394.845H394.841H394.838H394.834H394.83H394.827H394.823H394.82H394.816H394.812H394.809H394.805H394.802H394.798H394.795H394.791H394.787H394.784H394.78H394.777H394.773H394.77H394.766H394.762H394.759H394.755H394.752H394.748H394.744H394.741H394.737H394.734H394.73H394.726H394.723H394.719H394.716H394.712H394.709H394.705H394.701H394.698H394.694H394.691H394.687H394.683H394.68H394.676H394.673H394.669H394.665H394.662H394.658H394.655H394.651H394.647H394.644H394.64H394.637H394.633H394.63H394.626H394.622H394.619H394.615H394.612H394.608H394.604H394.601H394.597H394.594H394.59H394.586H394.583H394.579H394.575H394.572H394.568H394.565H394.561H394.557H394.554H394.55H394.547H394.543H394.539H394.536H394.532H394.529H394.525H394.521H394.518H394.514H394.511H394.507H394.503H394.5H394.496H394.492H394.489H394.485H394.482H394.478H394.474H394.471H394.467H394.463H394.46H394.456H394.453H394.449H394.445H394.442H394.438H394.434Z" stroke="#3BB9FF"/>
<path d="M396.966 250.202L421.628 207.416C432.159 208.737 442.918 210.924 453.104 213.953L429.699 255.176C419.194 252.429 407.847 250.435 396.966 250.202Z" stroke="#12A4F4"/>
<path d="M397.201 594.83H397.195C341.832 594.83 295.553 575.708 259.449 538.035C253.441 531.61 247.867 524.792 242.762 517.629L268.763 472.6C275.082 484.673 282.904 495.899 292.044 506.01C319.181 536.029 353.688 551.284 394.63 551.284C443.8 551.284 483.706 530.623 513.152 490.01L514.494 488.187H566.984L563.51 494.727L563.508 494.732C547.769 525.236 523.957 550.835 494.668 568.738C465.198 586.235 431.472 595.263 397.201 594.83Z" stroke="#12A4F4"/>
</g>
<path opacity="0.3" d="M682.304 402.803C682.304 557.167 557.032 682.306 402.498 682.306C247.964 682.306 122.691 557.167 122.691 402.803C122.691 248.44 247.964 123.301 402.498 123.301C557.032 123.301 682.304 248.44 682.304 402.803Z" stroke="#3BB9FF" stroke-width="2"/>
<path opacity="0.2" d="M803.999 402.804C803.999 624.714 624.241 804.607 402.499 804.607C180.758 804.607 1 624.714 1 402.804C1 180.893 180.758 1 402.499 1C624.241 1 803.999 180.893 803.999 402.804Z" stroke="#3BB9FF" stroke-width="2"/>
<circle opacity="0.15" cx="307.272" cy="139.947" r="8.51851" fill="#3BB9FF"/>
<circle opacity="0.2" cx="307.274" cy="139.947" r="2.59259" fill="#3BB9FF"/>
<circle opacity="0.4" cx="307.273" cy="139.947" r="1.11111" fill="#3BB9FF"/>
<circle opacity="0.15" cx="627.936" cy="571.348" r="18.2539" fill="#3BB9FF"/>
<circle opacity="0.4" cx="627.936" cy="571.349" r="8.51851" fill="#3BB9FF"/>
<circle cx="627.936" cy="571.349" r="2.38095" fill="#3BB9FF"/>
<circle opacity="0.1" cx="51.7202" cy="599.337" r="22.5132" fill="#3BB9FF"/>
<circle opacity="0.15" cx="51.7192" cy="599.337" r="14.0707" fill="#3BB9FF"/>
<circle cx="51.7197" cy="599.337" r="2.9365" fill="#3BB9FF"/>
</g>
</svg>
